<mxfile host="app.diagrams.net" modified="2021-02-02T14:09:49.508Z" agent="5.0 (Windows NT 6.1; Win64; x64) AppleWebKit/537.36 (KHTML, like Gecko) Chrome/88.0.4324.104 Safari/537.36" etag="TWXpgdhG9U2FRcGf5UFF" version="14.2.9" type="github">
  <diagram id="nz_hM1T4NyEppn_GXksC" name="Page-1">
    <mxGraphModel dx="942" dy="504" grid="1" gridSize="10" guides="1" tooltips="1" connect="1" arrows="1" fold="1" page="1" pageScale="1" pageWidth="850" pageHeight="1100" math="0" shadow="0">
      <root>
        <mxCell id="0" />
        <mxCell id="1" parent="0" />
        <mxCell id="1UfFJ1RZVOHwHZjwDA17-16" value="" style="endArrow=classic;html=1;exitX=1;exitY=0.5;exitDx=0;exitDy=0;fontStyle=1;strokeWidth=2;" parent="1" target="1UfFJ1RZVOHwHZjwDA17-1" edge="1">
          <mxGeometry width="50" height="50" relative="1" as="geometry">
            <mxPoint x="289" y="75" as="sourcePoint" />
            <mxPoint x="450" y="230" as="targetPoint" />
          </mxGeometry>
        </mxCell>
        <mxCell id="1UfFJ1RZVOHwHZjwDA17-1" value="" style="shape=image;verticalLabelPosition=bottom;labelBackgroundColor=#ffffff;verticalAlign=top;aspect=fixed;imageAspect=0;image=data:image/png,iVBORw0KGgoAAAANSUhEUgAAAHYAAABXCAYAAADRV7GCAAAgAElEQVR4Ae2dB3hVVdb3sYOiIoiAKCBFBCyoY8exAUoX7PV17F3f0dFRx67jWEcdGRApCak3vZMeEgJJICGk317S6027vf2+Z50YXwlxJqM47/fMy+X5c27OPefce85/r7XXXmvttUdx5HVYn0AgEMDv99PV1YXP58NutyvXl32HG/JdXq+Xwe/0eDw/3MuoH94deXNYnoA8ZCHU4XAoRAqxbrf7sJMqjWTwuwbJHSRYbuQIsYeFzv+5yODDlq3L5VLgdDp/FWKFXGlEcn0hV16D2yPE/g8nh+3doMoVSRWCRUUKAYcbQqJ8h2wHJVi28jpC7GGjc+BCg+pQHrigvb2d4uJi9u/ff9hRUVHB7t27MZlMPxA7eDtHiB18EodxOyilQmx5eTmxsbHk5eUpyM7OJicn54f3WVlZ5ObmHvS5HCv7Bo+V93KOQPZlZmYq24KCApKSkti5c6fSiOR7BfI6QuxhJHTwUoNqUVRkZWUlZrNZeeDSFw4+fDGuhHhRzzabTbGe5XN5/+M+efB4UeeDKl76bjlGzu3r66OkpOSH6x4hdpCFX2E7HLFChuwXK1kIkfdCrhAzSHhvby9NTU00NzfT09OjfC7Hy375W97LdeT8wX77CLG/AoE/dcnhiJV9/f39ikSKVAlRIp1CkPSTX375JQ8++CBXX301F1xwAatXr+aNN94gJSWFtra2H4js7u5WiBZy5TpHiP0pFn6F/cMRK0QIkfKZ1WpViMrPz+fll19m9uzZHHPMMZx44omcccYZnH766Zx00kmMGTOG6dOnK2QnJib+QPBgg5BrHSH2VyDwpy45HLGDQxPpV0UFq9VqLr30Uk455RSFyLPPPlsh9eSTT2by5MlMmjTph+2ECROUzzZs2EBnZ+cP0nuE2J9i4FfaPxyxQqhIl/SRYt1eeOGFioTOmzeP8ePHK0SeeuqpTJw4EdkKRGpPO+00RWrPPPNM5bhPP/1U6WuFYNECotKLioqOGE+/EpcHXXY4YgelS3zI9957r0La+eefT1paGuHh4dx6660sXLiQ22+/XelrFy1axLXXXsvrr7+ODGseeughRV0vWLBAOWfQgDpC7EGP/tf9YzhiRVLFUIqKilKkcdy4cYqR1NDQoPwYi8WiOBqk/5RjxTrW6/WK6pXrffTRR0qfKypaGsZgP3uE2F+Xy4OuPhyxMmQRq/iOO+5g9OjRTJs2jauuuop9+/YpkSAZysiwR7Yi1YMv6Y9l+PPHP/6R448/XlHL0gfv2rXriCoefEj/ru1wxIrxtGfPHs466yykv5S+84svvlCkWMiUl0iqHCdbuYb0y4NODOlH58yZw9SpUznhhBN49913lWN/UmK7u6z4PF4IoGzdThc+p/cQuJ0enE73iOB2OxkKj9uB1zMEbgd+t+cQ+Nw9DIXb04PbOwSePtxucYQfjOF+p8vlOeQ42TfcsR6PqM2hEKfAwZBn5bbbcDhs2B02+p02+pz9OPq6wN0N3h72FuWiN2sU1RkUFKT0k0KqqGLxGA2+hEiRanlJ/ykEy2uQaBkirVy5UumbxaiSca40iMHhzmBjknPlNcrldOF1e7D19WO32fG43IfcgNyQW+AbKby4fUPg9eH2+g+Gx4/HI9GPofAoLVn6pEG4PB5c3uHgxSWt/EcY+e/8ifuRqMkhkN8/BEK0e4Bsl9eH0+vDLltXL51tFnzubsoP7KVar1Ws1kFipZ+U8aoYRaKe5R6lzxSHg5AlZApBg/2oSLBYwUuXLlXU+NixYxUjS86VxiAN5BBiA/4ATrsDe78NaYFdHZ14xauBIsQ/bGWPd4Tw4WcoBs4FaYc/IADisz4EQ75bfovHB+5DEMAT8B+Cn/qd0pZ/jJ8+7tDf/+PzfnjvB78PfH5wBwbgCASwuXrxevsBN2q9jmZrt0LSxo0bOfroo5kyZQoybhWvkpAjhEpfKhDVK8QKqYPSJ1vpZy+77DKFWOmj77vvPqURCLESPTqEWCHVYbMrpH7x2eesWrGSNWtWsmr1ioOwevVybl297GdDrrdi9aqDsHL1KlatGgby/UOwZvUK1qw6GLeuXs7aNcsOwS/5nXLumlUjw60rlyNYs3I5q1ctZ+XqAdx22zJuv/Vmbr91KbffsY6qOo3Sb4rBI14mIUbU6QsvvPADOULuIMkiwUKubAfHvhIhkgYhfawYUa+99prSCKSPFWLlfIEQrKhikdLO9g7cLjf33HU3625dS2TIesKDvjwIkcFfoAr+bESI3PYFQxEe9AWhwZ8fjKDPCQv67BCEh3zIUEQEf0BE0MGIDP4zUds/PwTD/c7IoE8ZClXwp8PeT8TWzzkE2z4hYghU2z4hatvHqII+JiL4YyK2f0xEyCfEqr4haMMHfPfle3z+53epN1sUgqSfXLdunWL8zJo1S3E4yDBGhjZCyGCelFjHg0aTEGw0Grn++usVg0sML4E4OUSSxXf8Y2KFXIVYj9dPt7ULv9fF2hVLefKhe3F2VuFsL8fVVoqnbR/ethLcLbsJ9JXibN1Ff1M+zo5i3NZ99LXuwdFWhLu9CHdzAf6WQjyNe/A0FeFq3IOzsRhPayne9v14O8qwNxVjbyrC016Gu3Ufvs59OJt3Y2/chbe9BHdrEc6OTJyduXRa0nB05dPXno2jq4Cepkz8vbtwtezA15aGu2kHnuYSfC37cDYU4WzYg7+1FFdTMd6Wffjby/C1leFqLMZWn4e7o4j++p14rfvoNufhs+7H1VaCq7UEV9teus078XeX42ktw9u6H1fzvh8gv9PVWoRb7rWtCFfrHtyte3A178LRlI+nbTf+rhK8HUW4mgtwN+3G3VFFeUEa9SajIo1C3pYtWxRiZCz67LPPMmPGDGUIJA7/uro6ReqkTxUVGxwcrDgmpBGIwSXSKi7HtWvXKqpZrjeoigcl9gdiXb4AVmsnAa+dO1beyJP3rsFen0+/MRO7Phm3PgmfLhanRoVdF4nNHI+7cQfd+kSsxmR6GzKwWXbgrd+BTx+Ppy6KQH0Kfl0CAVMagaYc3IZUemvicOtTCdRn4bdk4DXtwKFNwqaJI9CaQ6ApE685BZchCXdjHH2GWGyWdLzWQrqNCbQbEulvSKexfBuBxkTc2u34zVE41EkK/PVZBBpzcetScWqS8OjTFPgMOwhYsnAb4ulTR+BvTMFap8JmSsJmSKFHnUSfNgWbPo2A4wC92hT66+LxmzOU3x5ozMZnTqetLAynLgmXPkW5H7fh+99qTMRlSCDQuAOPOZmemgicumhcunicxlz2ZkbSZNEpKlcIq6+v58Ybb1RcihJkf+mllxTVKl4o8R8PkiWS+PTTTysqW1yOMnaVQIEMl8RTJccJiYNW8YiIdVsycOkT8WhjCOiiCGjDwRCJVy8/WkVj6VZ6jclYjan01+fQb8mgsyIcrzYWT10E3roQfOowXOow3BoVPnM8PlM8Lq1cIxqPPhqXJpKANBKdCnttGG5DtPK5oy4MuyEZhyGT8rRNRP/9j7gaC2iqSka1/mUsRSF4dIlKA/LWReAzxuHVRuHRqL5HJG51JD5dNH5TnPJdXn0Mbn04blMkbfs34mtOpFsdhrd5BzZdMjZDKjZ9Cknf/jf1JcH4jLE41OE41RF49FF4LfF49XEEzEm4NTG4NNH4DQm4dCrcOvntEbi0obh0YQQaYvHqIvBqo3EbMyjNCKHZVKuo1sHguGRAiCH0wAMPKJkTMTExSsaEGE/Szwqkf/38888VH7JIq/iOxZIW1S0qfVBV/0vEei1pyMPw6iJBFwba7birNxMwx+C2JNCjicekTuL3j93EzVdM40DOFhzGdGy1Ubg0UQR0YXg1YQQscfgbk+itCae/NhS33LApGn9DAk5NGL3VQXgNUXiNUTg1csx2fJZY2isT8bTs46P/foBF503E1VLK/pztzBk3mrTNb+NpKaB7bwgBQyIuTTi9FVvxGaLwNyYqjclvicNZF4pPr1L+7qvcRnvpBgLdmTTv/xaHIZrO2lAs+7bh6tmHsz6HxvIoFk4dzbaPHyfQkqzca6BRyIugvyaY/uowusuDCDSkEGhIxVEbgVcfhUsbhlsXrjQce10wXkMEPkO40oBdxnT2ZmynyVSlSJcMZaRfFNKSk5MVqZ0/fz7vvfce69evV4Y0Qpr0tSKRmzdvVsgUiRW89dZbCuki+YNOjX+JWLdlB25DLB6dioA+HLQh+PXhBBqS6aqJwdW2m/Cg9zlj/CjmTp/EWy89gL1lH/WlEfgas3BpE/BbduDUp2KtjcdlycbXkouvLZc+XQLt1ZG4G9MV9OtTsBvT8DTnEugppqMmhg5jBs6OMt7/4++4aM5p9LaXYqnLoMmYR0NlAs6GLBzaODyGRNyWNGjPw2VOpVcdi8uUQq82jn5tPN7GDDyWNHyi6jvysdbG0VEbT785k0Dffq5fOIGS7G30NhXhs9eh25+IvXUffYYk2qsicdWn4WnKwNuWi78xE19DBnZ1HP21MXiNKXibMunRxCn3FOguxNOchd2YhNMUg8MYT78pm92ZYdSb6xQrV8gQFSuSKcRJMpq4GCV0JyE8GdII8YPjV5FYIVSCA9u2bVPisfK5ED847v2HxHYpxpPjhz7WVZ+p/DCXLhqfPoKAXlRqGA5TEvb6bLy91TzyX8u54vJZvP7K88w4cyytDaX0NxbQpUsm0LabkqRvUO+KpEO3k+Tgj/ju4+eo2BmETY4xpNNYFcfu5G9oVedg3BfHxj8/xfYvX6ZZn0tPWwFdLXt4781HmD1jNFZrCa2N+SRFfUJDTSK9pmRc9alY6+Ip27GJ6PWvsj/9W2wtxXTVpdOnz8LTvAfLvhjlsw3vPUp66F/oMe+iy7iTxtoMijKDGX/CKDZ++QY1ZcnoqrPYmR7MgeJ4uvSpOJp30WXKIzf2c75+93ds/+wpjPsi6NOnYzOl42pIpyj1r7SoM7BUp7D182fZ8OfHaahOpLc+mT5paOY8dmWpMJi0CpkexfHgp6e3D7vdoQyBPB43ZfvLCAsLU1SsECVDGOkzhXjpTwdJlH2S9SgSL6p40Mgadhzr9fnp6O7F6/Ny24olPHX3ajyWPLz6RPyaUNAF4ddvo1+7FVdXJs3aVBoNxZx/9ulEb/yKwqw4Tj1mFCEbPsLfU0aDOgifezerl17F5QsWcveaW1h+0zUsu/4q5p8zlY1fvonbVkJq1F84e+wYVi26iZuvmc+aJVdw8bkzWXTZPKp2J+Lrq+H9Vx9h4dwzsPXuRF0ax+nHHkWe6u/Ymgs4UBjF/bcuZ+lvLuGJO9dx+bnTuG/FTTRWF9FhLGTDp69wwcyp3L78Rp544F4umTeD+9ctobOllLKiYJZeu5CxR43mtqU38ec/PUx34wGmjhtD+Hcf4+jJoGJvLDdfeSlXzJvHCw/dw21Lb2DRBfOJ2Pglto5yWs2xzDtvLPff/wArb7iWZx9Yy7VXzOPsGaeTXxiMq70AhyGd0sztWAy1OPx2+txObC4/Nqefru4+vD43Pr8Tn1/ymAa8TT7fwFhUJPqfQYZC0hAkE1JIFmmWflwZ7gxPbDZefcKPiN2OryEK4/6t+O2VfPPJH7j+kgXYLFpajftZu+Qq7l91AwGfgZ7GFNzOPG5bcQ3jRh/P1vXv0tteTqNxDw/edTNXXjwdV08ZmUnfMfn4E7hv5Y1oymPBqadsVybnTT+Lt154AFtnBe+/9gTzZ55Of08BugPJTD7uaHbFb8HaVsSTDyzmkrkzqSpIxtdrJjd2ExfPGEdC0Mc0qtO5b81veOZ3K+ju1ON1tbNzRzTjRh/Nto1vYe/ZS25qCHOmnElG7FY6mvLpqN/NpLFHkRTxNX1dRTxx381cMmcW+3KT8XtMuKzV3LXsOmZMGIOmIgdvbylz55zCjOlTSVNtwW/VU1qYwMljj+Lll+8i0LsXpz6F4uS/o60qxONpp6+vXSFQCLHbnfT0WXE4e3E4+3A47IpUOxwDGYhC0D+DSK3kQ5WVlSl9r1xXpPqnia3PwquP/Z7YYPz6MDyWWNR7t1Gvy+aKhWfx7ivP4OxuxN6jIzliE5fOPhNdaQpd5nR6utO5ddkVXL5gOm31BfS1ZWNt28XWjW8zbvRR1O1PJjF8E2eNOZXvPnkJe0cm9dpkbO061i29nqsumENXWxUfvPEcc8+ZSLe1kIqSeKadcjw5Ud+hOxDHwrkTefnph3C3l9KuycLetIeqglAO5G2nRZ9Fk3EnZnU2pYWxFOaoyE2JYsYZp/DtV6/S17Wb9ITvGH/8sVSVxOOxF6OvSubMU44lZOOHGKuymTPpVJ598G58bgstpkTsvXnEhX3ASaNGkRa5GVdXFfNnn84zj99Pf1M5TRVpdJlLmDPjFB7/3RoCPaW4dfFoC74jN/Vb8nO2kbMjlPysFDb87W8U5OWSnp5CekYy6RkppKfvID09nfT0zO+38v6fQyxq8WiJdAupQvY/IDYdryEav2b7gOGkC6dfE4WnczepcV8z7qRjee3Fh0mP2kLwxrfZ9rcPmTNpAh/84WH6Ggrx+8q4bcXV3LnsWuytBbTrw3BY8yjMC2Xq+JPYkx1JUvhm5pw2hcStH+N3FNBuTMDjqOfxe9ayYOZ0OlpreevVZ5k7awodnXso2qli6tgTyIvbxoHCUM4+42S2bfwMd2uB4hDoMWTTY8jB13OADmMB0UEfcNPV57Bg1ljOm3ka119+MeNOOIbtm97F56kkO3ULU8edRFlhOB1NO2gx5HPeWeMJ3fAZuoqdzDjtRP786nN0mPNpb4xCX/cN5SXBCrEh33yOs6OG8+ecxub17+Ns3E2/IR2roZDLL5jOY/euwt9YqAyR/G3pGCoiaVLH0V1fSO3eLBZdehGaqip8XicB3ATwEAgMZB36/SNXxUKmqF+B9LuijsUw+wfEpinDkAFiQ/HrIunXxeHrKeWhe5Zy/rlTueWGi1l5/SWsXno+dyy7iotmTOHic8Zj3J+G076f1Uuv5ZarFtLXnEebZhv9bZnkZYQwcexodmdGER/6LZOOO4HYDZ/SbUmgy5KIo6WC/1p7M5ecN5MWczkvP/8o88+dRntnMTXl6Yw/7hiyordi0GQy86zT+frTt/G07qS9NhFbQwG2hkJczXspTAtm9pRTeeZ3a6nYn4lFX0y9Qc3cs6ey/os/4HOWUZIfyYTRoyjbFUpnUwbWxlLOGncyEZs2oCnNYtKJY3jlyQewdZXS0x5Pb1coeWmfKsRGb9mAv1fDglmnErP9MxyWbHrUCVj1+cw/exxP3nMrgY5SXNUheC3R2FtTcTQl023OpMVUyuwp42k26hViQaY+SlhkwMcrUvfP+tbBz0U6RV0LqQI5V/rcnyTWZ87Aq4kmoFXh16pw1ERiN2XSUJPOrLPH8vev/4jXpaarIQ+HvRCPq4KdmcGMOWoUWzd+iN3VxpLF13PB7DmYKgvpbc7D3l7Jpq8+4dyZx1NVE0p21naOP3oMb7/+Kg67FrM+n94uI8t+exFLrzmPvu5K3nrlUS49/xy6u4qp2JvG5BPHkBsbhLWhgKsvm8Oda5fQ21KCdn8qfW21vPfCQ6QGrSclYhNTTz2G0sJkjJo9tDdXER22iUnjTuHbb96hv7eEhJi/MvHk4yjbnURXSwEN+t1MOfVEwr77mkZzIZecdyZ3rlyCw2ah2ZJFvWUXWzZ9wAnHjGJnTjjd1mLmzxvHN1+8hL1hJ111qdjqDzB/+pk8/+hd+DoP4Dan0aOPptUoQ8etOAwxtOlzmHf2OPq6uvH6FVlVomb+wekZ/oE+UmHnF/w3ajjjSdxzg8SK58mrjcFdn8PbL67j4rlnoqlIprsxH3tTDi31KqwtWdTr8rj0vMncs+o67O5Wblm2hDHHnsAfnnqM0oIokqM2cuXFc7nrjqvo6s2hYHcoxx5zDFdddjl/++pVKg+k8s3nrzNn2hhit32Iz1bFq8/exUVzJtHamI3uQBqnHXMUWZHr8fTu5fM/P8HcGRP56K2nFKPlozeeZvbEU8iNCaIoM44pJ5/Eay8+QklhGuv/+g5Lr7+Uc6dP5tH/WkZtdRxFhRFMPPkE3vj9f7F75ya6W8o5bfQxRG9fj8u+l79/8UdmTBrPVx+9iVlTQErM37l03tmsu/kaWix7sbbmMWfWGL7+4kWcrXn0GFLobtjLtDNG8/zDa/G07KG/VoXDFEeHIf7/E2IbcgaIVUeAPpqAPp7msghuv2kmLz++Ak9fOd3iR65PwtYYTn1FEO7WEv7+4YssvmQGDe0VrF23jHUr1vHiI49zxdwpXHXhVMUi3r8vmrbOVHLzNjJ+3En8/pnnuO6aaVxywalcdO5EPn3/YeyN+fh7ivnmg8e5+5aL6WnJoGpPGEsvmk5W6Ec4mtOw1mfy0Z+e5vyZk5g37VSuuXAqn7zxJH3ttVgO5PHhq49x2XmTuGj26Vx98SzKCpPY/PX7zJ46gY/evZMWUz5PP3gHC2edxguP/5aKIhWLrzyXoPVvY+tOxdZewp+ef5R5Z0/l3CmnKRb3U3fdgrE0D79dR31NJGuWzSB482t0m+KxaiNpUaey/IZ5fPjyHfibsgiY47Crw3E0pB1C7C8QxhGdOrzENmQPEKsRl2I0Pl0cdl0ytflb6NCmYTOn49DF4KwNxlMfgV0Thd2Qic28C92eSOzOGlavuJZbF99Af2s9xSlbqSkKx1CeiK2rBLM2nLLiUCaeNJqMxFBM+jQq9gRhqM2ix5xHvz6ZPn0sbVVxqAvDsDdL/5WEZXcM/YYMejXB9JrisLftw1SZSVVhJNriSBzNO+k1pihOBEdjAdrd4RzIDqZZV0CzOC4su1FXxmCu2IqtIY/W6t1U54Vg3r8FT/9eDMVRdJuy6G+IoKU6nh5tCZZ9mRzICqIqeyN99buxVufSXZeO3ZyAoTyMhtoEHKYY3IYw3M2ZVO0Kpl0dR++BbfjU23FUbsMhfvchqnhE7PyCg4Yl1mfO/B9VrI3CVReFTZOIv6WAfkMaVnUMDsXRvwVXVTCeumis5Sps2iS8LZn43fu4bdll3LX4MhzGYtrKxdWYgKdpB+Z92/FY88iO+4bpJ40hK/xD3C3xWNUqnIY8+tQ78FlSsOsicBiS8TTuxGYJw9OYTF9lEn5DIj216+mo3UJzRQzNB6LwNmdiM0ZhrfsOp3ErfdXf0XNgEz4JAhgT6SwPx6GLw1oRib91B32a77DVReM3FuGoS8ZpCMGhCVNcoQ5NJNbKLbi1abjqcvBod+BviIOWWOzaaHoq43FqU3HpY/E2ZtJZFYu9ags+zRacEjgwpeIyxdBT+g0BXTA+nQqnNuH/D2L95jS8uhglQuHTxeCWSIU2Fp8hfiCyYYrHp4/Cr1fhVcfi08Tj1Sbi1cbj1sQSsBZz942X8MiyufjEYiwPxWuMwaWLoq82Crp2sTP+c6addDwZUe/Qa4rHZk6iVxNLny6OgC6SgEEiNCq8ErXRhuIzRWOvCcUjgQSD/B2JUxuJxxCFR441ReIzhuEzhuI1hOHVyTYcj04c8nK9WHxqFQFTHH5tOH4JVmgT8Kmj8WsjCOhUoIvBp4n8/m/ZH4NfolAStTGo8CnGpNxvNH7RZJpoPLUqEM2mV+FXR+JVR+HTqAiowwnUheGrCcevjsKvk6hVPK2WncyePv4XyOLITh1WYv3mVMVB4RFypWUKJAw2DHyaOIai9UAMht1BaHI34NIk4jOn4qyNoL9iK37pl3XxtFVFU1O4mU5DHM0HgnCZE+gU6TfFgC7iEPiEoKHQh+M3RB6CQ47ThX9PXBToRoJDvz+glYYwBJooGCn0kdiNCbTW5zNzxnj8BH5V/HJiRZKHwK5Nol+dQKA+g54qFYHOfFzaaBzVwbjUKnzijDBLP5pAZ+U23IYofJZo3JoQPJrgQ0gVohUpE0kbgoBI4xAMPUb+DmjFXhCpHAn+HcQOTfc7vH8fBmKj8WkPRl91hNKHSVhNQlxdVZHYvs+sUDIZ6qQ/TcBtSlJisR5zFLaarYrr0qsNGpZYCfYPh+Gke7jjArpwGDH+HcR68PPr4TAQG4VPOwT6gVSatrKteCypOIxJ9EsqSYMYOan4W3PpVsfhsqRh00TScWALHgnAGyKw12wdllg04fwiCKkSWx4JhukKDlHDopZHqobluCGqOMCv++8fEitG04/72EMI1EYpWRY+XSQ+bcT3CMetDsEpBlBXjhKE7jWk0qHLYF9BKGEbXiN0/askb3+f2r0yRJEgfAYdlduxiYGkV4E5Fq82Ar8+CgwxeMQIkXwlMWzEmNFEEFC24fjqwpT3YrgExEhRjJcIAoZoHFXB+DSiviPwizqXvtYQAaYIMIbh14fg0Qbj1mzHK1kfuggCxhgwxiiN1a+LwiOZGGI8aSMPhUYMpxH2s0OIHZkJ9POP+klixXCSNBfZ+gxxiHU8PLFRCLEBbQRow0ATir85FrsmBJsxjl5jKsYDsTz1u5VMO/NkLl84jWU3LuS8aWOZO/U0Xn5sJfpSFe6WbFqqw5WMBMveLfTIEKoqgq7yMGw10djUCdjr4nDVxeCojsReEYq3ToWjNhy/PgG3OhFXrQyHsumpUdFbF41dF4fLEI9NE4VDhhzGZJr3bcZaHYyvPoo+bRCexijclljs+njsulQ6K+PpqlHRvHc7LrH0dVH4GlTDdgPSuP5PEeuqC8auHjDvnY05bPvqRc4952S2bP6UxoZyHH16tLW5fPv1n5g1/jiCv3oJR1cxLdWJuJr24GjaTas+m+byBFyWXbiN+XRUiMElpEn23w68hhSc6jgly7Ffk0hvbTIByy56q9OxmvLxte7FWpNCV00C7vZCWmvTsDcX0dOYR6cxjf6GNLrNCVh1kbTWqejQp2KzFNAl3yWRGrWMRzNp27cVW+22I8SKxNqrtynZfda6aHoN6Xz25kNcPH8mRn05bS21VJen01CsSdoAABcoSURBVNlahlmbS0HSt5jKE+nQZWJrLCI/aTPrFi/ktwvPYtH5Z/L0nYspz43G3lRKlzqLP/7uBoL+8iRuUy5OUxaupjw2/+UJPvr9nTjqS9DsiuXZu28mIegz7rn5Ql763U10GbMJeBp5/9Xfsfiq6dx45VTe/sNttJp20KJJoK9xJwd2RXDvssv57QVncdNVZ/PYnddQlrEZb+duJTNzWIPs/5rEejThONQqXKY0/G1FhP39daadPoZXnnuE6n3Z9DZX0NdSSoshj15TLp7OIvqbCqjcHcWlcyez+LeXE7TpYzb97X2uOH82K667iKbaXUpo7crzZvDSQ0uVBHGrNgdXZxlP3r+E5YsW4OpUk5cYzNSxx3P53Mncs+JqIr57m772Yp64fzU3Xn4un7z3PF99/CI3XT2Nu1ZfSltzIdrqDK66cBo3Xn4R8aHf8fVf3+S3V8xj6eUz6KxJxtWQekRiRWLddeHY61T065LpN+XSZSjgrRcfYcqJxzFv6iRWLprHG0+vIT/hK7ol26+rgDbjDt555T4Wzp1KY2MlOm0JLU3VJMdtY+aZJ5Gs2kh3YyVXnz+T1566DXvDPjr0BTh7qnjm0dWsWvIb3N1mcpMjGHfsKJ56YDW2zmrs1nLSEz9j+vjjSInYSFd9BS2GPWTEfcP9t12NRZ/Ht1+/yYnHHMX+olw0lWU0tWgxavfzm/Mmkbz1HRzmlP97xCoWsVjFP4KMS/vqtmM3RdNjiKG/IYn+liz2797CNx8/xfMPL2fldZeyYMZElixZyP6yFDo7K1i27ALuf+AGvO2J2CxRdJmT0FelMWPyqbz+ynO0NWu5eNZ03n32DjymLLrU4fR0ZfD4A2tYfsPFuGxl7Mz9nFNOGE1ecjC25nh8vYls+vgFJh93DPXlWbTVxmK3xCtpoq76fLztNfz+oduZPeU0/vbV23zw0R/47KPX2f7tX7jh0nN56b+W4GnYqSTDS/hSGfYoKliGXyM3nuyVW/E1p9OozeD8+Wf9fHN3hGf+YqtYXH1D0Va2HpdJhb8ri5bqUHydebSIr9W2E1e3BN53099STnF2NDPOmsxta27G3tvM4ut/w4P3rcXfmYWnMwd9eQTVJQnMnzGRN156ArN6HwtmnM2fnr4Dl2Un/TIO7i/lD08/wrLrLsNrryEr7UtOO2EspTkJ9FmS8fZlEPzFy0wdfRTqohQ6tDsGzrOk02fMx9FUzTMPrmPS+NHcuPgyVq29jsW/XcCSq8/jvhVXEvrXl3A3/XJi/aZobLo42s15zJ45eYT0/PzDDgOxYco4T8Z6g/BaIrEbwumoDaXTlERK1LscKPqG1noV7fVJ1KtT6TQX4e618OC6O5g26QwaNWqWLrqKtbcswdZRSJshkxb9TtT7M5k27mg+e+8l2s0HuGzuObz06DpsTXvpMuXQ3VLG3atWcceKxditVRTmbmPCCSdTmZ+FzZyJrzuHjJBPmD5+NFX7MmjW5dIi5DbuYl/udpz99Tz10D1cOH82DY0atMYyrK0V2K0aek0l+NpK6amTAIeMrX++xMoYuU8TQ0fzbuaeO/XnMzbCMw8DsSH4dAfDVR+O3RRBjzEWU2Ukl809jsfuu4qSnRvobtyF21qNp1dP5e5UFs46h5XXXUFvm5lP/vQiZ48bg0m3E5fdhKvHyLYv3+HciWMoTA2it+EAi6+cz4rrFtLfXo3HqSc7JZip48azbvl1OHur2Z23ndNPGM2+9ETc9bl4m1Mw7FFxzpkT+erzP+HsN+F2GNjytz8yb/rJaCtzSYj8jlPHnECMajPWLj1ep5HirHD++OgqSlM34G/K/eXEqkOV6E6TPpOLLpg2Qnp+/mG/nFh9ML4hcDdG0mcMo0sfTX9jDqkxn3HhrClcf+lMXnr8Hj5/+/e88tR9XH3BOaxYNIfynRHY28ow16az5oYLuOjimXz47ku8/9qLXDl3Kk/ecT3tugI6DMWs//gNzjr9VJ54eC1/eu1hnnv0Nq6+6EJuuX4h3e0l5GZsYuLoo8iL2TYQP9aH42gp4L23nuXCC2fw+qtP8urvH2bh/Ik89uBKmrUFmKp38dDtN3P5+dN58w+P8uWHL3DLVeeydtECyrO34DCk/GJifZowvPWpNGjSmTNr4s9nbIRn/mJiPfpgvN/DrwtWgsv9xnAcllhlyqVV5te059NSl45q4zs8dfeN3L74fH7/8HJivnuPLm08vtZM+kyx2BvjsFpU/P3LV7h16TzuWbGA9NC36dUNRII6aqPptWSw5avnufvWi3nhySVUV0SRl/Q3vvnoKdxdxVTv3cpnr91LXcF3uC3x2GpDCZhScVtLiA//iGcfXspj9/0WVfCbdJp20FoVQ68xDXvrLpK3vMODt1zMIysXEPnX5+nRpeE0pmGrjcWvjVIwYDypCEjM9V9wKQYkccCYOBC2O2fCCOn5+Yf9cmIN/0OsZAwEtME4DBG4LXFKIlefIQGnTI5qzcXRmImnIx9X1y6czdk4mrNwmBJw1ydjN8bRp4/BVZ9EX0sBLmsRzs58JQDfp1VhN0TRIzPrjHG42nPwdu/G1rkLW7N4kHbg6yulRR1LT0MSvs4C7KY4HLpwJQjv0UTRq4/H2ZKHp7MYd0sBzqYsXM07cFsSselV2HTReCxZBFr34hNjyZShzIvtrVQpLs3DHQT4+ZSN7MzDQGwoXn2okrEQ0IUS0Mp0yTD8pij8xnic8kD1KfQbVDgbwrGZQ+k3heASdW3YjkMfjdeShMeUilOXglO3A1dzCh3qcLq1YfhkyFIfTb8mCH9rPP62ZLwtybiakunURtCtiaCrLhyrRq4Xjbc5CWttCB5LNIEmmdMqmR6R+Bti8NfLPN1k/JY0/PKdxijc2mA8hmD8xgi8MsG7Jh6bTIauiaW/Jha/5CupYw8Nsv/C6M7I6Pn5R/1yYvVheAVKBESiIGH4NSFK6C2gi1b6Jrc6nn5NGE5zKE7dNuyaLQQawnFJ3yyRFINkaMTh1SXi16fiNITjNoTj1IXi1G7HpQvBZY7ErQ/DqQ2hr3YbfbVBuAyRyqRpjzkap8xTNajorgjGY47EZYjCUSdhwDAljSdgkca3HZdMZlZH49HKpOVQfMYgvCaZX7sNlzYcZ60KW108Xl0yjtpovJoYfOrvreHDmEHx8ykb2ZmHgVhp6QOQCI+E1KjbPgB1BAHJKRJnfUUY/ZWhyoMKGBMIGBKUhDmJGHm0MgNcZsTLmFgmTYfgUW8nYJRZ79H0VWzGUROCvTpEmeAcaE4iYJQJ1iq8NdG4KoPw1AThq4tA8rUkNOfXxRIwZRKQaZ/aOPpqNiD2QKA5hUB9qjJb31YrGmMzdv0m+rWbkAbit+bht6TjNyThUcfgqpL8KEmeH5IW858usT7dQBxWSQgbJFYdArUhUBcK6gHvjF8Th1cdj7cuDp+kzWgSCeiT8WjDcIqalUxEUxBu42Z8uiA8dVuUuUPemhBQRyklAjySPKaJxFUXhkcdirsmhIA8dIm5qkMICLE1Klx1QQPx2GoVjrpoxW/tN4eBRUolyCz3SHx6KWUQjVO3HYdWvj8ajyGOnspIpSE4ayO/T1aLxFsnCW4DxtOPt/9KoF26A7thIOdp1oz/xWS2kcZjkfoUI4BP6k9IbFMXg18XpyCgjcHbEIW3XkVb9SYay9fjaIikp3aL8sCddcH4asMJVEvGYLwyoz5gjsWlCVHUf8Ciwq8XaRfniMRlI5RtwBIF5ih85igCTQkE2qQoSDh+0QANsQOQPtgkmYdyfqQi4QNJeQnDJ+0NzRIRokcaZNdE4TNE4jAk0GbJ/9/NUjzcxEpCmahs6dukaIlbE4dDrFhNLPaGLJziTOgqw2oooL8hD0/bHmyGdGxKpZY4pS911ATj0YSBqEzphyXzQSRQE45bKVyiUsor2DXSOMQyTyEr9HVyVO/gaYjDbQzDpglW4DSE4jYN1ouQNFXpi+V8IfnQjMzhkgyOECuJaN/7lN26SGUWgUOXqATMfc3FtFSl885z93D5rInMn3wy99y6iO/++ia25gPYmwppk0o0lliol7zlcLrLt+KsC8drTlCSuH2WJNzGeOW9Ux9Lr5QZMmbQqdnBmmum88CKS+isC6XfEIq/JQ5/WwI2YxhOY7hiNUvFF6+8b4imv3brEWKlFY9EDSvHiAWqH0j4durjcFp2YK/PZduXr3HZ7DO4c8lveP8PD/Puy49w3x03MP+c07lv9RJqS+JwduTSb4ylV5lKEq8UE/E0ZNFdJ2PlJOzGRGXrNCUpTgAp0tVfX4i1oZQr501n3U3X4m7Lo9cYS58pHkdDMvb6JFyNqfjrk/HImFcMN0u0Is1HJPZfIVYfQkC/HbfUijIl4m7Kpv5ADGePPYZXHluLo0eNv7+Onpa9BPwNpMRsYurYo3j18VvpNaXSWheJr3Mn7dpE0kLfZm/638G6V8mVaq2SMWwSgbZcHJY0SjK3Up4XSU9DBdcuPJcli66hx5hFv1jM3buVbVHKJ5SlfY6/MRt/Ww49NeE4RBWLmv83qOKuni5830+dlHmtP8bIBjT/+KhfPNwZqcR6a7cr820dmhjaqmNwtO1h3bIFXLZgCh7rfjr0yUrZHrtR5u2k4arPIif6fWqKN2Nt3IFFk8jDt13GgmkTuGfV9Sy59gIunn868eF/oc2cha21gITg97l05incdMV8li06nyfuv5V555zNbctuoUNXRG/Tft797wdYMG08t1xzITdedhHXXXgOGz76b2ymHHoqZUyuOkLsv6KK/eoIfHVROLWJ9BuyaKhOZ8akUTx832J8tnK6jNG4G6OxGbbjEYPIEINVnAUSerMd4MNX7+PMU8eSErkBnM00Gffx6AOruHLhNOrK09BUpDJ/6hgev2MJbboCWrR7+PPrz3D6SWN46I512JtqUX37FyaccBxfvPcqnRYtbUYNn7zzCnMmjaUyLwhHUyZ9MrQ5IrEj72NlkpKnNhKPPhV/Swmm8gxOOnoU77z2MF5HOT0mFTbDFpzab+mrWa8MdwLNGbRXJdGt2clNvzmf22+5it62Gix1uXQ17GF31nbOmXIyIZs+IycxmMljj6c4M5Jeyx56LCXoy3NYOOtM1i65lt5WHc88tI4rL5hNzf5izBpJqttHXWWxUjdi+zevYm/No88gQ7FD1fHhtor/Y1Sxry4YV3WQMsRxmvNpVeczY+KxvPDUnXi792MzJ9MvniUZupiCsesjaCkPw91QTIumiOsvnMvbzz2sFASzGjOx1WdSXRjCnOnj+frjd4gKWs+sSadi1uQplnRTTSY9bVVcc8EM1i5eRH+HjjtvvYHRR4/ijAkncdopY5hw2lguveAcJp18LK8+tUKprNYjM+qOEPsvSKx4dwzBOHQqujUpOFpKufna+SxffCX9zftxmvLp2x9PoDaTXoMKR0MKptJImmpyqa8qZNF5s3j+zhVKudhebQwecxx1uzYxfep41n/+PmGbv2TmmaeiqYhHrOJuqcBWncV1F81g1fVX0t+lZsUtV3LxRdNRqTYTGraJ6OggIrd+QVbcespzNuJvTadPK8VU/gMk1u33097di8/r5fblS3jmrtUETMlK1r9HXG/iE9WLt0gmXg2ZozOc//Qn9rllKkZjMo46ycpPwm3KIX3Lu8w46ViCPnsLX5cRfWkmbdo9mKrz6Wmu4qbL5/Lc726jTV+ipIY+uPZ6bN1GKnen0GkupzAjkgmnHkdc9CbycxI48fhj2F9WQG1VIZ2tOnSaMqZPncKd65Zj723gzRcfZv608dTrDqCr3ou+pgRHl4F2TQFuSyFd+yLwtxUM7xf+ifsa1oc8zLFD5+50d3cpEykHqsVIxZgf4x9bvCP5dNS/i1i/VFPViJ9WJlJLmC6bfnMej629jvlTTuOLN5+jfM8O9uYlkhy7kVuuu4SLzj2D9Phv8Trr+fTd57lg9ni++/odjJoiDpSkccfKRfz2spk06PfQZNjL1RfPZsmii6jZn0dBejQvPfWgYjzdvXIJdquWuNAvmDllDC88eS8WYym1VXl8/P6z3HT5bMozNuBt2UlvecgRYhVpHqZ1DtuKddG4q8WFJ/NsYuksDcXfkIWhIok/PL6MuZNP5rTjjmHySccy+bTjuGnRbPYWRuLorcakzqK9oZinH7mFmVOP5+yJR7Ng9olcfuHZZMd/hsdajsdaQWLIX7jonFOZO/l4Zk04lifuupmLpk/kkduW0mbMw9qYz/ovnmfa5NFMnXQMU884mtnTjucvb92LsyUbV30yLtNPxF5Hep8/cdx/rsTWyVR+CeGJSpcAdgJuCafJHJzGXLRl0RSmbqQweSMVhZtp0iTS15xLuzGN+ppYpXahtbmAir3hJGx/m/zkL2kySAn5bOzmVKUYtsdajHrXFgqiP6E48SusmmyMxTHoC6OUlNMuYwId+gSa9YlkxH1AetyHlOZ/S39TFjZLEta6MFwSDvwJcn7J/v9YYgNakYQ4hVi3lFevCcOlUeE1JdNZHoLTmICveQfdGhm7xtJRF0ZLZRDupiQclnhMe7/FKoVOGpLxtWdh1ajoN8Rgk1oT5jh6akKx1oTjk1hrYyqe+hSa90npgzT66xJwGaNxGCKx1oXSp49Sqr54JNfKmIilZDM2XdQPBbJ/CYE/de6/nVipDtZu7VWqcq5bvpin7lqtBKv9einJHkPAEEfAEI9fimYOg4F4qMRE/wlEWutUBCQALoaYOhK/UkZeyrpH4zFKSZ0oZQK0lJj3G2Pwm2IHSrdLrSlTHIH6xIGMCUmnUeKpsbjUoUo1cJ8xWqnaItEjifY4pXS9FB8zRGOrk5CexFkHIkMSIZJIjluO1cbg08fhN8XjlmCDkqQ2zL1oJdj+8yH3KlVwWi2FzJoxgS5rJ/6DDKbDbDzJYkDt1h6l0OK65Tfx5F1r8OqTcamjcdSqcKujlfeuOhVujQS8D4avTsVIIPN5XHUhQxCqpKNISsqP4akOYSSQQLurLnREcNcE4a7edjBqgnHXhB2C4e7HrZZn8fMhjcdhSKPNsofZ0yfQae34tYkN0NY1SOxinrp7DR5zurLYg1Mbj0svdfETcGrjcMlk6CFwa6QoyAigk5ylgdr5P9569OEMhSwWMSKoQ/Fow0cEnzoUn9Sm+hG8daF41JKNcTCGvR+lJJKURfp5+LcTK7UUf0zs0/eswS2l403J2A2JOIzJSg0JSesYDlIYaySwGaLpN0UeBJtJks7ELzwEukhcI4IKib+OBB5lpQ9Z7eNHkD5bG3MIRnI//+ox/zvEdnYrqlhKxz9z763Y67PoM6bQo09StvK+VwqEmA+FGB8jQY8xQVk/R9bQGYTs6xdX4hB0mxIZGZLoNqaNCL36ZHp1SQehR5dE9zAY7n5shkR+Cf7txHq8PtqlxKrXyx2rl/HQuuU0SoVu3Q6aNKkDW3mvTaFRm3wo1Ik0jgSyloA+/VDodtA4FLIYxIiQQaMue2TQZNJ4CDKUMvNSav5gjPCefuK+m9RJDIV5TzDGEhVlexKYOe10Wtqaf90+dnDBACloLCszTZgwgfPnzOT8WdMPglT9XjBz2hGM6BnIszoYstSZrK8umD59OpWVlT/U7x+Ji/BfPWaUVKuWlZmk5LisUarRaDBqKjGqKw6CWVtFvb7mCEbwDEyaSoZCFh6U5VZkKRVZvXkwY+JfJWykx48aXNNlcHmPgTrzstSH82B4nYeu2Dx0BecjfyvP6JBn53N+v8bOwALA8qzluYuW/LVeo0QVy5dILXmRXGXFYVkDJuA7gsP4DGTVSKnbL4slyeIMIkAitb/Wa5R8mXzJIMGygMBwqygf2XfoytLDPROJlsmS3kMhUirPVpYvG1zjTp75r/UaNdyFZb2BIzi8z2C45/xr7jtC7L+pEf+aJA537f8Hmgsub4/ehD8AAAAASUVORK5CYII=;" parent="1" vertex="1">
          <mxGeometry x="110" y="40" width="94.94" height="70" as="geometry" />
        </mxCell>
        <mxCell id="1UfFJ1RZVOHwHZjwDA17-4" value="&lt;b&gt;Android apk&lt;br&gt;&lt;br&gt;&amp;nbsp;iOS&amp;nbsp; app&lt;/b&gt;" style="ellipse;shape=cloud;whiteSpace=wrap;html=1;fillColor=#f5f5f5;strokeColor=#666666;fontColor=#333333;" parent="1" vertex="1">
          <mxGeometry x="120" y="130" width="120" height="80" as="geometry" />
        </mxCell>
        <mxCell id="1UfFJ1RZVOHwHZjwDA17-5" value="" style="shape=image;verticalLabelPosition=bottom;labelBackgroundColor=#ffffff;verticalAlign=top;aspect=fixed;imageAspect=0;image=data:image/png,iVBORw0KGgoAAAANSUhEUgAAAaAAAAHfCAYAAAAWQgxNAAAgAElEQVR4Aey9h1McybL/u//Ti/fe/d171sh7ac1Zv2etdrXy3lvkvQFJeCtAQkIgJLz33gjhvbcCAQJp95z7Ir4vvtnT0IwGCcEAM0MR0dFDm+rq6qr8VGZlZX2AefhXVNmKtMJaeIZljm7XA5Ox6ew9takyUHVA1YEZrQM7Lj0YlTuUQfE5laBM+vd//nfeSeMPHPmN+VH5gU95REuFWrLhBv7rXxfVpspA1QFVB2yyDnz061WRVUdvPRHZlVPa6NBgcigANXf2415sAfZfDwc/pIKNgq2qA6oOOEIdoHWGnemyug6H0hnsHkDUcqjhrNpya9LA+frAVaw/dR1HPZxlc/J2gV+M67jtcY47Mio91abKQNUBVQemVQcSSjzGyRbKmotBN0flz86rN/D9kWtYsP7SpGQYO9fsZEeml9m9dmSXAKKmczskDZ/tdH/rB1vy52VsuXQdOmAUVBRQVadC1QFbrgMpzzRYuYTewqHbzvhiz5W3yjjCiB1wmurs8c9uADT86m+EJZXgxyN+E34Q9iCo2bB38TBDaTC23NBU3hQIVB2YXB2gBkUgsTO9YsvlCeUfrUB0pup8Pmg3LLJ5APUNjoi2M5EDAbUcqrAhKW7TUpNVY5hcY1DlpMpJ1YG5rQPsXHP44G0wolZU29xj8yCyWQARPKS5JWeCf/xyCX+euw63R7cUdJR9XtUBVQfmbR0ITHCVDjg74pacLThWZMsgsjkAETykt6XCpD302r1boJ1U9cLmthemyl+Vv6oDtlUH2CHnEIQl2UkvOlv0oLMZAHESlv+TXIsaD73WlLZjW5VdCR/1PVQdsM06wOGIiUDEzj07+bbyZxMAogfH1/u83iA3XRPpsqgqum1WdPVd1HdRdcB26wC9fum4YK4RcTyd8yVt4W9OAUQS00ZpXkA0tSnw2G7FVkJHfRtVB+ynDhBEHDM3l7P0KJ5rs9ycAYiTqMwdDOhGfdbfRWk8alBZ1QFVB1QdsHIdYKd+7Y43nRU4p3Ku/mYdQBzrseRkQFUxukDN3VE9S/vpWapvpb6VvdUBOnBxYj49iY0a0XqnwDkZG5pVADGCgflYD4mszG2qIdtbQ1b5VXXWnusAO/s/Hb82DkIcG5rtiAqzBiCGHDefTEq7JGf52vOHVHlXgkjVAVUH7LUOcMjDqAnx92ya5GYFQBd848e9JNU/hsux14+m8q0EjqoDqg44Sh3gZFbziaxcs4jhz2b6b0YBxPEermthJCxNbipsjmq8jtJ41XuouuwIdYAmOU57McpqesnNNIRmDECEDylqfCFlclON1REaq3oHVY8dtQ7sc3YeJ7M5Zj+TwU1nBECkpnnUagYMddSPpt5LCSRVB1QdcJQ6wOERo+LAZW9mKp6c1QFEWpp7ujFyq6N8HPUeStCoOqDqgKPXAS7/YHTVpgPZTEDIqgCi5mO+SByDhzr6x1LvpwSSqgOqDjhaHfCKvD1uldaZgJDVAGRudiM9VQBR1SgdrVGq91F1ej7VATqMGZcKJ4SsOSZkFQBZcjhQ8FENdT41VPWuqr47ah0whxCtXNaCkFUAZB5QVJndVGN01Mao3kvV7flYBzhXyDgmZC0X7WkDyHySqXI4UA10PjZQ9c6q3jt6HeCYkDmEaP2azt+0AMSI1kZ3PeVqrRqhozdC9X6qjs/nOkDvOKPMZ2Dp6fxNGUAMLGpcToGTTOfzh1HvrgSTqgOqDsyHOmA+T4iKyFT/pgQgql3GuT4Mr8Mw3/Oh8NU7KiGj6oCqA/O9DhhXWqUiQoVkKn9TApBxPR/aBB9mqHV85nuFVO+vhLKqA/OnDlDhMC5uR4VkKuNB7w0g83Ef5fE2fyqdEjDqW6s6oOqAXgfMPeOmMh70XgCi77dx3IdqmJ4ZtVcVU9UBVQdUHZhfdcB8PaH3XdDuvQBknO+jxn3mV0VTgkV9b1UHVB2wVAfWn7o+6hnHSarvY4qbNIDSCmtHH0I3PLWmj6qMliqjOqbqhaoD86sOcC0hY7gez7DMSfsjTApAJJoxyOhk5vswBz0dA6gobEZJZr22ZdWjRG2qDFQdUHXA1upAZj2eZjWguqQNfd2Damih8v0gajTFcZhmsqF6JgUgEk2ffMSlW0m8d/Vy/vc//x/iHxTA/VQkfC/F4s6NBNy5rjZVBqoOqDpgg3XgRgJ8LsbC62w0MqLL3inf3iX/5uP5L/ZcGeUEh2sm8/dOAJk7HkzW6+3vv/6DB26pCHJORFlhPZobOtFY2642VQaqDqg6YHN1gPKpKLMafpdiERWUpwD0nhoQgUuvOF1R4Z7DNu/6eyeAjI4HXx+4OukPQwCFuqchzDsDXR3P8fffr/Hq1YjaVBmoOqDqgM3Vgb///RpN9R24ezMJ0cEKQFPV4Dg8o0OIAUvf9fdWAFH70RPj/n0cD3QAPfRKR0drj1S4ly9fQm2qDFQdUHXA1urAq9cjaKhpR7CLAtBU4cP7ODxjDFj6Li3orQC6Hpg8CiC62r1PxhSAlJCxNSGj8qPq5ER1QAHo/ZwO3saCfc7Oo9x4lxY0IYD6BkfGTTp9H+2HmVMAUo19osaujqu6YWt1QAHIegB6Hy1oQgAZtZ/3GfvRyagApISMrQkZlR9VJyeqAwpA1gMQGWDUgjadvTfhUJBFAJlrP1NZXlsBSDX2iRq7Oq7qhq3VAQUg6wLIXAuqbe6xCCGLADLO+6Fvt67VvM9eAUgJGVsTMio/qk5OVAcUgKwLIHMt6OitJ5MHkHGtH66A9z7g0a9VAFKNfaLGro6rumFrdUAByPoA4jI9uhc1oyMMv/r7DQi9oQGV1XWM3kR3uqkuNKcApISMrQkZlR9VJyeqAwpA1gcQlRH6D+gQsrRy6hsAuuAbP3rDdJZbUABSjX2ixq6Oq7pha3VAAWhmAGRcvtuSM8I4ADHo6JINYzNZ/WJcp2R+I/lmEkDDw8MY4TaiNlUGqg44fB0YHgbb/ExCSwFoZgBk7oxgHqR0HICMSy4w6Kg+njOV/UwASAPPSwwNvcTAwCBevBhAv9pUGag64LB14MXAAAYGB/Hy5ZB0OmcKRApAMwMgsuOn49dGrWrmSzWMAxA9FXR73aHbzjYFoFcjwxgaGkJNYztS8ysQnliAe1E5CI7KUpsqA1UHHLIOZONedA4ikouQWVSFxtZOvBx6KZYPa2tDCkAzByA6sulcoYOb8W8cgIzmN0Y2nYrmo99jTQ2IGk97Zy+epBTjwPWH+PaQP1bt8MKSzR5YvNldbaoMVB1wyDrggaWbPbB6pxd+OOwPJ9cnSMmrQHfPc6ub4xSAZg5AdGQzxoczmuFGAVRU2TpKqema3wghawGI8KlpbMNV/3gs3+KKj/70wuJdD7D8YBRWHonFyiNxalNloOqAw9aBWCw78AQLd9zDP/5wx1f7fOAbnoGmtm4ZFxq2UoBjBaCZAxB5YFy22+gNNwog4+TT6Xi/WVMDotmttaMHt0NSsGKrOxZsD8Kqo7FY65SEdU7JWCd7/labKgNVBxy5Dqw9kYSVh6PwyRZ/fLXPFwERWeh53o/XIyNW0YYUgGYWQMYVU42L1Y0CiC5yup1usovO6bCxtJ+uBkQvNw4+JmWX44cjAfh4ix9WH4szwUcJG0cWNurdVP22XAeSseJwJBZs8cUfJ4ORVVyN4eGXVvGQUwCaWQAxmLXOFw716H8CILpfc6aqfgFd5yxB5X2OTRdAXLyuvasXriGpWL7NG0v2hmPdSaX1WG6YSmCpcpkPdSAZa50SxQT/6S4f+IVniCcs3dCn65SgADSzACI7Fqy/NMoYBjzgnwDIOP4z1dhv5nCaLoD+ev0K9c2dOOkWiSVbvbHicLQCkDI1KnPrPK8Dn55MxvL9EVi5wweX/OLQSzPcq+mb4RSAZh5Af567Pgog3R1bAGQc/5mu+7UOImsAiC7Xh1wisGiLD1YdiQUrn+rpzoeernpHVc8t14FPT6Zg+YHHWLHdG2e9orVxIAWgaVusdLk9k3sO7ehWth2XHoxpQMb5P1MNPmqecQUgyw1ICRZVLqoOTL0OGAF0TgHILsCjs8E4DqTPBxINiMum6mR635VP9cTN9wpAU29kSkCpslN1wHIdUACaeVOZuSy31v+cD6RzhvvRMSDjBNSEEg+rUFUByHIDUoJl9stFc9uf/eeqb239MlcAsl8AEWScY6pDqLmzHx9w9VP9gDUmoOq0VAB6e+PjvAZuUxFSvG/NicQp3z+VZ07lnjWmfE7lXt6jlVGiuN7r78w0J5sewcNyWnNc26Za3pN9ni1cp5eTo76rApB9A8gYFy6ntBEfGNf/+f7INatoP4SQAtDbBeVnJ5Px6cm3X2NJoPGeHy6m448bWfj6XCreRyBbSm+mjv3zTDJ+uZqJ365n4ovTyVOCJd/1s1PJ+NQpCV+eScavVzPwy9UMfC7pJZognDghkHjfvy6mY9PNHGx0ycG359OmlI+ZKiNrp8u6wHf8wzkL319Mn1L9snaerJ2eApB9A2ifs/OownMvtgAfMCyCrgHtvHpDAWiG3VzZI//qbAqOBZRgv3chvj6birUnJhaixgbMnvw351Ph/LgS6eXd2O9TgOVH4icUwMZ7Z+s3e97cKPAfZDThcV6rCMSVRxMmn0/RchKx16sAV8PK8adLNna45yEsqxn30xvx27VM0WpYjv88nWIxXZbVr1czcSepHs+aXiCrshen75YKzCZb3rNVZtZ6zrLD8TgZVILMim5cC6+QesZysFb6tpCOApB9A8gYEeF6YDI+MLpg86RuQpvuXmlAlrUbCuKfr2QgpbQLj7Ja8PPVTKw4Gg8eX308ESuPJWDF0QTZE1bGRs/z311Iw73URnT0vcKJwBJ8sj8GK44kYNWxhHG9ewpZSeuIlp7xPNPVn6enrz9bfyYFF69hXoz30qy16liiHDc/x7R0AO1wz0d2RQ+eNvRjk0s2Fu6Pk3v4HPNn6kDgvXzWyqPaNYRPfFEHDvsVyZZX04vMih78fj0b35xPg39iHU7ffSqaEPOkp8s98+YU+BQlDf3IKO+G86NK7HDLk2tZLrIdTdBMdKbyWG4qK+ZR3sMpSfsmpjJgmtx4XsrwWAJ4j7F8+Gye4zF+F/1643EdCvr7avdr+dfT1a/hs5iGMW/6e/Icv5H+nRbuj8H18Ap09r9CYFKDdFb083p6+r32ulcAsm8AeUXeHlV46Ir9ASmka0DWCMGjg0sB6C0AupqB7MoeROW14ddrmfjiVDJ+v54l5hP22jfezJHe++enxpuuKHAIoKDkBjR1D+NsSCl+uKSZmP51KR2fnSQANOFI8xVNYJtv5Uh6P15Ol94/BdGXZ1Pw23WaadLkGK/9/kKaPJNmPabBa5gnmq8ITN2MxvuZB2olG29mg8/VhSv3OoC2u+Uh7VkXiuqe46BvoWgtfzpni8anmw1pSuT7/vNMiozz8Bk/Xc7AT5fTxcxGkxuhwXwyjazKHqQ868I211z5n5rNo+wWueYHvgvf36TBMo/+CfWoaBnAg/QmbLmVA17z05UM/HiJz83A+huZoiXwuSyPLbdzNVPdhTR5J5Yny5dmP97D/G9wycY359LAb6OVby5+vJxh0qw0+NC8yufoZf/t+dRRjY33sIz5LZkG35XvLOVLUyO/zbVMKWOWNa/d4Jwt+afZlVof7+WcOL38WIf+dMmRc9cfVaC5Zxh+CXUCILnfJVuutVfoGPOtAGTfAOIqCzpvGP7tg1Me0aMHrDUHSI0BWYYPGxJ7pD9fzRAzyePcVqy/nold7nlIftqJsKwWxBV1IK+6F0klHbgcWjYqrHivDqDApHrp5WZV9CCxpBMFtb14nNOC/T6F+PxUkgivKw/LkVLaKWnlVvUiuqANJ4Of4quzqdjpkY+4onZcflgmwp9mrIsPyhCW2Yy9Xvki8G89qUJySaeA8kluqwh5mnj4DJrCMsu7wedH5LTgsH/RKPzMAdTSO4y0sm7Zcip7cSexHn84Z4vAvvm4SgBCyPHdfr+RBd/4OvjE1Qr0+P7UgA75FglwqMkkl3bh/P1niM5vw+DIf9DaO4L0sm5cCi0T4c10CA5qRqWNLzD06j9o6HopprtLD8rELBhb0C7vT3jxOt5LjZSdgpyqXtxPbzJBLR0sB0IvOr9d3jm3uleA5h1bi/jidhTW9SGhpAMHfQqx7kSSlB3zF1PQJsDMruyVDsPmmznY7ZGPoJQGXHlYJloSIRic0oD7aU3Y5ponQHIKKkFEdguO+Bdju1su7iQ3SDmzTlD7C0xuECB9cy4VLo+rJN/JT7tEy7sWVgG36Bo0db+Ef2K9mDD9EmrlfQhD5s8ozO3xtwKQfQPocY77KG/WOwXiA0Ym1Yk0nSW4dc1H3ysNyHJjfxNAWTh+pwRdL16jtXcYkXmtCM9qQVnzCxTWPZfevj7OMwagBvQN/YXqtkGEpDUiKr8N9R2akGUv+URQidyfV9UrWsD9jCYxhREaB3wK4RT0VHrJAYl1opF8eSZFBH9xfZ/cS0AV1vYht+q5CGyO5ez1zMePl9OQ9LQTJfX98lyaAgtqnyOhuF3gQVOROYB6B18j5WkXfOJrkVjSgZr2IbhHV+O7i2l4mNGMsqYX2O2Zj9XHErH1di4SitoRV9gu2hdBS1Pj5dByHPQtEiFLUNAkdzuyGs3dIyBc3aKqJY0vTqXI86kJUUtKKO6Q+wkuApbpUCNqfT4iZXbrcTXO3iuVd48uaBfwETT1HUPwjqvF+utZeJTTgpev/4P8mj7cTW1EVkW3pFnTPijf6lFOKzr6R6QD8NOldCk/giyrohe+cbXyLampETTHAopBmCcWd4rmuN+7AIU1z8FyJ7Sopd5NaQQhd+xOsYCe9/Iegjm+uEOAGyAQzxJ49wy8lk4Gjx3yLcTtyCrRjhNKOhGe3Yzk0k55d3Nt2h7hwzwrADkOgD7b6Y4PjFGwFYAsQ8OajdUSgDiWQwCxR03T1s9XMhGUUo/K1gERvEsPa44GOoBogmvvewXPmBox37F3y94xtaGj/kW4k6yZntibJhBojqJWQUF380kVzoY8k15yQFKdaFg0gfnE1cl5wmnTrRwklXSKwPdJqBPN6cdLGTgVXIrGrpd41vhCNIqQ9CYZY6FQJ9gISnMAlTe/wCG/Ihk32uddgJyqHhH+W11zEZrRJKAkgFYdTRQTWLwBQEEEUP8YgDi4Tm2EmtL6a1mirfjE1+Gfp5NFg9K/E81wK48lCqRKG/vhGlktzgrU1KraBpFe3oWdbnkgsOgld+JOMQKS6uEbX4uY/HZ09r1GSFqTPIdaakvviGiLBDVBwXGtJ3mtYj5lXqgJZpT3gEAh1GkeJYBoAmRnor7zpZTlUf9ieETXIL/muVzL8Rpqb6nPugQwB3yKEFvYJvewThTV9YmGSTMl34nmyMLa52La5LOo9VY0D+DSw3IpgxVH4nElrFzqEsHNfDpHVIqWq8aAXr41YKmKBTc7YDNORhUAGaMgPMyYfhRspQG9HWITAaiz/7UMqhMG7K06R1SgpKFPevuWANTYPSy95AX7Y2S8gaY7AujU3VLpOXPwnWMaiw7EypjOtfByEXxu0dVi3qltH0Rgcj0oVGmCYw+bgDp196mYsna558MrtlZMXtQ6zoWUicmHJq+6jiExL1GzyCZQCtrAMR86ApgDiAKTUF1wIBabbmaLqTG2sB073fPFmYKa3l7PAjFNigZU3AGe5/gTNSCCVteAxgHoehbyqp8LNOiWver4mJfdGwCKGgMQYfk4twW/XMnA6mMJUkaECY9nlveguK4fzwf/HgUQTYzM4x7PfNAESYhRq3CNqhLngO/Op4EmvfRn3ThxpwQPMprFPMp7CBeWEbW0e2kNopUdDygWUx9NcX7xdVIG1I5ofmUngFoqtbKTQU9R3vRCOhMc71l6KE7GrWiqJfCoBTJvNM0J4I8nYPHBOAFle9+IdDAIf2pG7ICYO2nosLa3vdKAZgcUuhyfib1uceP+A1JIP0D7nLUeqExwlkFEAHFQm5pAZH6bmHmoqfQO/iVjBRyjIRCoqTxr6scR/yKYA4hmGoLAKagYiw/GymA4NRYKJwoj9rJbeoYlPQ6ccwyF5qii+j4xv3HQm8KNPXGOXRwPLJEee3X7oGg7uzzyRdvZ41kgWgTNTRwzuhpWgfLmARGAF+4/w1Gawp5Ui3a1wTlLPMt0ANFtmsCgMHSPqhGgMF91HS9xN7VBzE0UwO3PX8n9fKZXbA2qWwfF1PTH9SwEJzege+A1OJ7F92KZ0f1cNKDrWQJM5osaFJ0hOP5FgUoAUeDyuRTCfC5BeySgSMyWBOZv1CpOJOHMvVLUtg8h1WTa4xhLR9+IjPPQnEk4VbUOyNgXTYxH7xRJHjxjqkXroiMATWr0+CNI3aNrUN0+hMi8NoEEzav+CXWiifC706wXlc80B0HzHU2D1GBYF6jFElp8P44J5Vf3yjcijPgdOeZDDZRaGZ0quKeWdPROsYwpLTkUJ+7X1Ng4RsYxrrKmfjHL6eVib8Axz68CkP0DyLgswzgAWSsMDyGmADQxgOghxYFrDnbT44mmGQpmjxhNUBJA1FioXdC0xZ43GyLNKJxoyPEJguBoQDGWHIyVAXuOE3AsaJvJk4saEQffK1oHRKhz3IamKHq70eOKY0dNXcNyjqYajsVw7IGD3xyYp8NAedOAmHgo5GjaoQeWR0y1mHZo2iqp70NxXZ/04undpbsjU7BT+4opahfhXtrwQtKiKYrjI/Ro47ouh/2LZaypuWdE3ofjLLpn22/XsuQ9Cb/zIc+w16tQIBpT0C5CnL16js80db0UEN14ZJr3wggRJocNul5nV/XC+VEFvjiTLGVJjYxjWvTso8szx4oIsfrOIQH0s8Z+gTe9yPhtWE4ENSHHzsNBv0J5r5uPKwVA319Ix+OcVskbTaHU4ujMQfAV1/eLiZL3c2yGk0NZhnRsaOwaFo2VmiDL6mFms2haNJXyW9MbjiY6jsXVtg1p37FtUJwO2DGgVx7H4NLLunDAt1DeZenhOFx4UCZlSRBSK6V2RQ2MECOg+W3Mhbo9/a8AZP8AWrFlLBzPOABZS/tRAJq4kRMi1HLYG+dEy6/PpYhphR5aW13zxJX4s1NJ4v7sFPxU5glRsFNIUGjTPEfvqLP3nskYBIUihRoH6aklEDC8lp5l9HLjgD+FJSFHLYFp8Dxny1OLoWCkF9jxwGIx6VHoUjifCn4qwKKnGkHHdPksujJzfIJClIP/1E7YG9dcoMfm4tB1mvnhmNKZu6Vy7Y1HleIJxvxS+HNPwFLbY++ez+HGY/Ty4pgHx1yoiXCAnnCk6embsynyvG1ueaDnF+Gzwy13nIBd45QoY1lOgSXYdCtbrv/5svZe9PSjRsQ8fHE6RZ7jElEJmidZZhcePJMyZv72eBVoY2CXM6QDQNASnIQG72dn4YBv0WgZ8fvQbfpCSJmkR+ifvVsqWg2981j21HCo9bAcacLju9K7kPCgCz7rCEFByFJ7ZdnwOzJvW27niJcfn0sQUcPi96KHG+sJ3cTPhTzD1ts54spOUyb/Z12juz/hzDzY66YApAA0KTOd0oDe3sgpjHSBROFNwcXQMbpg4DEJQ2MhXI9+Tr+We8494cbfnMfDjelT6DCd0eN8BqMVmO7hc/WwQLxez4OeJ57X7tXyxnT5P49r92pp6cd5Tt8kPaZpej9LafF5ko7pOfxfX/dJf089T0yPm54+93w33s9rjcf5m+no7yb/m643XqtrBExD8iHPGEtPnsm8mdJnXoxpSh705xjmQfEaPU0+b1TwmzQQ5lv/LqNpmMqA/3OzlDf922r3mPJiKHM+Sy8PPlO+s+nd9HTtea8ApACkAGRo8FNtzBQuuoChkGBvWv+fafK3HLPwLEvneGzc/cZAnGZpS/r6edPEVf1+XVDqzzDPlzFvPDdRHvXrdIE5eq2ZCcj8OXo+9PuN6RvPGc/LNWbpGs/zPvnfQjkbr6PmYZ5PPX+8Tk9De6cx4Gn5GtP+9O+pp2cOZ/288bj+HD2vo88z1YPRtAz1QX+u/s2M76KnM/assfzqadvjXgFIAUgByCAE7LERqzw7hjCej99RAUgBSAFIAegNc9d8FIbqnWcf5ApACkAKQApACkCqDsxJHVAAUgBSAFLCZ06Ej9I4Zl/jsLUyNwLorGc0ep734/WrkbdGOXj58u1REHheRUKYPbDZjRt2fXMHTrpHYskWb6w4FI11Ji8vW2sUKj9KMKo6MEt14GQylu9/hJU7fHDRJ1YA9EoBaFJKgTWn2UwnLbsAEHs1bZ09uB2SgmXbvLBkb7jqdSvNS9WBeV0HtOVJFu96gHW7feAdlo7+FwN4NTKsNKDK2dNgpgMf3msXABoeHsbAwBASs8vw7UF/fLTZH2uOxWOtkzYvRfU4Z6nHOa8Fnipjm2pnJ1Ow8nAUFmz2wXqnIGQVV4NygttkzGxvu0aZ4GYPYHYBILHLjgyLFnTrXjKWbLqNT7YFYdWRWK0XTHOc2lQZqDowL+oAO54rD0fjo82++OdeL/hFZKK3rx+vRqY//qPGgGYPPnajAem9laGhIVQ1tOJqQDzW7vTEgk0+WLzrPpYdeIzlB6PUpspA1QGHrgORWLo/Agt33MUnGz3x7UFf+ISlo6GlU7Se4Uk4GOiy5G17pQHNHoTsRgPSK8zg0BCa27sRkVSEQ86P8MORO1izywfLt3mpTZWBqgOOXAe2e2Ptbl/8ePQOnFyfID6rDO2dPXg5NDRts5suX7hXAFIAmrBCsZczImNCg6isa0VybjkeJhTgXkyu2lQZqDrgwHUgJCYP4YmFSMuvRF1TBwYHh0QWGOFhjd8KQApAEwJIr2CE0IjJ44VaESuj2lQZqDrg2HWAZvjh4Zfi7WYNhwNdnhj3CkAKQO8EkF5hWAl1GBFIalNlYK914K/Xr/Dvv17j30LJa0oAACAASURBVH9PsP31GryGrsb2+o7TzreVPN10+WFprwCkADRpAFmqQOrYu2d7qzKynTKiWXlgcAitHT2oqGtFWU0zymvHb2U1Laisb5XxzxcvBlT7sJLDgaV2oACkAOTwDYxmhJkyIVhqVOqY7QDH/FvQfbi7tw/BUbnYev4efj0egPVOd8Ztvx2/gy3n7sH3UQaa27pnZOzDPF/z9X8FIAUgBwfQEF4MDqKutRc9fezNWteLZ74KDnt9b4aPae/qxWX/OCzZ4o6PNvlj0c6QsW1XCD7eEoDFmzxw2iMKtU3to+Of9vrOtpxvBSAFIIcGEAdSS2o64RZZjtyKdvQPDMJacxhsuWGrvFnWwnQAXb0Tj5W7/LH8wGOskygfjPTBFVm1Wf8rdgXgrFe0AtAMmt9YRxWAFIAcFkBDL1+itasfN8JK8e35VLg+KUNje6949igBbVlAO3q5GAG0SgAUMS7OHZcTX3k4EisVgGZFLigAKQDNSkWbbcHGcZ/nLwYQV9CEHy+nYeGBWPx2LQNJxS0yCM3zs50n9by5L3MFoLn/BsZ2oACkAOSQgphmtpbOPnjFVOC3qxn4/FQyfr2WgYCEajk+ogDkkN/dKNws/VYAUgCablRpe73f7kLxWGrA9nSs5/kAims6EV/QhIv3S/Aoqx6ldZ3ofv5iXgpfe/p2M5VXBSAFIHsFyHTzrQA0wwOaloQWTW1dvS8QkFCFqqZeq6xhYuk56phtCbaJvocCkG19J2WCUyY4h9YGaIrr7O2Hf3wVKht78MoKa5hMJNzUcdsSbpa+hwKQbX0jBSAFIIcGEIVQR48GoIrGHjWpcA60UEsgmKtjCkAKQNM1Zdnr/coEN0fCTwHItoTOXMGHz1UAsq26oDQgpQEpDWiOwDiXgni+PlsBSAHIXjWY6eZbaUBzJOiVBmRbQmcu4acAZFt1QWlASgNSGtAcgXEuBfF8fbYCkALQdDUJe71faUBzJOiVBmRbQmcu4acAZFt1QWlASgNSGtAcgXEuBfF8fbYCkAKQvWow08230oDmSNArDci2hM5cwk8ByLbqgtKAlAakNKA5AuNcCuL5+mwFIAWg6WoS9nq/0oDmSNArDci2hM5cwk8ByLbqgtKAlAakNKA5AuNcCuL5+mwFIAUge9VgpptvpQHNkaBXGpBtCZ25hJ8CkG3VBaUBKQ1IaUBzBMa5FMTz9dkKQApA09Uk7PV+pQHNkaBXGpBtCZ25hJ8CkG3VBaUBKQ1IaUBzBMa5FMTz6dlcE+rVyAj+ev0K//n3X+h53o/rQQlYtcsfyw9EYJ1T0uj26clkrDwciZW7AnDeJwaNrZ3499+v5V7CSy3lbl2AKQApACkAKQA5cB0YQmdPL0qrm5H7tBZF5Q1IyavAYZcwLN/ugxUTAGjZDl/svfIAMeklKCyrl3uLKxvR3tWLoaEhBy4v6wLmXR0dBSAFIIdvTMoEN7tC5V1CZzbPD70cQk1jG9wepOLb/V5Yve021u30wNLNrli4xRerDj0Z1X6oCVEDWn00Gou2+2PJJles3eGONVtv48s97rh+Jx6Vda0YHBxSmpCVOm0KQApACkBWakyzKVjVsyYP1b7+ARSU1eOMZxSWbnTBf/16G4t23sXKg0+w5nj8OAARQmuPJ2DV4Sgs3nkf//jdHYv+cMZRl0fIK61DX/8Lh28vs1m3FIAUgBy+QSkNaPLCejaFz2w9a9i0DHtDaydcQ1KwbqcnFm4NwMpDkVhrGP8xjgURQAu3BeKz3T64ficB1Q1t0k7UGJB165ICkAKQApDSgBy+DhBCr1+NoK2zBz5h6fjuoB8WbfPD8oOPsfZE4pgWdCJJwLRoWwC+2u+L2yEp4ojwamQYOshmC5zz4TkKQApADi98lAZk3V6rPQvGV6+GxYz2KLEQPx8LwEd/emDpvnANQCeTseLAY3y4wRM/HPJDSHQOOrp6wXuGVSdlRuSEApAC0IxULFsSUgpACkDG+vh6ZEQgFJlWgk1ngrFokyeW7n0oIPpogwd+ORYAAqqntx/UfIz3qt/WrUsKQApADt/AFICmJzQ47kHz1X/+fu0w2//++y+MDA8j/1k9nFwjsXSzOxZvcsP+aw+RWVQtrta8xpHeebrv8vdfrzBiZSArACkAKQAp88pb68DAwCAaW7tQXNEgc2KKyuvhCBvfJ7+0DneeZOGHg974eq8H/CPSkfu0Rt7VEd7Rmu9Q1dAmk3itqQUqACkAvVX4WLOyzVVaSgOamgbEcQ8OvDe1deNGUCI+3eGOz3Z74/M9Pg6zfbHXV95pycbbWLzxlvzmMUd6R2u8C+dD7b0airzSWgwNvRTt0RrtWQFIAUgBSGlAFusATW8EUFV9G/ZefYj/60cXfLL9HhbufICFO+87zLZo1wMs3ROKpXtDwd+O9G7WeJcFO+/j//7VDd8c8EFiTpmYJ2m+VACaPXhYIwCqXQYjpRCi3deet67eFwhIqEZVU6+MZdjru8y2G7ARQAeuh+F/NnhjzYkErDuZrLZ5VgYfb7uLH474I0kBCNaAwVykYZcAkl7O0Evp9QwNDcIet/buPvjHVaGioQvDL4fs8h2s0ducKA2CzdKmgXoE1Q3tGAWQhcgBxgmc6vdYYFNHKouPtwUrAFXal8ZjDjm7AhAFEqMGR6c9xcEbYdh9+QH2XA21y23n5Yf40SkUWy+Eih3b3t5j95VQ8c66H5uLlvYeq06IfJs2SBdkRoCuaWiXOiAakALQ2KTVCaIoOBJ49HdRALJv+BBGdgUgCqbWjh5c8InF//npmphfPtzkjw83+dnd9tFmfyzcHoSPtwTYXd6lvDf74//56ToOO4dLMExr2d85mFzb1I6s4mqk5lcizdJWUIXQ+Hz8cSoQ/73eFcv2hGL5vnC12X0ZhGHFvjCslEgQCe+EqgKQAtCkbI9///UfhLqn4aFXOjpae6QHO5Hp5W3HCSD2ts95ReOjP25jxaFIrDmeIMEbGcBRbbNYBicS8Y8NHjjkHIaK2lareCDx+z7vfwHX+yn4/rAfvj0UgO+PBFrcvjrgj6Vb3PCP9bfw8Z8e+Hijp9rsvQz+9JB2zW/JoKy6pjPRXgFIAWhOAHTeOwYfb3DFqqOxWHcqRQ0+z8Xg86lUfLjRC4ddwq0KoM6e5zjs8gj/57fb+GRbMBbvfojFu0MtbowUsHxfGJbte4hle9Vm72WwdM99LNjsgw9/vy3fdZ2TIR6eBdOiApAC0NwC6EiMBh8LlXOiXpM6bqUB6ZMpMwOg7l4cvRmBTzb5YOWhKKxzSsE6p2S1OXwZpIg1Y8nuEHy0wV0ByM6dC8ydDSb63+7GgGiCG9WAFIDeaaaYMeBOAUDaJFLO47G8McBmV485gAgfK0FTpWPDZZksJnQFIPvXaiaCjaXjCkBKKE1NKL0ngOjB+DbvNp57/XoE3b3PceyWuQakAGT/ENa12Im+pQKQJQHt6McUgBSAZgVA3b19eFrVhMzCKmQVVVvccoprkJjzDFvOBePDDW5Yuvs+VhyIwIoDj9Rm52Ww8sAjrDz0BGuOxU1Q3xSAHB02lt5PAUgBaAKBMFFP1XR8khoQNZ+BwUEk51Vg37WH+PlYINafvDvBdg+/nAjCyq30brspYwHKu81BvPs2uOOTjZ5YtjcU6xi54o12pwBkSUA7+jEFoDcawjsEr7peEx6TBBAnjr4YGERQZA5WECwb/bB4z0Ms3vVgwo0x0Ciolu4xxUNjTDS12W8Z7A3Fwq3++PD3W1i8Iwhrj5tCJ41rSwpAjg4bS+837wC06lgiuK0dV/knBx3et+JoAlYeTRi/ZPIU0nqzBzi5PNjMfe8JoMAnOVizwxNL9obh01OpFnrAxvfXxwvU3iE8AE8mY/n+cHy80QOLdwQrAM0TDzdLwDE/5pAAWnksAcuPxMu24kiCQGP18UR8ejIJP15Ox4+XMvD5qbd7V605kYi1JzShSFitPZGIHy+lY5trLjbdzMGXZ1JHz9sMFGYThO8JIGpAaycNICOM1G/7r18KQOaCV/2vefs5FIAIjM9OJmOnez4uPHiGCw/KcP7+Mxz2L8L3F9Pw5ZkUuEVVwyO6RiC05jghkwjCRgeOrhn983SyQIrnVx9PwG/XMnEnqR7BKQ04c7cU351PwypGYeC9x7X7dUHBfOhpjqZ7QoOY8XrjdTrs9DRsfq8A9A4tToFzrA4rACngWHYvdygAUbh/dTYVd1MbkVfdC5/4WnjF1CKmoB2ukVX4+UoGwrObEZnXivXXs0CtiMD64nSKCTZJcuynKxm4Hl6Oc/ee4bsLafjsZBIuPihDXvVzXA+vEC1Kb1y895+nU0S7IkSMINHT/uxUMj41aSf8/cXp5NHr+b+ujRnv1dO32b0CkALQpDVuBSAFoHkCoK/PpiIsqxlJJZ3YcisHv1zJxP30JqQ+68LmWzkIzWzCk7xW/H49S0ByOrgUt59U4/aTKuz2yMdPVzJx/VElylsGUFTbLxrTfp9CxBS2o7lnGKGZzdjnXYAfLqbjgE8hbj2pglt0NS6FlsmzCKstt3Nw+WE5bj6pxNWwCuz0yMPRgCKcvVeKK2HlkuaNiErs9izA2ZBSuDyuwtGAYnx3PhVrTGY/mwWPLnQUgBSA9Lrwzr0CkALQPALQw8xmAc4+rwJsd80F/ydA/nTJFgBF5LTIOM4ezwKcC3kmwt8nrhZpz7qww42wKEFOVS8SSzpxLKAYf9zIFohVtgwIrGjiuxpegSf5rWLiOxX8VLQs79gabLqZLfCpaR9EXFE7DvgWYpNLtkCxpL4PQSn1okUV1fUho7wHzo8r4R5dg9jCdpwKLsFap/HmPJsFkQKQAtA7waObIRWAFIDmCYC+OpsiwKlsHUBkXhvCMpvxIKMJh/2KxJwWntOMJ7mt+P1GNr49n4pfr2Xg16s0uVWgvvOlOBnQVEct6U5ig4wbrTwajxuPKpFd0SNa0gbnbCSXduJ+RpOY51YfS4B7VA1SnnWKqe5mRBWq2wZxLqQUSw/F4ZtzqYjIbUVudS/2exeKCS7paSeSS7vwh3MWdnnkI62sW0yGHKeiadBmwaMLHQUg2/9G+rea870CkALQPAEQTXDUeDIrenDq7lP87pyFHy6mibMBx4eo/ega0MmgEoRntyA8qxnJTzvQ1D2Mba55Mj4UXdCG4ORGcTagIwJNbblVvWJ24zVZlT3wiq2RMZ9VxxLEvEYzn8vjSrhEVKGwtg+HfIuw/HA8vr+QJs+hRkUvOnrjEY4Ps5rx85V07PTIR/LTLtxJasA359IUgOZcYOo9d7W3TkdIAUgBaB4BKDyrRbSL7W65IsypUaw+loivz6WK9vMou0XgEJnfKv9TA+E4TkPXS+xwy8VvVzPFUeF+WpO4XhNAtyOrUVDzHAd9i8SUF1PYIVrNvy6ly3jQ3ZQGMaOdCCwRbelpfb+Y9lYc0QAUkdOKlGdd2OmWJ04HdIzgMWpfHHtKfdaNoORGfHNeAcg6Qk/Bw3bKUQFIAWieAOirMyngeM6D9CYZ59HdqjUPuRT4J9bBN6EOW2/nyPgLzXM3IypBKNFzjmM4NM1Rk6F2RFdumtA4VhSV34bdHgX45nwqnIKegqCjZsTtYWYTztwrBT3oOCYUV9iBvV4FMmmV6fGZDzK1PNFRISi5AX7xdeIIseV2rjg3MB1CUpngFDxsBx7W+BYKQApA8wBAhM3np5LE2227W56AQ2/IdHGmuzM91LhxrIVzg6jRnA5+KtoKvd0IG97z0+UMOXb8Tokc++VqJnZ75uOHS2lynq7X213zcCq4FKfvlmKne56kyXup1RA+P1xKlzlCdLumBx4dHAgvumRvdc2VY0yHgOK5P52zR93B9Xzb7F6NAakxoEmbShWAFIDmAYB0Yc2JodQiLM2rkUmjpnPUinidfr3xntFzJzSHAP1/PU3u9Xv1+2mqYx60yavjnz92jdaj1POhXW9Ky3S//h42vVcAUgBSAJrUgpwKPpbhw3JxqImoNi2wJ91YrWHymIU0FIAUgCZdp5UGpCBkGUIKQJNuRLMg1O0pLwpACkCTrq8KQApACkBTFhg0t4nJzJ5MZJMWDlME6wwBiON4urmTZa6bPGnuZCRy7qei6TJdustz09N8Vzr6d+czjZsxX+9KY7Ln9Xfmc/hbd56Z7P28j0F4mbfJ3mPpOr4z02FZv09ZWUpr7JgCkALQPAMQG7FAwzTGI78nCRA2fqOQohMBHRY4x+hTp7dH0R5rdFMU7DMNDmulPwMA0sv92/NpErePUcvppMExNTpx0CHk12uZImCN3+ddZc5rPz+dInOwtrvngZOV9fG6ie9NxNdnU/DzlUzJC51SuP1yNQM/Xs4YdTiZ+P6x78/30gFmKd+sq1+eTpX0OQmaTin0lJxM2ryG93Ny9EHfQvHCtPQMPS2eE8gR7mZ1gWWiOerkgtMJGEKKTjlvS09P9+17BSAFoHkEIDYkNhx6wjES9hH/Yuxwz8fnp7no1VgPkQ3LuOmNiPcLwExLMvxxI0tcu50CS8RN2niP/H6jIVtOl+lbul5/rl3trQ0gk5ciPQudIypx63EVbjyqwEG/IhH2dHFnjD/G4WMZjmoKo5HMzb+rKdK5SXv57kI67qU2irv7r1cz5X79O3OvbWNCn8KZLvln7z2D86MK3Emsh39iPa48LMfJ4Kfi6ThWR8Y0Nd7H48Y0GbB2s0uOTAtgZ8Yo+PkehM6lB2VwjqjCtfAKcfnf4JxlqpsmjWg0Ta0OjT2bGksijt0plmjt291zR7V1xhUc/45JUpZbbuWCdZremCxLvd5R8/n9RiYislskdNXpu0/x3QXGJxx7H+23do/+rmPnx9LS09T2CkAKQPMEQGwMP15Jx+3IKlk6gcKMAiQktRHOEYxknYF1ow1Ta6B6Q1p9QlsziNEK6Fr9+40srDuRiPXXM2Ui6hH/Iuk9641QYGJaekEXKjxmbJDjBJvpucZGP76hTtSAbfC4lQHE8mM5cz7Ww6wWnAgsll44AcTOBM8RPpxnRSFOLemHC+nyPblOEzUlliXLlktpcIIwo0z8dDldIlFQcwrLasHjnFZZWoPClq74P13hdRlax8JMILOusC6cu/8M6WXdEuCWeWCQW6bPSOm89/sL6WBUc35rRrn4dvS4tgTIxps58l6PclrAOV/UwCSv8rxEXA0rR05Vj8DnkF8RjgeWYKNLDtYc5/IiSeLOz+dwCgBh9sWpZHknRvjg+laM8MHo7oyowXzx/b8+lyLvxPtYPnzXz5ySxN2fUTg4D41lyrLUy41557w3xin0ia8T7e9Tp0R8eTZFyvkXedc0DVxOSXIvy4D5YDnzmXrU9/H1WgFIAWgeAIjaDRufe0wNUsu6JDwOJ3aygZ4PeYanDS9w/VGFmDgYg40NlhGtOXH0SEARvr3A2HCZEsqHsdxC0holYsLPlzNkDhDNHBQI/zyTIvHb2Cs/G/IMW2/n4rNTmrBgz5JCSptfVCp7huJhw6Qg2O9TIEKNpg4KrPEN1QZBY6bdjebXigAifFgWW2/lSLy8R7kt8h1kHOJ4ggRoZQ+fazFxfhU3LrkRntUKj5gaCTBLzYSgYllfDH2GgKR6BCY3IKW0C4EpDfIdGPooLLtZ0qbgdImokGt4nVtUDTbdypHOCTsomlDWxlVYVyKyW/EgvVnTGE4kijmQz+AaURTWzB8FOKNacIIxlwLhZGaaDbmUR33nEBo6X8I7rlY0c16raeOJ8I2vlTiErE+sX6uOxcs51mV2hEIzmiXsk2tUFQgoblEFbaIRcvLyLvd8nAx6Cq+4WqnTx/yL5R5OyA5Mrpeyuvm4UsyYN59Uobl7BOXNA9IW2MliXhgphGteRee3oaV3BHFFHTIPjtFE2JnzS6iDb3wdgkzfgN+MEURiTRE9mC7nwv1T6rV5PVYAUgCaBwBi75cNKrfqOULSm6Q3yJ4uGxd7s3GF7Ugo7pSGyMjVOdW9EuX65uMq6d2ywXJCKGPJ1QiAmnDIrxiMmp1Y0iGRsNnTpECJymuDZ0yNNE7GjaNQ4MRTConC2udi6qH2xfhv3P/rYrpAjNEUKIQ4nkTzy6hAn0jQ2+pxKwJIyuBEEhjFgkKbMfcYmZydBX43fle3qCpUtAzi4v0yXLhfhqL6PgmjRI2CMEov7xZzKzsTjCzO0EkM/Fra0I+Ekg75hox6QTMetRp+u/jiDjGnERIMUEsTHcd5jGZaarMbb2aL5kQQ8JtR8MYXdQh8CB6a5uKKOyTgrV9iHZKfdor2xus23cqV784oG/nVvVqH5KI2mZmgY3qclJxQ3CHxA4NTGgVi1EwYSZ2a193UBuxwz8Mez3zp7FBj6nrxWqKtb3PLF/DeelKJ7OoeARZh0/3iLzzObpVxIffoaqSVdeFyaJmYowvr+qS+sxx0bYzaFuskryWcCFCC3jehFgycyzIiYKihUoOiGY/rZXX2vRJzHb8DNSHLY1cKQApA8wRADBQqJoS4OjGNUJiwd03TRGhGE7Ire6Uh3UtrRFZFj2g4HPTlKqlFdf3Y61kgoXUYzJQrn9LkwV5tcV2fBAvlOj+EGCFCjYY9bqb7OK8Ve70L4JNQh9yaXhFGbNzstVMgUkuiGWSjS7b0wLlYnW62s0sIWRtAprETlhF79OwMZFZ0S4+c/7tEVKK4vk+EHsdlKBQpUBceiMWxgBIJPsuI5pcflsk5Xk+hTRiws8GOCTslDK/EcUHezyU3qGFwe5zbisc5LeDYi7FjYA4g/s/1op429AuAOB5EDYiguHD/GQ76FcrSHIFJ9QIhjjetv5aFlKed8kyaEDUTra5laWZDCm/ez3WsMsq7ZTyIkMyveS4gYEeKG2HMVX4JYK4vRS1x2eF4WR6EWr9T8FNZX4oQoVbEpekJQnagaHYjxNKedeNhRrOY1ujppml7mumYWhifef5BGfZ4FUhMxIDEermGZU3nBOaPeWC094La5xKCasWRt3koKgApAM0DAOnCIq/muZgMCIdVxzRvOHovEQQUPOz5BabUg8FIOejKhs2F4Z41vZBeMzUWChTa4gkw9vzYKGlu8YqtlQZIhwRxCz6WKKutppZ2ydpBFBrszTKsDgUDx50oVCgE2Eh5D59nl9AxamMzACBCmWMpFIpfnkmVci1p6BdnBPbqS+r6ZICegpcClYsAcrmLo/7F8k2oMVEwZpR3yXIZ7K3rMQG/u5gm2i4BdCSgWM7nVPaIkKaTCiHE6OXsjKxxGtNM9TrFsSNqQDRX0exV2vhC6hgXEjwRVCL300RLgFLIM1I6NSxqFBwzYp1gMFrWQ0KEG+sA0+OYDqFHTZ3LhlDAU6v2iKlGdqW2BIhejz89mSzvSI3qeEAJuBTIyqMJMn5ELUcHELVFvhPPUZOhFsh4hIQyzZKMY0gvPz5TBxA7RCw/avAXQ8uw17tQNMOg5HoJcbXkUBzomMC2wW9AAOVW9Ug7MUL7zbqtAKQANE8A9N35NFnmgAvQ0QuOAGEj52A2e7xuUdX47XoWglMbZNG6PV754npKO3dejaYdcdVSCoHT90pFUBBAhXXPZVyBvWwKEpp4KDi+OJUCalNR+e1gLDkCKqmkQzyeCBwCiL1wAojXr7+RJQPpFCS6EHqzwZrb0G3wfysDiGVBMyVNWnQn5rejFkR4H7tTogn9hv7RnjfXY6K2QwBx0UAuj+HypFLWdWIng6Y2gsIjulrMXlwBl6ZVRiDn9+R34oKBDDLLnr7mKZkn43vG70IA0RsuMpdrS7WI9sLvTC2YY0B0TDnkWyhpUMvmAoiH/ApxJbRczK/UOhgbkOY9wvT4nWKJnq4J/UQB1j7vQjEFUkum4I8vbod3XI3UJ4KLAXR3uOXL2CLTvxJWJpoHO0E6gKiVZVR0Szpcu4rjOGGErX+RLEtPGFJ7YRmzHFJKWSfzxOxmBNCFB89E0+SCixwT4lL2mqmyRDR8avu8f9PNHIERNSCn4JJxWuOb9VkBSAFoHgBIFxx7vfLFpEJ7Osdr2FOmFxwHUun1xF7uvfRGlDW9wL3UJuk9UjviICuFCAUMGx0bGgUTBQTHJWh2o/bEXi0Bx7Ej9rrZW6WTA72KPGNrRLDRi4nazo1H5TKgSzMS57LQJEcNi55FxrGGNxutDUJnJjWgE5qTxpXQMilflhEdDGhGohMJBSkH1Hd7FciYimtktQhkQp6Cm5onI5RzdVmOz/DbcOyO31Afk+HYCTd+Y3qH0c2bA/ea6a5cOgmcL6TXI10wy7XhFeKCve6k5srMALasD7ciqyVNak/s/HDcidoaTbrc9nkVigMKzX7UvmgapPBmp4hw+/xUigz2c8yFy7TzPbjn6r10dqEWcyepDs6PKnEtvBL7fArEcYaOCzQ3U/OgdsQOFmHLjg7Xo6ppG5LnEeJ0iqC5UhujScbJwKcybkb40ulGc8dOFI/PvZ75Ajx2AqiN/nE9Cxxf4rdwjaqW/PEZzD+nNvglauOmb6/LCkCzDSC/GFdwO+vvgqMezrJ9f+QaJrPtc9aud3t0S9JIKPGYsZh3DheKR/cso7CnOYE9OZm7EcQ5DWlYfiRBXHjvpjUgq7JbhB1t7zQpcEyHDYmmCToVUFhx8JWOBxRu7DlTi/nhYroIBvY0eQ096Wh6oWcbTRyEFp9F4cB88H+mzR4lzRZMm2NLFEB2Bx4dQlbWgPRy4LgZy5flxY4ChSMHyFle9GjkXC6WMwEunoROiSIoWf50BfZLqEdicYcIXA6M09TEhQLpmUiQUagTIvw2HOgnjPRn0QSo58O4p7Bl+tx4nPNrONhOV3De+93FdMkf6x7rB7890+WgPq/ncbleXJY1l2g9fcKO70E40KWaZmPmi/ewfvD9eYznCDie4/UsJ831O0k893ic+ftKTJfVKGsawOlgrU4zn1JWpvrG38wj3celPPRvymjyp7W0ude8E+n1OVZOfCfmWc83kfTRdAAAIABJREFUy5Tp6e9jea8ANFMAii5wh1fk7VHA/OOXS/ivf12ckY3wIpxcQm/hYYa7VaDkcACSBm8Ku8IBWI7DLDsSL4OxhAt7i2x8BFBkXgt+u56JBftj5bxux2bj1wd3ZZzneKKc1weBeZ0xbV5DYcFGyWvYK9fhwufp//P5vI/X27UDAgXWDAGI5cZy0jeWqXxTUzgkXfjp5W08J71ytzwxvblHVeNqeLn03DmuQgHN78ZvqwtJEfL6s/j9DIJYv0bfS77G3WsKz2S63zyffJbk0ZQmz5u/k5628RyvGZ/Hsfv0d5brTfXNPA2Cjh0iz5hamUvEfGjvPaZRjz7PLA2mZSlteXdTOm+8k4U09DyN7RWArAkgajYEgVF4zxR03pbugvWXsOXSdQFSyrOpaUnGd/jgs53uo+S0ZoH9/dd/EOqehode6eho7cGrVyN4+fLle28jI8Noae/Bee8YfLzBFauOxGDdBL3Wsco/1vD0BkZhxDWBqK2wV80e7UTXq+MTlM0MAWg65a0BJFE0HWomNJ2xs0EwUbBOJ217upeTckVbfKdmMltlogA0XXkakuImwp5C/21Q0M999IcruC3aFoBF2+9gxf5wrDgQMalt8Y4gueeTPz0kjf/++do7n0nN689z10Ube593nXcA0gWJpZ6hfk7tJyGYbBBA/G6EkPTYzcIpzadvOqrFvEWjm93yUAB6H6FsvJbazk/HJwbAf/90RQONCTJrjsXOWEeLACOcCKa3QemLPVdEKzK+x0S/5y2AptIA32aimUp6dn2PDQBIN2kZy5HfiAJ4dDMTwnJev8bsnDGd6f4mBDXT15jJzzxNPS/mxyf7P9+Rz2A5TPYe/To+W7+Xv/Xj+p5pavl/85x+zeT3CkATCeCJjnNsZyLw/M8vN7Boqz9WHox447tN/ptM/7uuPhIlQPpw/U2LGtLaHZcRmOD61rEihwSQ2KkN9nprfBQ2Ri08/fs39omeP9pTnYJ56G33vu3cRHl57+NzDCAOfHP8jg4i+qReEfqmJRf4rTget0rGVLTGxvM8btyM4y3vXQYWBDfToMmPTgic/ErHAUvpSl5Mc8L429I1bzvGb0wHAj6Dc4ve7QgwJnB4Lx0WOOl2/Y1MCZ+jP4swYlpMk+Vr7qSgX/d+e/sFUMzd/LcK0IkAMp3j9D6zZGpbsNkbFPrvV/Zj330m71t9NFrMdtTIdDMg9zTNOXm7TFiGDgcgeg0xJhi9c/SwIGxwnJAnDgmH4zWnAEOv0XieTgJ0HDDvFbKxco4KxxX4IQkkXst0za+d7IfmWBTz+j7CQ09bCziZKvOQ9GP6nh5MHAOgR5Z+zOr7OQQQvxc9uNxjquETXyNluOpognjP0eOQrvf6tvl2zqhJjqGS6IEorvkP6b1YIAE0rVk2zBu/K+cocS4SJ6rymLGOEHqcj8N5OXSzpgfc+0KIEbA3uGSLlx/nNNFLjs+ZzLsQwAQ35yh5xtbKvDT9+az79LpjmsGpjQKp6UPaPgEU5JKIiICcCYXndCAz0b0U1kYBzt8CnqPRk/q2k/n+M3nN2uPxFkFEZwVL7+xQAKLZgG6inIvDuR1sSASE7h115t5TCRvCmeHfcMa7ePBoE1UZj+vU3VKcuFMioeoJBTY8buwtBiTXyax0umKLALyYLjPMOadj1B3WNAYhAsdgBjJ+cAoiOj3w2ZwAyYbOmfJaXgymI5MwGUtL87Jjftjj57wYzgXhBEUKFD5DC7+vBYnknBDmVT9nzINVfs8hgNY5MehsisTt42RKdjrodMA5NE/y2iQ2G39zLhfnAHFOC126ObeILtmcFMpJpCwjTlCVMjZoM7r5icKYWhQ7G1K+pkXxNA1K06b0c0yDx1cejZcOBeeKZVT04Nz9stFvyzS0ZyVKPeM8tMaulwKrVccTxJ2a9UBLh5ramMam51HXxJcejhcXf4YrYpBVaiy8jx6W3PMdWFe067UoCzzOjcfoms05SgzIS5duHuO7spP2/cV0iWUYX9yJra6mumkon/evP1MBULi4y4uTER2NLGwfb7uLH474IymnDENDQxgZHn5vxyZLzlCvXo+gqbYdvtficPHkI4uC05Iwne4xjvcY4fM/vzrPuZnt/b+1ydpwLFbGpozvwzlJ5mXkUABiI6XJgHNtODue4eGpsRBGDER5Pbxc5gQ9ymkF41sxyCQb36ngUgnL4xlTLREOeP36a5mjPUrGb2OYE84xoUmFkGPQTEZHiMpvlcl8bMCjAsYED4JJO6ZpVCJETOYWLmzHnjhDqrCXzPu185xjkqyZlQRiGnB0LYmChWkyUgCDcjL8C4WXDjDee/5+GbKregS2nPc01Ur01vvmEEAUrNRw+Y0ZDYCLBVLgMzyPU+BT0TbY8eAkSx5j5GhOnqRGwphsBD5D0NBDjgFQ9fdk54Bg2+meL5OTmSaX8th8M0fSpNckJ5fy23NSpsvjKvkOvJ+dFM4ZY4fCPapGnsvoDIytpn8bXsffDHjqE1cnMGRYGwZCpdbEb0sgckkERuy4FVklbuROQSWSPkHLiN2ce8YoD4ziXVLfLyGGOPGZ7uZ0v2Zkb04yZd3nhFZqY8wv806Ni3WJHTBqYNxYfoxXd/VhueSfYGYEirjCDoGc5H8WAfThBjcs2hWCFYeite1gFFYcjMJy2SKx7MATLDsQif+zwRffHvRF4gwAqLG2HT6XY3Hi0P03hKa5ELXG/xzzMZrdONC/7sQMtd1pfcvJadl6m+JYlRFC5mNCDgcgNi6aViigaZbgDHL25Limy+eyZEKyBBlNLe2WZRvojk3BxGjKFObfnEvDhhvZAhoCgekxygHjy3E2O4UEzXEMV8/4cGXNL2Q5B5r7CBxOfqRQ5MRVgpDBKtk75boqhCO1Ei2QYxkCEhuQV/1cYpkxaCUF6lH/InCW/Q7XPMkDBSejDl8IeSbp0lxDAcxlHxjyhWlTQDDvFHZM+25ao8TzOnWXwShnqBLPIYD4vtR4GOWAQUSpvTLqeFhmM365wsXmNA2AvXl2NKiJMLoFl19gkNnQzCaBPsdpqE3pjYV7as000xFkXCSOYZX84mvx/fk0XAurQFP3S+nMMLoGI5szOgPHYRhihzHWGDaHHRhGziiRgKHPxgGIdYpLdUTmt4kGy6gJudVa8Fq+F+fwZJT3yP0Mi8PoHYwzSK2dHaGglHo8zm0RkNxLa5IlHu6nN2KnW55EzWYEBL4z6yHvYZgoLqHAGG4EUOqzbqn/fzrnSFgiLj7HiBGcN8X8s1PEOHbPGvulTDmRetYBtN4FCze6Y+k2Xyzb5oul23xkW7aVe28s2+aFZdu8sWDDLWw8E4zMomqra0CNNe0IdE7EXffUWQEQtQNdUFPzoSnLWC/t+fdHG9xG383cFOdQAGJDoWmBgomNiCF5KCT4P3udmnkiUZZNuJ/ehCeMYO1VAI+YWomEfe2RFgKFs+7XOmneRRRIFHIM1cMYchxXoWBgvDEKD0ZTYFpcPpqakWt0jWg1DFxKGPA+9lbZG+VsfIZjofmHvVgKQ5phGM2Z0Mqu6EZsUbsAjzG/qOGEZjaDYWcIpYicFrhFVwtYCRvmi3HIuFDYg4xm3E1pFKGZ/LQLNe1D0AA0QxXZBgDEtX34DbmEBgUry1yb16Vpk8sOx0l4JZbzLg9tMTsGmKU2zO/GPctZNE9Tr5CaDAW9LsBpxuMaOdSCGLqHHQ4GH6XGwmChehgmCnlqM5tccvDtuVTRTgghrhclAtxkkmX6DBdE0+DJoBKJksEo3wQFxwMJp/SyHgl8ynzt9y6QOHeEGusD6x01I2rMDBFVVPcc99OasMs9D/dSTXm4mYMF+2Nk6Qp2cBgRgUs/MA4hwxRxWZK9XoVSdtS+zt0rlXrKBfvYRqg18b31pUtmFUC7QrBymzsOuzyCa0gKPB6kwTc8A/6PMxHwOAt3o3LwIDYPD+LycD82D0m55Whp78YQ5xVa0QTXUNOOYJckxATnzQqA1p+6Piqkl+wMdhj4EJx039bhSuAYNUbHAtBxzaySUNIpi8kd9i+UKMDsEVIwsdFy4++ApDrEFbVJHDExicTTJNItDZyChovQUdOghsQgpTS7EEzUNAgRgoEDuRRCesh82s65NgxXt2RPlkIqMKkBMQVtsrYLBQ9NG4yWTG2Ig7xcOoLjThQujLBMQUbzCIUgtSwKJj6TTgc0ITJSMU09DDHE8QxN62FU4l7R0GhCuv2kGlzzhefoKDEjvScbABDHPgggjsPRzMZo1dSAZJzDNB5zP61RAssSKBSu3Lg8NwU64c/xQn4L3QRKsyy1Ggbd5Bhbfk2vmKIYA5D3UBPmshtcKZdjSjGFbbImVERuq3xb1iVquwziKVGjDQDimA41V3aKWGe4iBvTeNrYL50WxnZjTDlChvWI3243l08o6xbo3HpcLWkyrtuywwn482a2RP4OSW8UAAUnN4hmRWeLRQdjJRAun8O6SKcFmtoIbQYtpZbHDgwBxPfi+kuse4sOxMp1rN80wbH+zyaAFu++h28P+SMu6xme971A/4sBvBgYwMDAIAYGB0XTsTRuY81jHAPSARQ9SwD6+Lex8DkrDoTPTJudRdPbOJlzPG4UQASRwwOIgpuLeHHwmRoIg5Jy7EYbVE6UnibPs/dK4b7oQJyMuWx3zZNlGhjhl2vOsME6P64UTWXzLfaUEyVmHKFBIUJwcJyAK11SkDDWGwNUJhR1SLrLDsXjRniFxCZjrDkunMb7frmaKQ2dS0BklPWIHZ5mvpyqXtGalh+NlzVxGIqf8eYIMgpIgqu0sR8XHzwDI3ZTUDFdLoKnmRCzsPRwnATw5JgVzS6OaoL76VI6InJbRGOkwGW8P8KdwpRr7nC5bjpqsBwCEutkbIXfmp0Gahoc9yuu7xcNiWOFLF82GpYtlzLwiqnFQZ9CUJvk9+TKoAwkyjEXaimEDCOoc5mDy2Hl8I6tFYgQIDRbxRa2CVioBesaEMelODbDdagYlJbLSDB46Z3EelS2DAiQOEbDdX0IA8KS0dqzKhnFvUZMZzQ18hxNkDQD1nUMihPCbo88CbgbV9yOf11Oh750AscCGdyUYJSlHsq65dk0UbP+U7vjIn5cZI7AoQWB3p5sAzRTzwWAfjgcgLTCSrwaGcHrVyNgBJRx2/CwOBzQ6WDYSlqPEWBzASBdQ+DekTWgeQEgmg5oFqPQoLmLPUgKI90Nm666ySVcVK5OoMGxIgqfxQdjpfGx10izF80UDNnPJZ2pWRBibPzFdf2g7ZxRhgkVQoEBMGnOo1sr02avnDHgOO6QWNwpjZxjPgyDz9Uk6ZnHJb+5sBkHgjnGk1v9XABEbyQOKtNMw2u4KuiKo/EyBkEBSDMSAUSbPQFEcx41Hpr4KEjdIqslT46sAdE0ygjS/B7UaPk/4cOeOyNcUwvkekA0xTJIKcuQEbK5UBxNotRi72c0Y+ut3FHvMzohcIyOwpjaFR0KuHgbx1i4vhMXKIwuaJco0AQQ4UKPOo4vbXTJkjpHjZXOKvROo7mLaw8RQBw7ZEeCeWDd1CNZEzI0z4ZnNUveCEauYcQ8sh5wfIt5vfigXK4jdJg3at7UXujEQo8/OlbQcYHlwY4T79VW6K2W+1kv+b4haU1S5wkkWgbYPrjcBMHH92b0bGpUKU+7JJ/U2KyvASVi3SkGhTV6tzE4bwIW7w7B94cDkJJfIR5tw8PvH7LLCJOp/J5rAHEMyBEcEHQtiA4VRsA6tgZ0PlVWceR4CNdhYQNmb5PmhuvhjF5dIYKJwou2bjZELqnAsZVrYeUykM0xI32+CLUQ2tpXHImXtNizZYOnBxWFB+3018LLpdd6KVTrCbNXSRMaz/MctZ7dngUyXsNlHCjQuEonYUToEIiEBUFJIUeIcKyJGhK97CgU2MNnOgQjx5voKUU7PXurfA/2Zilw6ZlFGD5rfCHjSsyDXhGsup9DExzfgw4lXP7i9xvZ4ijCMqMTCM1S/HZcnoDfnmMuPEfg09GDGgXPc+CdTgjUajk+opcNPc2oyR7wLRI3+R1uueJkwHQ4d4deaAQe76EWQocUdkwopAkSpk2zGTsg4sxyQevcsJ7Q1EctjEKdEaYJPD6fz+SEUH5HdoZ4DfNKt3qOK0o9vaKlQ69NaiXUzmgW/NMlR7z9GMGd9zBtff4Xn0mnGnbEWB50+yeIaQngNfS4owMFwcj/Oc7FjtrW2zlSBjxn9BLUy+j99yY37D89sHB7IFYeicWqY/FYdTQOq47EYuWRGNlWHHyCT7YF4puDfkjOK5+3AKKw/mSTl0NAiKF7jPBxaA2IDY4NaZ9XgbjSfnkmWRo3TV7UMmjm0pZDKJTJf3L96WRsu50rmgR7tFx/5g/nbGn07C1G5bWaNJAEEQ4c9Gcjp9Bgr5aCh55o9JBjr1ZfOExW1hSPuWwxsxBYX55Oxm6PAvHI48AvNSaaCX++whn9mWIi0d2/mS6XHCD86AVHTYfP+PaCJuyYB+1ebWIshRLNO2fuPhWPLHpl8b2Zx/cXGGMCecJ75xhAzBeFN8tJzyO/J//ncf0c98bzxnMyb8rMLq6noaej7zVYmNI33aOnxXt0mOjHeJ927/iy1NOnk4ueL+5Hn2N4Bx4fvd70Hnr68szRZ2gQ1c8Z0zXerz9DP2+83ngdj5tfq98ztX2yBMPUA2Qu3OKLRbL5YPEWHyzb7ovl2+nx5oMlm9zwu1MgcktrNQBNIWjxVLQe4z1zrQHpApshbmw18sG76gG9+Izeb/o7OTSA9ELRwcD/KRjYmPRjxt88x2vkmKnRsbdM8wWhRI1Dcz7Q5mhIIzVBR3+Wfj/v0xsun6WnLccMc3wkH6Y0eI92nyZM9TT0tI3PM+ab58elq8PQQrp6Wlbf2wCALL2TBgJNcOvfwHgdy1TfjMfNf+vXyN4AKfM03/hfT99U995Id4LjvE5PS9/r91r6X8+XpXP6ffre+C76Me55r/F++d8EU/288fqp/07Gsn3hWLzZA78cC8Apt0hcDYiHS1Aibt1NEk83z9A06FtEUhHaOnsEQEYwzNZvWwGQCO0fL0vctzUzGGR06t91fOdK0jmRIGNYbwtW6rAmOL0gjY3KeGy0IRoEyuh5o+A4kSieaAzjoo8PjV5n4V6eMz7T+NvSOWM+jNcafxufZ7xeP26ervxvfIcJ8mm8f1q/bRRA03qnmS6zeZt+MpbsCcPa3X64dS8ZDc0d6Hnej96+fvF06+sfgHGjx9tswcbSc+YaQEt334d5TLX/MoGIMddssY6PhuCxsHQDl4SYVxqQNT4QNQ6On1ArsUZ6DpeGApCqF5MGqgagT/f4wy8iEwMDA/j336/Fy42ebuM83OjxNgOebZZAM9GxuQYQZQVB8+Hvt8cJbl2I0zTHsZW5Ns9RK1u6696EpjZqQXrEbj3v3Du8BuRwwn7SDd2CSjxT9yoAzUMAGb3WkvHpSeOWgk9PTrSlYuneRyCAfMIz8Lyvf8qLUk4EDWsetwUA6TJs+b6HE4KIwpxLM9DLTBadOxAxcxEUTiTIhFK6iDM46kRLMOh5IpiMnnwKQDMliOdrugpAdgyg8SAZdYd2YuxCeucxEO/YWJn2OxFrjsVjNb3X6Ll2OAYrJVZbFFYcisTyg0+wnDHa9kdg2f5H47al+8Lx4eY7WL3DC14P0xWAKj3HaQHUCIwCWoePcc9oAuLO/OPlcdca7zP+1h0+CCYdTpNdEZUmQN5DTzym84Y58F9jk2bNn8l7jfnWfxuvUxrQfIWGNd9bAchiQ9Mb3NzuzQAjYNG0Y815JR6rjxIi0VqATwHHIyzdG4Ylu0OxeNd9LNp5F4u2B2HhtkAs3HoHC7f6Y8l2fyzd4Y/lOwOwclcAVu8KwJrd/li3xx+f7vXHZ3v98flef/xz//jtywP++Hy3NzacCkJ4YgH6XgyI2c2aWos107IlDeiNenQiAdSKqIVMFgxG4W/t34QiofOu2HXG5yoAWVMQz9e0FIBsEkCj2srxBNFWOMdmxcFILNv3CEv3PMTiXfeweEcgODC8aJsfFm3xwZLNnli+zQuf7vHDN4cC8PPxIGw4fRfbLj7A7qthOOQcjhOuj3HOKxqX/WJx/U4Cbt9NhvuDVHiHpcPvUSaCInMQHJmDkJg8PEwoQJhpe5RUiKi0YtlS8ipQ39yBwaGhGYlgYC0I2TSAzOQNx4GW7Xkg35PaCp0VjMLemr85JrVgi6+M++hjO28A0ix/+nljPhSAJigkvbDUfhJjSQpAcwCg8QsMrj3BqN80icVgOSGzn1rMQyzddReLd9zBkm1+WLHdF2t2++GLff749lAAfjkehG0X7uPIzQhc9I3D7ZAUBD7JRnhCAaLTniIppxyZRVUoeFaH0qomVNa1oq6pHc1t3Wjt6EF7Vw86unvR3dMnnmwcz+ljzLb+AVPctkEMDg6NbkMvCZuXso1wP2KdNXusBRtL6dgTgCaSVbq5TUxw2wLElKab5d61J2R4H8HGdKzhAq4ApKAzCYFpMN2Mlpc2LsCxgXHbyVR8uNEbh13CUVHbOqHn0quRYbwYGJQe8todnliyNwyfnkqdRF4mAcHRPDratUbQaOVO0xnHXzj2wrGWJbsfYsH2YHyyNQCLtvphyVZvrNzuia8P+GHjmXvYfz0M5zyjcOtuIgKfZOFJajEyCitRWtWI2qZ2tHR0o7u3T74NPdH+/uuVbH+9foWxTYvFxnhs3F5xG9G3t8dnY4y2N7Y5mFRqCTDvOuYIAJoITHN1XAHIYYXVewrfcZ5LJuAYyoaCjj3r1cfitPAopoFm6WHLQmBPsHT/YyzZ/wT/76+3cOD6Q5TXtCgAGcpwKo1c8yijF5kGH12zWXbgMRbvCcOC7XexYIsfFm7yxPKtnvhstze+O+SLzWfv4YxnFPwjMpGQ9QyFZXWobmiVJQp6n/dLBGkKXLo6Eyz//uv1KGj0QJ8CCjuBw7vgYY3zCkDvKVMmUfcVgCZRSFMRHLZ7jwaXMVdZrnHE8EEJYrKh5xK9kxbtDsUn2+/ho61B+HBzAP77Tx/8zwZvfLzRG4s2e2HJFi4A5o0V272xaoc3Vu/0xtpd3li3yxtrt7viin8cahs7FIAmXb/GtEy6La87mSIeZ6uOxoon2eLdofh4SyA+3OgjXkgrd3jh6wO+MoB/xCVCogdwHZz0gkpU17ehs6tXvMoGBwY1M5dZ5GhqoISPgszkg5oqACkAWZwJzYbU0t6D894x+HiDqwhScSGddOO3fsHaDoB0E5kpTA/NNRwbOPBExgUW7wrB4p13sWRHIJbt8Meqnb74fI8fvjt8B7+cCMafZ+5h+8UH2H8tDMdvP8YFnxi4BGthUrggWFBkNu7H5CE0Lh9hiYV4nFKM6PRSPK1qQm/fC4vfi71RZYIzfBdZ5JBBOGPFdZnhaRbtuo/FO4Llm6ze6YuvD/pjw5l7OOT8CDcCE2RQP7WgEqXVTWhs6URPb9+YVjM8PGoW05cmGFaazIR1cbLakQKQ9eWk0oAcGFL0fFp9NE6E2tJ9YSBs6D67aKsvVu70xTcHA/CbUyC2XwwRuDAOF6ESnliIxOwyZJfUoKSyEXWN7egw9ahfGBYCGxzkwPIghmQbkkXBhoZeQrZ3CDwjgNaMjgGlmcaTrF/R565DYAKNyYRGbXMtY/PJuE2UOAgsobfSjmAs3OIvS0x/sdcXv5wIxJ4rD3HJNxb+jzIRl1Eq34Kx0BgxgOVOwUkNhpAZBY0pWgC/Ab3KJitc1XXv1oQUgKzfLhWAHApADK5q8n46EIElu0OweHuARBVeu8sH/zoaiD1XH+KyfxwCHmciKq0EWcXVMgBNN1hChqtM0iuJgNA20+Dy2waaTWFSdEGoCcO3N2gdQMFROVi93QMLdtyTMPwEJt9h7fEEWV107sAx/camza1JkE4APdJWHHwsWucS0TjvYNl2P6za4YMv9/th49l7cHKNlOWmwxLykVFUhfLaFrR19IDQZ5maD/Rrg/njy5nfrqfvBQqrO1DZ2I2BQQUha8FVAWj6bcK8PSsA2TmAGL5/9bEErDgUhcV7QrFw2x0Zo1m1wws/Hb0jJhu3kGTxdsorrRXXWbrIslGKUBvnyWTsSWsusjNluuGz2YuPzSiVSMif/HkbCzd7YeFWP3H1XLQ9GIt3hmDJ3lDREpYffCwz7AVQx7je0tjyCmPr9uhmLe7f1ViM107mej09/b4kWftHz4dEAjBpm5z1v2TPQyzaGYKF2++Aywws3Ogp3mjfHPTHn6eDceRmOJyDEvEgLg/phZUoq2kWV2YG3JQOwKthzcOMMdF0z7F3aJX8Vrw3t6INRwMKEJBQjbbufs3d+R33WktIO3I69gigtU65CH2Oif+qyidsK2udypE74Z0jCHXT28TU9wpA7xRUUy/cdwvB90zb5KlGt2c6Daw4HIUlex/ik63++HijB5ZtccPPxwJw1iMK92NykVNcg8bWLvS/eIG/Xo/g339prrTsSVvqPc+F8OAckuTccnEJvhmcgBO3H2Pr+RB8d8gPq7a5YekmVyze7I5Fm9yxYJMnPtnkjY83+2EBZ+HvCMaiXQ8kovJShno5EInlh6Kw4nAMVsiCZrGifRBaBATNXtSuuMKmDg59z/KUczzPzRRehveuPMItVtJdfjgayw5Ggc/TIHMPC7bdwcebffHxRi/JI/O6dLMbPt3lhfUng3DsVgRu303Eg9hcJOeU4WllI5rbuiTq88jISwnASS80o/fZVL4F59V09PTDPbIcq48nYLdHLrLL2sQkyu89lTTVPWMapn0C6G0QGaNLe3ruGyB6O4C0e3MfvqcMM5O3CkBmBWJ1aEw3fTPoMLbWgp0h+ITjBVu98OV+X2y/eB/OwYlIyC6TCYIdXc9lHgeFzqtXurfTWEOyKaEyrI0ZsefPUPwc46hv7pT3KCpvQGpeBSKSi3DncZaLMdwVAAAgAElEQVQ4P5zxjJYZ+DsvP8DmcyH4zSkYPxwJwFf7ffHpLm+s2u6J5du9xENv6VZvLNnqi8XbfGXtFIaNWbgtAAu2Bgg0CA7ZJKRMABZtDcDC0c0fi7b4YfFWXyzZ5gOmtWybF1Zs85TYZZ/v8cF3hwMEMJzAeeBGOJg3TuAk/Dlxs6SiCbWN7TJRkw4Z+rgNnWZ0E6e1wED49A8MIrmoBRtuZGLp4ThZHPFWRBlau/pEi7Kp726HGpl9A6gHV81kkTlgzCE0dv7Ne69WmeD1vAnbzdJ9HxmqADSNwnufgn6/a+mSq60lpA9WL9kTikXbA7F8mw++OuCHXVdC4XovBTHpT1Fe04yunufSw5WJgbp77bCNQsdM+FAI08ykCWbTJMfX2p6CdWBwUNaF4QRJzrZvautCdX0LSisbkVdSK5CKyyzFk5QihMbnIzAyG94P03HrbjKuBiSI594p9ygcd32CY7cf46DzI+y9Fja67b8eLhEAeM648Z6LvrFiKnO/nyrOACExuRK3jONnybkVoFmT5U9Nk2NohCjHbJhvfgvte2hLC/z/7J33V1TJ1vfvv/D89qz1/PTce+dOvu995t4ZFZUcJJjGMEEJKgZUFBRzHHUMYM4SBFQQMOeEYM455xxAFEQQs993fauppmmbJjY07Wat4pw+oc45VfvsT+1d+1TxOVUye/66AAOvl5OXj/Tsa+g4KQt+43ai+8x9iN1yAVfv5ILuOVu5U+vi/htDHo4GIK2TBu4rLqVJebeaNQBZ26fzrcrSoQA0JWEbnFUY9nY0zjBsQ/8CXUB+IzcrF487oRORpMJwI6JXYf7KLOw6eB5Xb91Tobcc3kQrbyqhxvAiV+ce+UwKUNpqKA2GMP+GpbCwUEV90ZJ6ll+AvLxn6ov+Rzl5ePDoibJC7j7Iwd0HjxXAbt17BJ1u33uEOw8eq33cr9P9hzl48PiJgnvuE8PQMgzSUEPKlEaY8f40OLVVY+izqd+64H08yHmGpTsuK1cK56wamXgMB87fw9Nnhm+BqlPucuyn9eeoADLtJzK1gqxBps3i23igsPWpdVQV8OhjHApAU+O3okXofNVpTSXOMGRDB3V1Oplr59PUBVv1pR7iPhP+Y7bBZ9g6NdowR7VtF5WIflPS1Eedm7JP4fzV2+rjQipkw/AnOmjg05flc1AgGk4KUNqKMlpSJlFjhFZp0lZJVZZlQ8wYXGYEjTFpa4ZLG1g01ak/ff3zN3IwOe0Ufp6YBf9xu9B3/kFsP3YbhsAG6QOqTplaOtZRAURd1WZNrsEKMglKqAhAFQGr6jqvTMc6DIAe5eZh+aaD6BgVD/e+sXDpu1QNU8Kh5Pl1P4eZ52ymlqa3rknB1fqc8Rx9gGN4bVGWDjvV3frFo01kvIqS4vcfhA5DcenWobKl0tQtf0sviGz7TEFcCsA7D/Ow/+w9zN9wHmHzD2DJlos4e/2xstgoPyIftSsDhwaQtmhM+nTKAFTqoTNb1DYAgTrUIQDEF4suGLpRdhw4jyUZ2Rgzfz2CxiTDp98iNXOgc594wwCNkenwHrq+NKSXEVEaSmVDoRgn4uLHgzqZD7pp6bc+1nypJvMyDHfDUQg41I37wJVw7puopq31HxCLvn+mYtayHdiYdVKF5D57xsg1HbVm6DsQBVI7BeLo5VdSXAS8e4V9Z+9h7LLjOHLxARhlR5egoz97fTyfAMiMQPxpYjHVpFHuMACiABp870Wqw/rOgxz15Xjm4fNI2XRQDdPDaKXAMcvAL839BibAs/9SFfnEr9DV0CdD1sFn2CY1GRdB4a8+ivw0ZFeH7lpaBozbYRhSZdRWeJcOGMm83QemqBEIOH7az0MS0f2PFIyavwFL1+5TobmXrt8F+xlMLZ36eKnkGo4DNbriXpcUI/PkHYxKOqZAxNEQBEB1U8efL4A+7ecp6wMCTPuNqgshhwIQlSkVOF+44uKyCCR2HD94lIsrN++r4WU27zmNZRsOYPbyTIxbuAnh0zLQdfRyNQZawKAktIpMgs/AZHgMSC4N2V0B94Gp8IhMqzBxP4e5cQtPhueAZHV+QGQS2g9JROBYDnezChOXbFaTdXEIfIYYsxP86bN8db/swBb3Wt0ois8VqgIg28qPQwOoGn1AGjLGfiMTt53eV9WlwwHIXPmUAcnQcc/fHJ4k71m+CpvlNyfs3D9y5hq27T8LDg2zZPUecFy0CUs2Y+istYiIXo2+kzPQe1I6ek9Ks5j6TclAZMwaDJ+zHhNjt2BOSqb6dmX7gbM4cvaqMVQ354lhKHzCpgw6tn1xzMtEfjtmeQuAbFuvjgqgioIKyvqAPrWACJgyK8jy/qpAyOEBZK5sNZB0yKwaX6s0tJcvML85UWG8T58hJzdPDY9y8+5D1S9z6sJNnLxw45N0+uINXLx+V1k0D3PykJv3VAGO0Ue8nrqWMXy4dGiVBo6cMi8X+W1b5VUf5SsAsm0dOiqAyr4DKg+SSgGkrSaxgGoveARF2fcmhrBd81BdHcpraWnpWO1SY971oYDkGp93OQuAbFv/jgYgU8uH8QTmUW3WAFRm/UgfUL0qd77k5kkUv21ffCnfqpWvAKhq5VRTeWrcALIQwWayyVIgQRmATA40X62F9UMX3Wfngqup8Ml5tn25pXxrX74CoNqXoTU5bJwAsj4atiXw6L6bygBkbjHp86qzFABJX0y9WpDWXnDZVzsFKgCqXflVJn+NEUDVgUFDHCsAEgAJgBxEBgRAAqCGgEhtrikAchDlU1nrTfbbVjnZQ/kKgGxbx2IBlY3hVhvomJ4rABIAiQXkIDIgABIAmSr3xrAuAHIQ5WMPLfDGcA9U0saQ+9KRsxkubzXZ0cjX1spYACQAagzQMb1HAZAAyGEtIIKGwzIZPjounZKhdDrywsIXapoCTh7HgV85JBJHx8h7akj8ze3cX/C8QA12q6bB4AgWenoHgkvBybaKzxp0TPcJgGxbD+KCExecwypLU0Ui6zVXJPpjYn4YTFCwLJ88fYabdx7i1MWb2HvsIjbvOYWUzYewKD3bOGPqpNgtGL9okxobkOMD8ve0hG2YmbxTTbPNKcE3Zp/EnqMXcOLCDVy//VBNk1H4giNdGMYd1B8eN1T9NWYAmVulrDvWoR4RvqKl/gCcdaDLnzJgizoQAAmAbCJYthBWybPmEKlJ2Wlrh0qYg88+evxEAWf97hNYkJaFMQs2ov+UdASNXo5Ow5LQNioJfoOS4BORDO+BhgFk3cOT4T7AkDgQrddAw6Cy/pHJaDs4ER2HJaLr6GXoOzkNo+ZvxLzU3ViXeQLHz1/H/Ue5aggnXl8rwpo8R23OaWwA0o0FWqgaGpxtlkNhcQ4sNZvt4yeqbO+p2Ww5o60h3X+YqwYY5tBXnKqdFiuHvuK0LFoWlFu1DicMFAAJgARA4jL8RAaowKi4HzzOVTDI2HYEfyzahOCxK9BuSCJ8IxLhHbECXoPS1eR/nA+q1fCN8B21BYZpN7arCQs5aWHA2B0q+Y/ZrqbV8Bu1TU1oyON9hq6Hd9RalY9nxAo1anq7qCQEjVmO0fM3IGXzYRw5cxX3HuUqRajcc/VYX40BQAoOaiDeYlVGBM2tu4/AcRazj17AxuxTahBfDuY7KW4rRs/fiKGz1yEiZhXCp6arRsSA6FUYMnMNRs5djwmxW9TAwQlr92PdrhPYdfAcjp69hqu37oNwYmOEIDKFXE0hLwASAH2ifGoqTHJe/VootipvTrjGvpvDp64qi6T3pFQERMTDtW8CXAakwjNqHXxHbkHAWE7RnqkmGGw3IRuGlIV2EwzJOPFg6WSCenvZsuwcTvXO/Jiv15C1cB2YCtd+S9EqPA7dx6dg1rKd2Hv8Eh7n5KG4dIxBWz2/ab72DCCjVVL0Qk0rf/nGPWzff1ZNTzJu4Ub0+XMlfhmepOrOJzwengM4V1cy3MOXqYkkXcOXw6X/MkMKX2aYJiV8mbJYPcMT4T0gAX4D4/Fz1FL0GJ+C4XPWYdbynViz8xhOnL+hYMSyIogIJNNyq+p6QwCoRbcY43A1bcbthGkHviOsSxBCPbZQqyroclzlcNTWxYVrd7AoPQtBo5fBPSwObgOWw3vYBjWZYBlwSme2VbPY1lErzmTWW17Hf+wOtBq2EW4DUuAeFovfRyZhzopdauT0Fy8KVT+RrevVXgFUUsK+uELcvPsIuw+dx9wVmeg1MQUBA2Ph0S9OwZvzaXlGrTFMCDmSlikt0B0IGLcTrcftQptxmaoBoSaBHJeptgWM26XKnVas78it8BmxGV5D1sM9Ig2u/ZPg3jcOrcJj8duIRDUX15pdx3H2ym08KyhQ9UEZqk6dNASAOkTNMAKo1dA1DgWggDFbjc9G0O6/FGdMvv2nG/f9pX3kEuMP04Nqu/761VusXrIXa+L34eG9XGOncXWEQo6tXFk7WhmxvyC/4Dn2n7iMiOh0uPVeCLfw5fAdvkkpprZ1CZo/qgOsLKUkfUduhhtnwA1boqZazzx0HgWqb6J6Cq+69WZvAKKCZ3DA3Yc5YF/cyLnr8HNUAlx6L4FL/2R4Ra2G36gtpXWmyzmrFkqW5xrObz1+F/xHb4fPsPVqMsmWvWPh3W8xwv5MRdL6Azh/9a6CD4MYqlrODQGgoXPnGnWva9/4WpSNLl/7WXpGpBifrcvoWUb4kCsCILGMqvxiVvUFrovjCJ/cJ0+xZe8Z1Yp2C4uDd9QatNYutmoBw3YvI+/HZ+g6uIcvRdCYZVi76wQ4GSEhURflYCkPewIQ64lh7HuPXcLYBRvQcWgiPMOT4DU4wwCdsYap7tuOt10dEEZtOHHa+F0IGL0NPkPXwmPgMrSOXKpmKF6z87gKZDC45AorrZeGANCKXYuMSpruKu9BaQ4BIb8RG9A0qMzKmZw8TwBk6aWWbbZTmNUtWyo1fr9z8OQVDJiWDpc+sWg1bAPYJ2OP/nDeF62hln3iEDI2GdnHLoJRXnyO6j57VY63JwA9fPwE6zNPIHT8Crj1jYPnoHT4j9pq6IdrEAu11DIauwPeQ9bCvX8SfhmWiEVpWco1WPjCPgFEa8DUCiKEPAYsQ9vxu+xS5qvyHnoPzoBTcJlr0dz6EQvIhq3UqigSOcYy9OjSufcwF3NTdsM7PE5FtNkrfExfRJ9h69Cy10JMTdiGW/ceOzSACFeGT7O/JXBUMlz7JaqIQ/bjaPeYadnU/7rBTUrXn0fECrSJTMCclF0qvLuy964hLCAq4+xzsaCSNu2wb9lzIXyHb2hUEGKfj2uf2HLPQVfbrtOx5awfAZAAyCYt9MpecGv7GUVF5Xbs3HVExKyGS/8kFS6totfsxO1WkTKlC6hl3yT0mrgSB09dUWVrCyuooS0gwzMV4sDJK+g9MRXOYfHwG7W1VEnWpm/HNhZuwJgdcAtfgbaRsQqY/J6IclaRHDYUgKiQqaSDx5WHEIHk3GuR3YMoYPQWuPVLKAce3jsDLDYeXvIJfARAAqAKX8KKXk5bb6dyo4Lduu8MgsetgEdEaqk7xzbKqSKY1Gx7FjwGpaPT0CQ1mgI/lqxuBFZVyrehAcS+FFo/8Wv3w7NfrHJ12XcDIUv1R7mGxauw7QvX7uJFoWGsQEvl3ZAAolJmmpW2AG6hZaHZ2ipqGTof7NSnsq+ZjNbte9R67HbVX0VA6ns0XY5cOFdZdvq5zJcShCAQsisIaYth7a7jynfvPjClkQEoA60jYpGx/SieE0A1/BbFkmLU2xoaQIx4u3TjHsYv3gyP/onwH7kVbSfUrWKrS+XKAAW6Bt0jViJ4zDLsP3kZBVb66OwBQFTUtBr6x8y2qNip5Jt3m6O+oWJfi//ITfUCJLrXfIetg8fA5SAMTWFjuk4rjoEV5sAx/y0AEgDZLYA6D0lQ7h3/0VRw9ufaMVeSrcfsgHO/JPgPWIR0BwYQx2s7du4Gwqetglv/RDW6hH30+1QMQX5X5B6RjvaD4rDz0Hnk5z+v0Dq1FwBpZb31+BIVoGD6saqpsjddpyVCNxgBQTCx/4jQMJfVyn7zPA0afijMfE0DCkyvabreZ8pspGcvrhQ8+tkEQAIguwVQp6hYNA2ZBa9BK9FGdW5XrGAqe6FsvZ/9Pz5Rq9A0ZDb8+s13eAAdOXMNfSalwrl3LPxGbrbzBkIWWo/bqfrn2gxcjB0Hzqnvyypyj9obgLSyZpDC4vULlFVkyT1nCoL6WicUQyfOVi5DS0EG+t4rWgqABEB2C6DOQ+LRNHgWXHovhs/gVUqJtOUwO3YVjJAJDp3Cr9ddwmLRJGgm/MMXIWP7MYd1wdECOnL2GnpPXAGnbnPgGZlm327S8ZnwG74ePwXPRZuBCxstgMyVOF1cY2LnKgC0iSj71saW8PHqM10FSfC68ZsXWu3fMb9fS78FQAIguwXQr8OTVHivW/8ktOi5AB4DV8B/9Bb7UHYTGOa7GwGjt8IrcqVyUbj3S4Rr/2VoHRHn+BaQAlAKmgTFoEXPhQrA9mel8gPVTPiN2KjGDPxPlxi0GeA4ADJX6LSQkrYtUtYIAcH+I4Z1myr5qsCJVg3PYz8O8/kjYZ7Kl65A82vW9rfpvclQPAKjBoeRaRDCryOWwXNQBlqP2Q638GQ07zEPLn3ilKuL22gJcRBRQ/+QrfuISq9T2hdFl47PkNVwDUtAi9D5qi+E98SPH9tExiN9m+MGISgL6Mw1hP25Ei17LYJz7yWqDLxVXe0wfAfUkH12WibG74LvsPXqQ+aWPRegRe94tI1Y4jAWUG2Vvz2cLwAS6DQ4dHR0F5flAZSsANR2QrZyv7Uatg7ufRPBj/MIIs/IVPiOWI+AsYRRZumI1xzNmjCqLZD0CNrZxv6N1mN3wHfERtUn5RIWr+6DHb4EEQMQ2k3cA68haz4fAE1OU6NVsw/IPTwJLUMXwK3vUlUenPKifAPB1v13ZQ0EWmLsROecT869FoJjq/kOXwf3QavRNiJWAGQyGGhDQ0gAJACyewBxSgXd76PG+oparYZY4WCXLfssUdYHAxV8h62F/6jNymJiUIAaf6xcn5EBTGVTL1gAlRruxzAiMy0av1Gb0WrYWngNTgNdgc59YlWLn+42Rhmp7zHUNbIMAIr6vADkPmAZWo/PVI0A78HpIJidey9WdcLy8Ru5CQS37rurG4u1tN44xQYbGuN3qyAVDgHEvjj3Acvh0jtWWT6cz0mHKHsMXiMWkB3Bh/ATAAmAGhWACCKG1BIOviM2wGuQAQwuYXFK4bC1y/G/GIbqGbkS3lEZSinRevIdvl6d4zdyo4rc4pJ5cDv3txqyRkGFfTrsbyJw+PEix6JjgIFbv6XwjkyF3/ANBsiZRea1m5htGDboc3HBTU4DAcT6UG5QTlcxcgsIIpaVgkBYnBrTjNvYQODQOLSOGLjB/hl+o2OwVnVjwNrSYEW1Gb9TQY39gQwuYPShR0SKuibh5xoWB8+BKwz1NFbPrZMFj8G0gMQF19BWj+n1BUACoEYHIIM1REVlgBEVGjua6QrzikxVAFIT1RFKYYaWMCGirJc+S+DMxBYypwso/c0lj3Hl8WGGie4IMn517jNklQJV6zHbjC15S98lfdYAUi5PAzwIJAZnqFGpIzhIaYJymbKviA0FuutYrmw8sM4If46aTGuJFqf/qC2laTMMjYWNqi/Hhw2EQenwjExR4GNjg3Wp6o0NjwHL4BOVAf8Rm9DGBDzaehYAlc3DYwqBhlwXAAmAGimATPoUdKdzKZDYuiaUqMjYF+AzdI2CCF1CbIlT8enkPThNWT2EDN03bFHzPNVKN536wXgNA/i0UjNdCoDM6kRPkTBmG3yHb4Q3LZUBy+HWL1GBiNaKc28GMSw2gkRZsrQ6VWIDgg0GNiLYaFisog0NwFmqgMN65AeTrLPyM4l+Wk8CIAGQTEgnwLMKPEtBCKZ9QKYKv8L1UlgY+nqyQTAY0h7VT8NggU9T6TFqGu+yDu0Kr2HhWyQBkAmAjOVjKEs9PTrLk3Mo0UKixUP3p0/UamXZqEZBZKoKLvEsXdIdykYD3WwKNCM2quke2K9EFx4DVPS065asUtP6EwAJgARAAiDbA8io/CwpRNttEwBVpWzNogtVxCLP4wfGFSWdb9m5NYl0FAAJgARAAiABUC1loKEHIzV+B2QahFDrsHcNGdstBUACIAFQLZWP6TczjrheOxecoRPcGFVl2m+j12uyrKJFJRZQDeFRkzqxdE4lEBQACYAEQAIgG1lA7GvgR6OGZOxzMNmm91V/+WmHtmnfgl63BiBaLXXVYHA4C4h1NLGs7qpfPybnWmksCIAEQAKgOlREdaXQ7CmfGllAE7IRMHwtvMMWwzt0rkpePefCq8d8ePeYV7ptHrzVb24zSaGl29XS8jF+kSvLwq+tKDhLAHpZzAn2ihR8nj8vrBMIOQyAJmYhYORGePdaUFZHPefBu+c8eJUm757z4R06H1x6MZWrO5N67DEfPn3iwAnSDN8WfWqNCYAEQAIgAZBVJVwTADGirVX/eLT07wsnt65wcg1EM9cgNHMJgZNrUGkKhpMrf4fAyaVbaQpRxxm3OXeDk4XkFTjdACC6faoIoFU7jqK4+IWac+b63Sc4cO4+btzPA4HEaQBqk14WFeHtq5fYfeoORiUdw76z9wwjbxcZQGeLBgVnd2W+L4tf4M2rlzh29hrCatkH1G7SXvgNSkVzrx5wcmG9BcHJLQhO7kFo7m6otyYtu6FJ8x5o0qI7mrqEoLlbSFkdsR6duxtSixA4+0YiwMrUEAIgAZAASABkGwCFL4Vz64Fo7hGC5h7d4OTeHU7uPdDcs7sheXRHc53ce6CZa3f85BKCpq7d4OTWA83dQg3JtXRp8tsreGbVATRkDVpHxiNxw0Ecv/wQKbuvYmjCUQyNP4bdp+7i8ZN8PHryDA9za5eePCvAxkM3MCLxmIIb4VDysljNwMpZWOsylRQX4UleAXaduINNh27i5oOn2H/iCsL+NBkJoZL+F0vgVgAavBItWvVCc/dgVW/NPbup+nLzC4FP+2D4tA+Cb4dg+PwcAq92wfAICEZz8zpiXbn0gHPAYASomUEtNxQEQAIgAZAAyEYASoRL6wg09wwxJILI3aDMFITcDQBy8uyOZm7d0NytJzr8PgzBvf6Ab/sINHfX4CGMdDJsqw6AvIesge+AOAxdsAOjk46j0+QsuI/Yjt+n7cHizRex9egtbD1yC1tqmXYcv425689jaPxRbDlyExdu5uDS7RxcvFX36fLtXBy9+ACTU0/ht6l7MDLxOCYkHcKvY9LVEDhqKJ7aAMinF5q7GQDk5N4NLbxC0DG0M4ZO98OfS70QvcITk5O8MGK2DwIHtENLz+5wculZ1mhQdScAasgRDWp6bRkJQYBgFQi2cOdYy7PGLrhwAijSBECETDc0LwUPl7SKmrl3h7t/GAZGzcDmbQeQumoHuvYYp6wgJ1eDJUSLyMktVCVaRtUFkH9EHGam7MXKrCsYk3wCXabtRdjcg1h/4AYu3sxRsDh/Iwe1SZdu5yLz5F3EbbmItOyrKm/mb4u04eANrNx9FYNij8Br1A60m7Abv0/ORMDwVfAalF7j+ZnMLSAnt25o4RmMjj06Y9xiL8xZ2xLJ+5oh9WhTJO9vhgWbWmJighe69vsdzp4mVqsCUHc4+w8SC8jOBhutDEwCIAGQgwBoKVza0ALqZnDleBA+dMV1UxZPE5cQ/NgyGFz26j8Jh46cRX7BCyQu34SADpH4ybkbmhFARkuI1k8P5e7xCp5VdRecyWjYT54W4Ob9PGw9ehsrMq/g7PXHKCoyRMMVvniB2iRCPL+gULn06M57kGO79Cg3H5dv5WLOunPoNecAoledxcy0I+gyJhWeA5eXAsiy28uS601vMwLItxec3EPQ1KUbvNt3wdAZPojb2QLzNzgjaY8Tlh9yQuKeFli4xRWLt7pjYnwA/Duzjy8UzZxLLVdXAqjUBVdBX5244MQFJy44AZ5V4NXcAloKl7YD0dzL0Aek+oE8QtDUPRgu3qHwbtMXnq3DVBo7cSHOnb+KA4fPYMTYBWjbOQruvmFo7t5DWUkaPM0JJNeeqAmAMrYfxYuiF3hVUowXLwqRk5ePvKcFCkCMYiOIapVeGAIc2D/DwAZbppKXRch7VoCD5+8j89Rd3H38DAdPXUXY5JVlo2HXxgXn1wvOrYLhFhCEtoG/YPisVpi1yh3T07wwI80TM9M9MWOlJ6anemFmujfGL/ZHp+6/w8O/G1y82WhgEEN3OAeIBVSZxWFv+8UCEiBYBYI1d5kt9tUGQM5tSgHk2Q1OHiFwcg9G1x4jMWdhKlav34l1m3Zj+crNWJG2Bdt3HcTuPceQtfc4MncfQULSBvSLmAaPgL5o5ta9tH/B4OapjgvOy8QCel5YqIIBCBpGvWnrxxblZus8C18UKouN9cMouKN1FAXnO2glXFv3RJf+HTB4WgAGTAzAqLl+mJ7aCtNTfRHDlOKHmBW+Kk1P8cW4RW3Qb2wnDJ32M7oP+hUefoyMM7GAKoChWEBiAYkFJMCzCrzaAMilFEBOnt3Q0rsHuvUeh127D6Ok5BX034cPH5CfX6iiut6+fac3o7j4FdZv2oNfAkcqdxxdcewTYvKsThScBQDZGg71lb+y3F7QqnuJI5ySuw7CsFtFpMGjQ3cMjm6FRVtbImalM+aub4mUIy2Qcri5xbRoizsmJfgidpsbRs8NgF/HrmhmCiBxwcHeLJ2K7kcsIAGCVSDUl3LT16kNgGgBOXmGoJlnCNr8Eonk1M14+bIMPkbaWFi5efshps9eAe+AcBWibQSQiwBI141e1iWAfAignwkgH8zf3BzTVrbAnHVOWHG4KVYc0qkJVhzSqSkWbXbBxHhvLNriglFz/eHXMRDNWppYQAIgAZAp8V6/eovVS/ZiTfw+sYAEeFaBVzsARcDJIxjNPILRvd94HJ0/E6oAACAASURBVDxyxgJqPt30+s1bbNi8F526jlAd4exTUMEI7ANy6VGtKDhLLjituB1lWZcAogXk2aE7omJ8sGCLBlBzrDjUzCRpEHHZzAigxVtdMHqeP/w6lVpAfoMRMGKTYXZWCx8MiwtOXHACIAGQ7QDUdiCaeQYpK6jvoCk4c+7Kp7SxsOV5YREWxq6CW6s+aOrS3QAfRsMRRG4E0IwaRcHpPiBHAY9+jroGkEf77oic6oV5G5th6gonZQGlHDYFENdLIXS4KRZuccaEOB8s2OiK4bMD4EsLSLvgBECNxvqhkSIuOAGCVSBopVNfy9pYQIyCc1IACkbvgX/i2KmLFnDz6abi4hIsT90C33YD8JMzgxcIn1IAufeAV4gAyLT+6xJADEJwCeiBruGtMTjGA0Omu2H2mubq2x/lhjvcDIRRSqlLLvVIMyze6owhMf4YGhOAboM6qmi4ZhIF16jAoz1kAiABkMMAyLnNADh5BqOZZzB+6z4CO3YfxMePHz4ljtmWjx8+4sKlm5g4LR7ebQeo74EMH6IaQnwFQOVH8q5LAPkNXomWfj3h3Kor3Nt2QYfQDpiY4I6kvc2x/GAzJO9zwtKs5kja64TlB5oheU9zzEjnx6id4dk6GK6tuqOFB4NFusO5tYRha8XeWJYCIAGQwwDIYAEZ+oB8f+6H+KS1eFlcYoYbyz/fvXuvIDTqj0Vo5tYDTRkBxw9RlQVUjbHgHDgKTltBdQ2gFr690MwjBM08usGtdSB+DeuIkXP8EJ/pjBmrXNWHqVOWuSJulxMmxnugS79f4Nk6RNUT60pZq27yHVBjgY7pfQqABEAOAyBaQM29gpUV1MKnO8KjpuLCxRuWifPJ1o+4dv0ORv+xEE1cu6GZ+ihV9wEJgDR8uKxbAKWihW9PNPcMUh8RO3mFoKVPCIIG/orF29wxPs4Tv/RpjyEzvLBwqxMGTPQtHWy2dKBZjx5oziQAEhecKdlM1yUKrrwLw/RllvXyZVObPiDn0pEQVCi2RzDcA3phYXyGGnLnE96YbcjLy1cfqf78a5QarkcpNR2EECIAMpVTWwKIg8k6eXXDL727YGaGN4bP9kX74E4In9gKMzJaoOeIADWen7J81OjmBitVAGR/EW6mDKhoXSwgsYAcxgKiC66Fd4gaTZl9QU3cA9ExcAhWrt6Ohw9zUVT0Ek+e5OPmrfu4dvMecnKfofhlCXKePMXq9ZkI7jVWTdnA8eMMrWpxwZmCR6/bBEBeQWjuHWJIXt3g3aErggd3QOdeneHRuivaBXVEcGQb+P/+i2GqjVL3qCFknkMmiQuuIiVvz9sFQAIghwKQGgvOqMhC0NQjCB0CB2PqjKWIT16LKTMS0G/QVPQOn4SJ02KRsGw9omcn4bduI+Ck5hEywIdzCXH0bILISyygcjJSpwCKSkULP7rggtHcq5thLL/S+nPikmP7eXUDR7dQwytxsFnWi0p0v5XO80QXHEfDljDsRuWKEwAJgMopF93Kbahl7VxwA9DcO9ikJR1iiIrzCEKLVt3h7NtDKbSfXALxo3NXNHMPhrNPqBpBuylnSuUYcOojVMLHACAuPQVA5WSkbgGUgha+hEsXOHkEwsk90Lhs5haIZuq3YZZUznKrZkx1CYSTSxCcXIINvzmLqksgWvoNlOkYZDqGT32R0gdUvp+joZR7Y7hujQE0YClc2n0KILp1nLwMkXEcGZujJBha0oyiCkZTlyA0dQ1W0zYYW9VG+BhmS5Wx4MrLb90BaA/8h2bAtWMUnNsNhHPbSDi3KU1tI8A+Ped2XEaW7ouAc+tINfOtYRlhOJ7bAgbCrfNYBIzagrYyGGmjsYLEAhILqFzrtqEhVXMAJcClbX+0YF+CaWJ0FZMHZ9wMNrh6lLuHv4MMU0G7lS7dS2dRZR8Q191C4OTaDZ4yEkI5GakrALWdkIU2Y7fDLyoDflFp8BucDr+odMNSraeV/uY+vc79pevq2NJ9g9LgP2Q12ozbVeEEeTIUz6fGQUP3DwmABEDllEujBNCEbPCDRo+gSXDrPAJunUfCrdNItXTtPAKunUbCtROXet2wX23vOBKuHUqTWh8F146jSrdxOQo+YbGGoXgqaFkbJ1ibmI3Payy49FrNB6TLTVksHEBUJ5azXjdfqjow2a9/G5e7UZZv+XUBkABIxoIT4FkFnraANmSdRNdRy+ERmVbh4JJGRVPakg4YsQ7+w1Yb0tDV8K8o8RjjvjWq5czWszFx3xBuN+xrPWpzhUrNeA8c/HJCFjwHrcLPUQlYs+s4CkvnA2poqNf19UteFuPUhZsYNGMtPMKT0XrsjgrdXuXKx8IAofW1v80fmfAYlIFOQxOw+/AF5BcUqDmaLJXNy5Ji3Lz6AKnzdmNr6tFG485qaGumJtcXC0iAYBUIll5QW24zzBJahH0nLqPv5HS4DViO1uN2ou2E8q3ZTxUXW8XZaKfTxGy0qyjxmIr2WdiuWuNVUZ7jM+EanoKQscuVkiOANFBtWWb1nXdxcRFu3HmI6MQdcO+XAN8Rhn6XNlUpowY6pvXYnXAPX44+f6bi2Lnr4ECxFdWNAKj+LCUBkADIrgBEZUoFd/XWfYxftBkuYXHwHbGxciuogRRbGQiz4D96G5xCl2DozDW4cO2uccrt+gaEra9Hxf30WT4ydhyF38BYuA9MQ+vxbCBkVc1SrMe6IhSZfIZugFvvRZiasE3B01oZCYAEQHanFK0JrOwrHyVV2/Lg9NXPnz/H5j2n8fvIJLQMS0TAmB32C6EJWWg9bgec+ycjYOAirNlxHPn5Fbt4als+9nA+6+jKzXuYFLtZKXavwWtKO//tCELsP/ojE62GbYRznziE/rECx85eR0HBc3B214rKUQAkAKpQOCoSGtle8QvVGMuGrey7D3KQsHYf2g6Kg0v/ZPiO3KJas5W74ypz19XV/ix1P36jtsB9wAr4hS/B3BWZuHP/sbJ+GmO5V/WeWT8F+c+VO2vEnHVwD1sMj4iVygpUrjil/OuqnKubjwGCAWN3wHvIGnj0T0CP8cuxZe8ZPMsvsAofPr8ASAAkALLSQquqkmjsx7EP5ebdR1i28aCyhNz6JcArajUCRm9DG6PLpyFa3KUKbsx2eFHBhSfhl+FJiF21B7fuPlLBB4297Kt2/4XKmjh75Tail25HhyFL4RmepOrIb9RWE4uoPuqI1yitl7E74TN0PdzZfzhoKUbOXY/dRy7g6bOCKukVAZAAqEqCUrWXxLEsg8/tmdnSzsl9ik3ZpzEoZjUCIuLhHp4MnyFrETB6e4XffJT1zVS39Wz9+DbjM8GWtc+wdSoE2S8iAQOmZSBjxzE8ePwEjBD7nOqI9UN33O37j5G+/Qiipq9GQGQC3PonwnNwBvxGbkbrsbsMlqux76eugZSJ1uN2KevLZ+gaFWzgHZ6AnhNSsTg9G6cv31JBB+xbrErdCIAEQFUSlKoIkxzT+AFMxUG//aXrd7Fi0yFExKxCuyi2thOV28dn2AalfBgtZ7CMNETKWsVVB1LpOSYuJCq3gDHb0Wr4RngOSoN7+FK0iVyK/lPSsXTtfpy+dAtP8/NV8MTnKG+MXDTUUQHOX7uDtC1HMHLeBvw2Ihk+4fEqVNtzUAZ8hq2H38gtKmybIDemKoJJBxS0Hk/g7IT/6K1oNWKjsrg8Bq6AZ/+laB+VgH6T07E4Yw+OnrmGx7lPVbQbIVnVuhEACYCqLCxVFSo5rnGDiC3t169eorDwBS5eu4s1O45hwuJN+G34UniELYFr3wS4hS+D5+BV8Bm+Eb6jtyFg7E7V+qbCUsruj8zSKC0NJkNLnN+IcH/rcYaWNM/zG70dPsM3qfzcBqyAW9+l8Oi7RH1HMnreOqRvPYLzV+6goKBAzY9T1da1I8shlXxJyUvVx8J+sD3HLmJJRjYGT89AxyHx8Oq7GG5hcXDrlwiWqUdkuvpw13vYBrQasUn18fmO2qrK3m/0DnCdqdXIzapOvYasA0HmNjAFbv2T4do3XtV9m4g49J6YiuiErdiUfQoXr99TQSAcseFlDSxSAZAASAAkfUAWZYAgellchMIXhcrlRetj9Y5jmBK3Ff0mp+HXEUkIiIyHZ/9YuPeNh3v/JBUg4DZwJdwiVsItMh1ukRlwi1xVukxX290HrlTHufdPVud59lsC/4Fx6DwsEWGTVuLPuC1I33YYx89fx/1HOXhe+Fwpt+Kixg12WwCRdURX5MviYtXpf/veI5y8cANb9p7CgpW7waCFXhNSEDh6GToPT0K7wQnKteo7IA7e4bFg2Xv2XQKv/rHgNv+IeLQZlICOQ5PQZVQyevyxApHRGZietEM1RA6duowrN++raTVojfHa1bF4zMtAACQAsqh8zAVFfn++yk/1PRQXKdfP8+eFyH3yFNfvPMTBU1exfvcJLF27D7OW78Ifizdh0PTV6Ds5DaETUhA8djm6jEzCbyMSVWBD0JhlCP0jBX2npKnjxi3ciFnLdiJ+zV6s2Xkc+09cVt8kcc6ggufP1fUIQCo6kT/rZaA/KmZ5EUYsr7xn+arhcOP2Q5y5dBN7j1/C5r2nsWbXMWVVrth0EEnr9yNx3T4s33gQK7ceVg2MjVknkXn4PI6fu67q4/7DHFXnrHtan8yfS8pFbetFACQAqrUQ1VYI5XzrysVeyoffc2irSLvBCIqnT/PxKDcPt+89xuUb95S77Mzl22oImRPnbyhFdvz8DfX7zKVbqu+Cx9269wiPcvLUh5bsdyrkh7GlVheX1r4fsZcysdf70I0GA5AMEGf5Fjw3RNPRnckwaZ34LVV+wXPV/8fvwtTIEub1wTqp48aAAEgAJAASF1yNZEApOUZmlVpH5ZYVbbd0LLcp5Vb7FrW9AqGh70s3HljOKlVUDyZ1UdewsVQGAiABUI2UjyVhkm2Nw5KxZT0ZFB0tJSuJlpRAX947+RC1XgdflbHgROmI0hEZEBkwkQGxgMQCkhfC5IWwpXUgeYuFKDJQXgYEQAIgAZAASGRAZKBBZEAAJABqEMGTlmD5lqCUh5TH5ygDAiABkABIWr8iAyIDDSIDAiABUIMI3ufY2pNnFitHZKC8DAiABEACIGn9igyIDDSIDAiABEANInjSEizfEvycy6O4uBgvX76sk6FdPudybIzPLgASAAmApPVrMxkgXF69eoU3b97g7du3allSUlIONhwWJj8/v8LJ5Qgn5sFlbZQsR27QqaJ8eG+8T51ev34NPkNFx9fHdt4z74tlwHVes7LnqI/7qotrCIAEQA36ctWFEEse9mlNUXETLvfu3cOFCxdw+vRpXLx4EQ8ePDCMNVZUpJZbt25FYmIiLl26ZFSuuk6paB8/fowbN27g4cOHFUJKH1+bJcc/472eO3dO3evZs2fVdZ89e2ZU/LXJvybn8vl5/du3b6vE8qxJPvZ6jgBIAORQAm2vL9rndF+6dU5gbNiwAYMGDULHjh3h5+eHn3/+GaNGjcLu3bvx9OlTBZSJEyfil19+QVZWllL0BBfzYJmx5Z+dnY2YmBhs27ZNWUo6f9Olefma7tPrN2/eRGZmJi5fvvyJBcFr5uTkIDo6Gq6urvDy8oK/vz969OiBFStWKGgyH15H56eXptfW28yXlo4xfU69X5+n99Hqu3r1KhYvXowFCxaoeySQ9+3bp0DJgUN5rOn5+lzmpbdzqfM2X1o6xnSbLdcFQAKgckJqS2GTvO3TUqnreqECfPLkCdLT09GuXTu0bt0aY8eOxeTJkzFgwAB4e3sjMDBQgYXXHj16NNq0aaPgYOpuo6JkXufPn8emTZtw6tQpZVFxG48jnJi4zm36Obiu9+kl3Vc7duzA77//jpUrV6pzeJ4+h8cRUMHBwfj3v/+NqKgojBs3ToHT19dXgVTfj85TL7md+XBpel96P7fpYyzdm+l9mO7ndv6mVbZr1y51/wTOyZMn0b9/fyxZskRBnM/G6/NY0+vr82nZcb/ex6Xex3N4b/oY/mbS5WLrpQBIAFRvwmZrYZb8Gx5wVGZMx44dU9YDFf7BgweVgqNiY+t96dKlysIglKhQx48fDx8fH0ydOhWzZ89WSwInNzcX7IOhS2z9+vVK8fJ45kFriEBjWrdunXJP8bpUrLdu3UJKSgpoWdGi2bx5Mw4cOKAssb/97W9o27atsqh4X9qCICyuX7+Obt26oVevXioP9gOlpaXB09MTc+fOVe8JrSRaUdOnT8ekSZOwatUqBQieT4DRnUirj5Djfj7P8ePH1XV4f3fu3FH7ed9jxoxRrke6J3kfdLURLgsXLlTwYx58Fg2gnTt3KuuN5fXPf/4TrVq1woQJExSYCHze/7Jly9S5zJ/3Qdcd3wtafRkZGaqsFi1ahPj4eLWf98/zeG+EECHP8+gqrY/3SQAkAKoXQasPYZZr2AeAqMhWr16tLB+6zt6/f6/AoFvg7AsKCQlR6e7du0pREwwtWrRQ7i8qV7rBqIAJgeXLlytoUDFTyVN5Uvm2bNlSJcKLgGDfEpU1LZdvv/1WWTL/+c9/1HUIgvbt2+O//uu/8MUXXyhXIJUv+1T0fbGfiQDy8PDAnDlzFBxoaXTq1ElZIAQir02rztnZWV2bx/IZCQ+6EAk3WlC0mpo3b66uxTzPnDmj+pMIrmbNmuGHH35AkyZN1LH9+vVTwKbyHzx4MJycnNC0aVN06NABGzduVADv3bs3evbsqVyXXbt2xX//93/jr3/9q7oOy4WADQ8PV/n++OOPKl8XFxcFYZYxwcj74j6WG12LdIXSGqV7j2Xw6NEjdTzz379/v9pGMNnyvRIACYBsKmC2FF7Ju+GBY14HVFhU6oQGXW/styCAeBz30QqiS61v374KDGx901KhYpw2bRqOHj0KtvSDgoLUfrbgac2wD4l5UZH+9ttvCgrJyckKCOw/oqVFF9uaNWsUnGhd0PKgImV/E1v0vCcCY8aMGbh27ZrqT9H3RQuGACIY/+d//kcp6++//17Bggqaxx06dEhdm9ej0k9KSkKXLl2UhcR9BBBdiYQQLTgGVfA49ifR6qBLkueyT+zw4cO4cuWKspACAgIUQPlsdAHy2QlwnQeP7dOnj7LMeI/bt29H586dleVI65BQnj9/vrpXlhGDJwgkwoz3wnJh3j/99JMCLK1HPj+t1MjISOUOZR579+5VkJsyZQru37+v3Jjm9VvXvwVAAiABkIRh15kMaFcOQUDFSlcQQ7B1fwj7K44cOQK2ssPCwpQ7jS4lWicMNnj37p1yBVEJEmB0SaWmpirgzJs3T7mY2IL/17/+pawYHkNrgcENVPCzZs1SFgrBQ/DRgqIbj4nWBI8niPhb951QqWoXXPfu3VWwBMHx559/qnzpSmOYOM+nVUHrhc9G2FCpu7u7KwuJAKLVQsVPCPOPlg/hSWtj5syZ6rnp4uJ98e/EiRMIDQ1VEOY6n5WAYuKzEDAsLw0ggoFgpVVF6NB1x2APWn20zAgW5k3QszwIZroRee9ubm7KssvLy1N1QquNARYEJK1BwosAJvi0a7KugWOenwBIAFRnysdcuOS3/Vkotq4TbeVQaVKZUwGyz4SKk303tArohqKLim4x3g+VJ5U4wcA+EiptBivQuqBC1QCiwqVS5blU/rRk6P7i+bQwqJjZMU+Fyn4muuRoQTGKjO4zKmH25/D6vB9G4enyMAUQ3VO8T+0eZDQc4UJLguu0Kmi18fq0tJgf75PHEAJU4rRCqOip/Bn9R/jw3ggorvM5eX0qflpFzIvXJHBZXuwPo3uMfVh79uwB3XTsm6KLkZbLr7/+qgI7aEEyEZaEI60bAon3w/ui+5B9YHx2ljFdlSwLwpd1pWFGy4tuvpEjR6qQebrkdNnYcikAEgDVi6DZUoglb/sCHRUbYcPWNS0OAoH9E0OGDFHKmf03bOGzL4jHUol/+eWXygpinwtdbOxjoVJmS5750IrQkGE+hBDz4Dr7RggiutnorqLSZf8LlTYtB0bZcTvdZIQB+1gILVpcuqWvAUT3FyP0aHlwG2FA6AwbNkx10A8fPlxBhs/DbYQVgykIFIKCx9J1x+2EKKFAYNEi4/UJEW7jkvevgUW3IwFG64nbuZ99YgQR75PPQauHUCRQeY/sS+Lz013HAAOWMy0zXpcwIaSZF8FGADE/Qp+BFAQMy5brtHy++uorBWf2uzGggfvq470SAAmA6kXQ6kOY5Rr2AyKt3OjOiYiIUK4sKme2tKnwGPml64uAoWKnm4oWEwFCoLC/g3+0emg5sC+GrXeCi24xut2o3AktKmF2ohMotALo1uL1aCnQ4qASprLlB69U+uyDIlw0gHi/tIp4LMFHq4JKmttoNRBYtD5ondGyYL68NsHA+6OLjgDiNrq6eE8EAJ+XUXq0dngMv98ZMWKEAgVhQYgRPLSWCD1GtTEPuiTphuQ23jvdj4QHn5HuPVpOhBCtLV6fYGJZ834IZ94fn4OBDSxnwm/o0KEqwo33wufV1ir7fghlgp/Pp/fp+rHlUgAkADIqAlsKmuRtP3Cor7qgIqMVwcR1Jip1/uaSCpD3wu10CenjuI+/CQeCgBYMYcIQYypf02N1njo/5mnpmtxuvk9f37Q8mI/Oi9v1ObwO17lP36fptdl3xWAHwmPgwIEqKo79TPpeeK7Oy/R88/3Mn/kycZ++Fy6ZTO9J58N8ebx5uZier6/N4/TzchvXGaBAaNHFScDzPH2MrZcCIAFQvQmbrYVZ8rc/yFHJaQWpFatWfLq+9DGmx1HZ0vpgK54h2VTqjJBjiLc+3jQ/0zwt7Te9Fs/Tx+jtemlpu/k2/ja/NgMt6Gajm4wuRVoZBIK+ls6fS/Pzq7KvsnvQ+VaWN/fr63GdFhUtK0bVsT9Il68+xtZLAZAAyCiQthY2yd/+AGHPdUK3FN1DdDexc56/7fV+CRq6wWgFsb+JlpqpsrfX+2aZ8oNcjrTAvp/6vk8BkACo3oWuvoVcrtd4wUfFbupKsue6JHBMXWX2fK+m98Yy5n03BDAFQAIgAZB8B2S3MkCl2BCK0VRBV2e9sd0vn60h71kAJACyW+VTnRdfjm28Vo7U3edbdwIgAZAASCwgkQGRgQaRAQGQAKhBBE9avZ9vq1fqXupey4AASAAkAJLWr8iAyECDyIAASADUIIKnW0CylNawyMDnKwMCIAGQAEhavyIDIgMNIgMCIAFQgwietHo/31av1L3UvZYBAZAASAAkrV+RAZGBBpEBAZAAqEEET7eAZCmtYZGBz1cGBEACIAGQtH5FBkQGGkQGBEACoAYRPGn1fr6tXql7qXstAwIgAZAASFq/IgMiAw0iAwIgAVCDCJ5uAclSWsMiA5+vDAiABEACIGn9igyIDDSIDAiABEANInjS6v18W71S91L3WgYEQAIgAZC0fkUGRAYaRAYEQAKgBhE83QKSpbSGRQY+XxkQAAmABEDS+hUZEBloEBkQAAmAGkTwpNX7+bZ6pe6l7rUMCIAEQAIgaf2KDIgMNIgMCIAEQA0ieLoFJEtpDYsMfL4yIAASAAmApPUrMiAy0CAyIAByYAA9uv8EJSUvUVRUJEnKQGRAZMDuZKDk1UvcuvYAqfN2Y2vqUey/VH8K+XO7lm//6WgaGK3SX9pHLjH+qMuCeP3qLVYt3ou18fvw6H4uSkqKUVT0QpKUgciAyIDdyQAbyEYApQiA6pIF5nnVC4DevDYAaOH4DdiQfAA7Vx/DjoyjkqQMRAYaQAa2ZxwF0641J7B303kc3HoJB7dellRaBoe3X8HOtNNYFrMHhzZfEwvIhhZgvQDow/sPOLX/OlYv2Yvls3Zh+axMSVIGIgMNJgO7sHLeHiyN3oLIbpPwq18YOnqHSiotgw5q2ROB7fthyIAxAqDGDiAAePvmHV4WvUJxYQmKC7mUJGUgMtAQMvDm1XucO30BvXr1xn9+/AH//Nd3+O6fX0syK4Nvv/8aX379DwFQYweQud9Pfle9UzNp2yJjv5zurKtsyXOkjKtexlJWUlYiAw0jA/XigpPKrXnlCoBqXnYid1J2IgP2LQMCIBual3Uh/KYAChq9DGeu5FhM3KctI7GA7Pulqwu5kDykjh1BBgRAAiBx19m5DDiCopFnEGBakgEBkJ0rH7GA5MW19OLKNpELR5ABAZAASCwgO5cBR1A08gwCTEsyIACyc+UjFpC8uJZeXNkmcuEIMiAAEgCJBWTnMuAIikaeQYBpSQYEQHaufMQCkhfX0osr20QuHEEGBEACILGA7FwGHEHRyDMIMC3JgADIzpWPWEDy4lp6cWWbyIUjyIAASAAkFpCdy4AjKBp5BgGmJRkQANm58hELSF5cSy+ubBO5cAQZEAAJgMQCsnMZcARFI88gwLQkAwIgO1c+YgHJi2vpxZVtIheOIAMCIAGQWEB2LgOOoGjkGQSYlmRAAGTnykcsIHlxLb24sk3kwhFkQAAkABILyM5lwBEUjTyDANOSDAiA7Fz5iAUkL66lF1e2iVw4ggwIgARAYgHZuQw4gqKRZxBgWpIBAZCdKx+xgOTFtfTiyjaRC0eQAQGQAEgsIDuXAUdQNPIMAkxLMiAAsnPlIxaQvLiWXlzZJnLhCDIgABIAiQVk5zLgCIpGnkGAaUkGBEB2rnzEApIX19KLK9tELhxBBgRAAiCxgOxcBhxB0cgzCDAtyYAAyM6Vj1hA8uJaenFlm8iFI8iAAEgAJBaQncuAIygaeQYBpiUZEADZufIRC0heXEsvrmwTuXAEGRAACYDEArJzGXAERSPPIMC0JAMCIDtXPmIByYtr6cWVbSIXjiADAiABkFhAdi4DjqBo5BkEmJZkQABk58pHLCB5cS29uLJN5MIRZEAAJAASC8jOZcARFI08gwDTkgwIgOxc+YgFJC+upRdXtolcOIIMCIAEQGIB2bkMOIKikWcQYFqSAQGQnSsfsYDkxbX04so2kQtHkAEBkABILCA75OnalAAAIABJREFUlwEqmrr4e//+PV6/fo23b9+C6yUlJXj16pVa5++XL1+qbTyG6zzu3bt3xiW3FxUVqXPq4n4cQYHKM9SuISAAsnPlIxZQ7QTcURSEBsSbN2+MwOA2AoJLgoH7+Pfx40cFDQKD2/QxXCdwCJfi4mIFI3PYcDvzInyYD8/leTrxfIKL5zFpgHGd53z48MG4ndt4b/o+uV8fw+McpW7kOWr+jgqABECiCOxcBqjgNDyo8KnEqdTN/0y3ETIEgLZgeD7P47bCwkI8f/5crXMb8+RxTFznsQTRo0ePjMdxG8Hz4sULtY+/mReXhAmXTDoPvY8w4zn8zWvp4/hbFHfNFbejlJ0AyM6Vj1hA8pJS2RAoBAwVOJdXr15FYmIiEhISMGfOHCxZsgTR0dFITU3F3bt3jVaHhhKXhANhwUQYMHG7XicUuI9/ly5dwqJFi3Dw4EEFHJ7L47jkcUxc533l5+crcOntGoy0oLhfu+1M74WgcxQlKs9R83dUACQAEkVg5zJABUfrQ0OACn7lypX46aefEBgYiE6dOqllhw4dMGrUKJw9e9YIK1o6Dx8+VMDgeYRBXl6eEUKEBy0Ubb3o9X379qFz585ISkpS+3lubm6uyovHEFQETnZ2NpYuXYozZ86o38yHFtadO3fUkucRRNptx336fkRx11xxO0rZCYDsXPmIBSQvKZUNrQfdJ0OlPn/+fLi7u+PYsWNK2d+/fx8XL14El8+ePVMQyszMxObNmzFjxgxkZWXhxo0bWLVqFWbPnq3Oe/r0qdp+8uRJZakw3z179oDw4fLnn3/GihUrwOMuXLiAhQsXYtKkSVi/fr2yegiyqKgoNGnSRFlLhMu1a9cUkKZOnaqu9eDBA2UdnT9/Htu3b0dKSgrS0tIUnBxFicpz1PwdFQAJgMQCsnMZoILTFgqtIP7NnTsXnp6euHz5sgIOrZNbt24pa4VWDwHw448/IigoCG3atEH79u3xyy+/oGvXrmjatCl69uwJgmfatGmYOXOmctsx37FjxyI8PByrV69W5xEYdPcNGzYMrVq1Qtu2bVUijAi8sLAwfP/99wpqhw8fxsiRI+Ht7a2sJ15zwoQJ6h4Jrn/961/KWuO5jx8/FrlrBHJna7gKgOxcCMQCqnnrytYvT33mT3cX+2AIIv7R7fXll18iJCQE3bt3Vy64Ll26YOPGjSp4gGD43//9X2zatAk7duxAixYtMHToUGXJEDD8TetoypQpCkJ029HC4j5CJiMjA3TpLV++HLRiaL0wr6NHj2LEiBEKMLS+aIn16dMHe/fuxeLFi9GuXTskJycrCyw2NhYBAQHq+rz2Dz/8AG4jKKUPSOSa748ASAAkLVE7lwG+qASPKYDoGmvWrBnGjRungg9oxcTExODEiRPIyclB79690bJlS9XnQ4uI1kt6erqC17x58+Dq6qpcZJMnT1bn00VGANHSoZVEC4hAI4gYDcfghiFDhmD69OkKeszv9OnTKs/x48fj1KlT+PPPPxEaGqpcdrwQ3XY8bt26dfjjjz+UBXbu3Dl1D/xXnwCXa9kn8ARAdq58xAKyzxenvhUaLSAdyUblvWDBAmVd0JpgyDQBRauCf0+ePFEuNkKGnf90d/n5+SmY6HN9fHwUZAiGMWPGqL4jAq5fv37q3A0bNigQrVmzRgEkIiJCAYiWF913tJIYKbds2TIQQATYxIkTERwcrIIVCDNaVYQg+53ogiPQeBz/GMRQ32Uo17O/d0kAJAASRWDnMkDFqcOwqdj5x8ACZ2dnFSbNvhjCgNYF+4RoeRAE7HMpKChQAGJ/EcO2+UcLyMPDQ7nUCDK66xikcODAAZUnLSCCh5DhOezHoZuP7j0GMgwcOFCdT7cb3W2E1u7du1W+7P/htuvXr6vQcEKQLkDmQfcc3Xb8Y1+WAMH+gFDfdSIAsnPlIxaQvKRUCrRudCQcFbjuo6ELjf04BBJdYOyTYQQbXWm0chipxig2BiMQKvyjFUNrhP05jHgjUBh8wDwIHfbxsL+H/Ut0vfFaAwYMwPDhw1XwA4HF8+kG3Llzp7KIZs2apdZ5DN1wzIv5Msjh9u3b4H66BemqI0RpsdW3spPr2d+7JAASAIkisHMZoOKkxUC3lf6YkxYGXVtM7PynK4wBA/xNi4gWTVxcnAp3phtu7dq1KpqNyp/gYX8QXXMEFPcxqo5BCYQXv+lh/nTD0bKiS4/76GLj90fMf//+/eoa/N6HxzG0mus8jx/H0spiuDb7jwgbgop9Qfyt3YkCBPsDQn3XiQDIzpWPWEDyklIpEBy6D4ggokVE9xo/CqWFw0ADJgYg8Hscbmf0GtcJL/6m4icM+DEq+424nXnqYXf4USphxcTjuJ3XYGLeDPXmN0bsK2Li8XQN8hoEGfcxb/4mtLiuXYa8R+5nvrqvqr6VnVzP/t4lAZAASCwgO5cBKk7+UZnrpDZU8E8rfS4JCgJL//G36X7TfTyG+7hNH0NAEVymf3oft5mez7wJtcr+9DkCBPsDQn3XiQDIzpWPWEDykmoAVabYTfebQoLrOlH5VzWZ5sG8dR56qa9n/ltvr2xZ38pOrmd/75IASAAkFpCdy0BNAaTBYLqsDAqm+03Pq866aR7W1gUI9geE+q4TAZCdKx+xgOQlrSsAWYOBpX3VgY7psZbysrStvpWdXM/+3iUBkABILCA7lwEBkP0pToFZ3dSJAMjOlY9YQHUj6KIwpBxFBuxPBgRAdgKgycnzMCZ27iepf8xsNA2MVilo9DKcuZJjMXGfPo7nWMrrj4R5yD4XKxaPndS5KET7U4hSJ/VbJwIgO1FG6dmL4RYaY4SIhonpsqoAMj1Hr7foFoP4zQsFPnZS36Lo6lfRSXnbZ3kLgOxIIVUGoZoCSOBjny+fKEWpl89dBgRAdgQgCqMlCEXGrMGkuB1YlHHQovuNbjnu4zE8Vls9XAp86kfJWYrykm2NswQ+dyjU5/MLgOwMQJYg5N9/IXYfvVEhfHS/EI/hsRpAAp/6gQ/rrLI/hinzTy8rO96W+xv6HvT19bKiZzXdb7pe0fHcro8zXXLd9Le187mvPhXw534tAZAdAqgmEBL41B9sLCmNipSaVn6//fYbOnbsaEydOnVS01PX55LX5yynv/76K65cuVLRLdtsO8uCUzpwaob+/fsbZ3Lt3LmzKpeKyoL3bWlfRdt5LPPkaN69evVSE+5xsFUOwqrHobP2kJbqV7bZ5v0SANkpgKoDIYGPbV6O6igdc4WmwcMJ2LKzs40KVkPIkkKtr228h27duqlpHPTo2ub3X1e/teXB8eQ4xYO15zcFirXjLJVTRcfrPPV+TqxX2V916l2Ord27JwCyYwBVBUICn9q9AHWlQMyVGhUvJ2KjxaGVoCXF2RDbtDLmvfH6tvrTEOaMqbS69HUremZdTlz+/PPPxuP1eZaWfIaKyph5cB+tISZel3lw6oqTJ09W+Nh1JROST+XvpgDIzgFkDUICn8oFvL6UgLk245QGVHYVKVu9vX379moSOGtKlIrUPPE8raR1XjVdalCYP0NtfnP6hT59+oCux+rcF8uMrjO6yjjVQ1USy5oT7pmXd0xMjBrJu02bNqqMLd2HJQuwvmRGrhMHAZANAFT9F5cd1B/Zg1ru1A/vP+Jl4Ws8uPUUWzachFv3mcYAAwYbmAYcNA+ejgUzt+HQ5vO4fPwWcu8/xeuX5YfRN16j/GXKXdPaD3lhKgaeeblt3769Sor34MGDatI3zhhKqJgqyR49eqiJ3DIzM2Ep0bWnjzdXvnq7taU+h/de1xDi5HiV9e1YujfeExNnVe3Zs2eVEvt5CHDz/JhP3759VX46X30Mf3Od5cpnN/0TOa9Yzuu6bARADQwg/eJ//PgBH/EBH95/QOGzl7hx7gH2rj2LlTF7MLv/OozplIQw/8Vo0cUwKoKOdOOyWdcYdPGcgwGuizDELw7jf0/GvEHrsGr+fhzafhF3ruWi+EUJPrx/g48f333ywpm+fNbW61r4HCk/83Kjy0krO2tL9klwKm1LyppAYsue/TWWEi0FrUitXaOiffrcMhksr4jNn6k6vyu6pr1tZxly9lbTP0eSS3t/FgFQAwLI+OLjo4IPIXH52B1kzNqDP0PS0N95AYK/jcFvf5+K3/42FV2+iEbn/4tB89/LINSsSzQ6Np2BoK9moOuX0/H7F9Pw618n47e/TUbIP2Mw0HM+osMysDH+IK6fvoOXRSXg9GTGa5u1/kxfRPN1exfmhrw/87LSyr0yhdu2bVsEBARUCBJz15v576pep6L74PmUhbr+q+h69radDYXevXuXK4OGlKPP7doCoAYEEF1iH/EeJS9f4cqpe0idvhtjOyai5w+z0OXLGAWTwC9jEPTNDIR8N9OYfvtxhoIQ4dPJqfy+kG9nIOjLaHT9+1T8/r+T8evfJuP3r6ahb4sFmNYzA1uSj+DezSd49/690jnVUT6f28tRnec1V+BUtFTutQVEfShs83uvi9+874OHD+Hi5ct4nPPErtLTZwUoeG6YopxWJuvI9K869S7H1s5dJwCqdwCVfRRHAOXcfYodKUcxKWQFQkvBE/hVDIK/jUbwd4TLrNJUBiDCiBAyh0/wN9PR5ctp6PrNVPRpNgdjOiVj7uB1WDZtF9Ys2I9NCYeRteYkrpy9/ck0y6YvYEXr8rJV/LKZl5kGh4YQ+yjsMfE+bfFnANBhXLp8FY8e59pNevgoRwU4MMiBoeECoIpluj7edwFQvQLoIz5+eK/M/Xfv3uHWhYdYPiUTUb6xCPk+Bsra+XYGgr8lbKYjRAGoPHhMLSGuB383E0HfzkDg1zEI+TYa/VzmISYsDZvjD+PMvuu4evourp2+h/OHb+LY7svYv+kc9m0+j5N7r+PKqTvIe/wcb9+yX+g9Pqh74/19KOeS0AqqPgSysV5Dl5FeUgH/8ssvWL9xA06cOonLV67ZWbqKS5cvq4809T3X5VIB6NARuwEQwZOb9wTFxcXlANSuXTvVV2f67I1VBhvjfQuA6glABleXIdLtzeu3OL3/BuYMXoew5vMR9O105WYL/pYWzwwFFQNoDL/NoWP6O/gb9v1EI/Q/czC5Wzq2Jh/D9bP3cPfKI5zIvIL1iw5g0fBNmBSSghEd4hEVEItBvnEY7B+HET/HIunPrbh84g5elbxSEDIEKRggafpScr0xCnh93bN5WdHy6dGjJ27eugO6fOzBCqASfvQ4B/nPC/DmzRswBPnixYvmt14nv+0BQI9zc1BQUGAEDq0e00QLSAAkFpDDKTZLb7Du9H9V8gbnDt/ElD7p6PbDLAR+PR0G8Fi3dEyhw3WeQ5db0Ncx6N10LhYM3YQz+27h0e2nOHvgBlbO2I2xnZMQ1mweQr43QOr3LxjIMBVcqvT3qejdZA4WDt2Ii0dv4e1rhm3T+hEAVRdc5nVOBdyjRyhu3b6LZ/nP7QJAz/LzUVRUpJQwla+jAoigZeI3RKbAMV8XADUsfPiOiQVkYwtIg4fhBm9evcG5QzcxNSwNQf+cga7s61GutmrC57sZCPpmOthX1K/FAiyfmol713Lx+E4+ti07jnG/JKPH/81UUXGBX05XEXK0lELo2lPuvdLrfTMbgf+YiR4/zMK8wWuVu+7DewN8jPdtMpBjdZXy53S8PQNIK2StgPnhpiMCyGDh5SInNw+FhYXgczLp5zZfCoAEQA5n/VDpmv4ZXG8fVN8Pv+2ZHbkOgd9PV/09DDJgH465dWP9N8+ZruAV+uMcLJu0G89zi/As9zlSZmYj3H0RuvxjmnLLGfqSLOVv4tr7dia6/iMaoT/OxJIxm/Dg5hN1+x9UP1B5a+hzAkp1n9W0zrluLxYQI9AKCp5/ooQdDUCEz7OCfAUcPhthYw0+3C8AEgA5PIDU6AP4qKyT5Mm70POn2QbLhy60GgGI/UUx6PHv2Zg3aD3uXM5BUX4xVs3ZjTDnOejyVbRJf5Il+HCbCYAYxPANgTYVfVrMQeqMbBQVlCh9aghGMAQlcEN1lfLndLx9Aags0qsiRewIACJ0tEvR3Lqpym8BkADIIZWaVkZ0uxFARYUl2LrsOCK949D1q+gqRbdVZAUFfROtIt4mBabi9J5reJFfhG3LjmCg+0LVnxT4zfRqW1XsTyLUAr+ZgUjPOBzZfAFvXr3GBxjgY7DiBEDWgKrrXC8bygKiUi588eITi8dcITsCgIqKi5UVY/5sVf0tABIAOTSA1IemHz/i7IGb+LNHKoL+yf4YhldXZJlY2l5mrdClxoi3fi3nY1PcYRTkFuLs3hsY3SkRgV9HI/ibGATRoqlW/mXXpCUU/P1MRPfNwOWTd/D2zWs1QoMAqPIXVYNHLxsCQM8Ln1dZITdWAD1//rycm62qsLF0nACocrm21uiqi30ShGCDIATdgU9lVFjwEium7UavJrMR+PW0aka8ET4EFiPlZiLo6xkI/HY6poetxo0zD/D0YT5iR29G4LcxCPxqGkK+ZVADvw3ix6tlYKnaOl2CtIJi0KPpHKyclYVnjwsEQFWUDw0evawvAD1/XljO2qms30Mr4sYEoCdP8z6x6qr6nPp5LS0FQAIgh7SANIA4xNb5Qzcw7pdEBH5JC4VAqQ4YdD8RATTdYP04z8eWpUfw9FGhGmh0sF8sfv8iuhRs1c3f/F74EewM/P5VNMb8koTzB2/i3bv3ypFIxVoXLR5HzUODRy9tDaDHubkoKjaEVFO5VlchNxYA0arT8KjuM+rzKloKgARADqnUDC6rjyjKf4m06Zno/dNMFXhQE9cYrZkgBit8G62G2ZncPRVXTtzBg5t5WDJ2G0L+Hy2jmFr1K5lCkQBiFF3oDzOxZs5eFDwp0jrVIeuqroBoLKTSFVsBiH08ljrfq6uc7R1ADx4+rvQ7norAUtXtAiABkEMqNUPwwXvcOPsAEwNTEPR1NALZ0f+9ucVR+W+DS630W57vZ2D51O148uAZTmZfxaiOyejy5VTleqvKsD2moKlonQDi90UMzZ4WuhLXz9wHPnL8bLGArMHK1gCiQq6qYq3KcfYEIAKVI0VwhAbeF1NVnqG2xwiA7BhA2ediHRIO1pRIXe1j8MH7d2+RlXEa/VwM0WlU7DX55kf1AdH99vcYldfedWdU8MGa+fvQ86e5akSDkO/q1gIyDO8zHYNaLcGeNWfwuuSNAKiSvqC6BpBWyvyOpzahxhUpaXsAkLbmODJ1Rfdpy+0CoIYHkFef6cZJNv/SPnKJ8cfGw0sEQJUonYqARWVUVPASyX/uRNB3peO8lQ4cWpHlYXm7IQihG91if5+KMZ2TcfXUfQWg1Ojd6NNkruoXosUS9E3l1pTla1g+L/Cr6ej102ykRGfiWU6hAKgSWahLAGn40CooKn5pE4ugIQGkn4/LnNwnDQIfgk0A1PAAMp1Y8y+hf6wQAFWiaCqCjul2KqO7V3MxucdK/Pr3aQiuMRwIoBlQAPrHVMwZsBY5d5+pb3QuHbmNtOnZGPvrcnBEBOXi+1qPpG0ZKtUBUBDHqPsuBjP6ZeDWhUcCoErkoq4BpAfRrG7fTlUthoYCkLZ6njzJq7Nw6qo+s/lxAiA7A1DfyWlGACVtWyQWUCVKxxQ6putURvz2Z6h/HH77O8Ojaw4Ehl8TYJxyYfnkXSgqKFYDhr579xb5eS9wav9NJE3ZiaFt49D9/2aqj1TVEDwcWVuNrm02/lulUXgG6PHcwK+iMbpDEk5lXxcAVSILdQEgKmdbAceS8m2IwUjN76MhfwuAGhZAu07HGnnj338B/jJs9jrjBgFQzSuHyujikdsY2S4Rv/+NIdI1+S7HAC3CJPDrmQj99xxsjDuIt6/ZH8MwB8M0yhwuJz+vEEd2XMScwWvQz3m+GopHffD6Da2nWehWLQCWAajrP2IQ4bUYWatP4eOHj9IgsQKhmgKI0Hmck2t12gBrSprTKljbX9G++rSAnuTl4WVJmSuxviBb0bPr7QKgmus40wZ3TdfZzaNdcOz++cvE2K3GDYvXLxCFY0XhWCt0KqPCZy+RMHYHAvnx6Dc1BxD7drp+PQP9nRdhz6oz+PD+nbmuK/39EXkPn2H7siMY1XEpunJ8ty8M8KELr+rut1IAfcdRF6YhzHkuNiw9hA/vP4g8WJEH80qpShg24fP0WX6Nw40ZnHDv3r0a9RHVB4AOHz6MS5eu1AiQGhKvXr0uZxWWlLzCq5LXeF3yWs1hVVLCb6FqFjUnALIfAAWNTioPoFlpAiBrkLG27+3btyguKsHBjRcx2DcWXdmfQgjRnVapC6y8uy7oG8Nsp1Gt4nF461U1WyktIP3Hb44+fOA03wyV/qAGEj2+6zJmR6xDzybz0PVLzhtUPk/rMDIFUDR6N52HjLl78eb1OwFQHQCI0GFwgbYC9LJM4ZafNM18O5Umh6PJzs5W6dmzZ8a8zI+19tvWAOrcuTPOnz+Phw8f1hBAJXj75gMKix8h+WBbLMj+CXN2/R/mZf4bcfu9kH68B4pecrK5d8b8a1KWMiFdw0EoPXux0eBh989f4tYeMG6ITpkvCseKwrEGoKc5z3Hq4FVcPH4by6J3omeTmaXTbfOjUsKgTMlbh4FhpGoOQDqi3VKczL5hdL2ZAsgwajWnTjBMpf361WvcuvgQK2Iy0d9tkRrtuuqjMJTdG+cS6vWfeWra8FcvX4s8WJEHXR96ac0Cyn3ytFpWi6lipcvt0qVL2LNnD7KyshR8TPdbg47pvvoA0Llz52oBoFd49uIRNp6KwLzsZli4xxmL9rTAouwWWJjdDPN2/4S0YyH48OajsohMn62q62IBNRx8qD/ZzaNdcApAaduPGzcMnTtXFI4VhWMNQA/vPMWKWZnYvfokzh+5jamhqWo8t8CvOVioYWy3qkKIA4QGfRuNsZ0Sce7ATTU2m7kFZABP2cjVHzmO9Yf3yL3/DBsWH8AQvzgFIRWqzf4oq31SBBDvkUEI09HzhzlInLgDL4teiTxYkQcNHr00B9CTvKflXG2ERlXAQSVpmmj97N+/H6dOnUJeXp5xX1WVrj7O3gH09vU7zM/+EUv2umLf1VlYkEUINce8rKZYd6o/buTuwbysnzA/qymu5+w1WkH6+aqyFAA1LIDmrV5g5M20xJ34y94T14wbgsfNEoVjReFYA9CTB8+xaMRmzOifjqsn72J3xhmM7rRMzf/Db3YUfIxRalT4ll1kdNdxcNDAb6Mx7tdknD9sHUAfOJW2gs8HvH79Bm9evcKLvEJsTjiCwYSQiqirKoAMk+b1+s8cNZjqq5dvRB6syIMGj16aA6gqCtH8GCrInJwc3Lx5UyW6dgktzvbJfbm5ubh+/Tru3r2rPlatTkCCXQKI/TuvStRnBjce7cPCPS2weI8Lsi5NwPzsZsoCmp/VBBnHe4D75+5pggV7nbDqRM9SAFWvL0gA1LAAGhM718ib5E1H8Jc7j54ZN7SJmC4Kx4rCsQagwqcvkTQxE72azETqjEzcOP8Iu9JPY0T7JDVhXNevY9To1pyQzmAJWQEQR7qmBfRrEs4dpguOfT3l+4BoARng8w4fP75H3qMCHNp+Hoe2nsOrohIUPH2B1Qv3Y6DnEnT9aoYK6a74uvqeZiDwHzHo02Q+Vs87gLev34o8WJEHDR69JIBCQ0Px9OlTsJ/OHC7WfhM0mZmZys3Gvh6623Si241J/+ZSH8Ptx44dq9K17BFAvCc2nF69eoPsK1OQeWEcMi9OQOaFP5B5UacJyLw4HpkXxyHz0jjsujBepTdv3lbLrcnyFwA1LID6TJlt5A2Nn7+8efvOuIG+ORmOp2YV9LroDdYtOIjA72LQp+U8bIw/hAfXc3Foy0VM6p6Crv9vGn77ByeWM4xyTQvIMObbp0tOvxD4zTSM6pyAMwevl/YBGSa6KwvHNgDpVUkJLh27hcQJWxHpuwCDfGOxMf4wnj8twtOHBUidsRu9ms0pnRTPMvSM1hjnHvoiGv1bLsKWxKN4L1FwVgGswaOXBguohwIQt1kDjuk+KsWjR48aoWIKGkvrGj5cHjlypMrD9tgTgF6XvEJe4V1knAjFtrMjUVycj7Un+iLlSBesPFp5Sj3yK96/+Yjkg21w6Np8vH/NwISSSstcAFQz/Wat8V2dfR2iZhh5c+1OLv7CF8V0OJ41+2U4nuoUqD72/dsPyFp5Sg2V0+mvkxHhsxAbYvfj4fVcXDt1F8um7UKUbzxCvp+OLv+YosKdu34ZAyZ+/MlZTdlfxN8cmfq3L6YiqvViHM+6XGoBGSLeGPVGCL179w73ruVg09KD+KPrcoT8cwZ++9sU/PrXKQhrOQ+bk46ipOgV7lx6gDkDViP4e1pgHJuu1B1nqU+I8w99EYMonzjsXXdO6VX9fLL89MXV4NHLmgKI1s/u3bvLWTiWwGO6jfCh9fPo0aMqWwH2BKBXL99i58VJmJX5T8zc+R2O3ViGuP3emJfdRPXxsJ/HWpq3+z+4/eQo5mU1Qeweb7wofqasKFOwW1oXAH0qx/X5bruFxhgBRONHASgiZpVxo3wLVLMKoofsVPY1RLWKVSMhBH0bgwEeC5AwfhMuHLyurKETu65h5fRsTAlNQZT/EoS1mIce/56F7v83C6E/zELov2eiV5NZ6NdyHqL84zF/2HpcPXNXhVoTPBwJoTD/Ba6dvY/NSYcR3ScN/f5/e1f+FdWVrf+Q9+NrYzTdnddJZ+hod7o7Kysr0zKJrhjjPLTGxNjGvKdJNE3bRm0GERTBqBgxZFJxiGicEUWRqEFRUVGJ0AoqBhFEZr63vnM5xa1LDbeqbkEVta/reu6tO51h7/2x99ln72dTMe7X8YbXGyMZDEpU4DX3jUwc/eE87t6uR8H3Z/HRsLXq2gQXAPXUhug1N+7hRMSNzMLpw1cEgHyY38i01i1YAKJbtdZqzCDj65j3V1dX2wYfCuOIAqCmJmz/6QOkHXjOg9neAAAXb0lEQVQSqfsfQ97FpVhX8LLh9UbPNz97et4zKKncjvS8IViV/yzu1P2M1tZ20YD80Gxvgo31W7tOdC9CZRQEbgqA6I2gXeM4SWR9UM79gxI7s/LSLSyZ9DVG/erfGD+I4XSWYtrTKVg0PhtbVx5Wyd6unr2B0hPXVBSD3V+fwJZVR7BpxWFsSsnH5rTD2JFZqCJqnzxQhp/PV+FuzT0Vfqe8tAoFuWfxddJ+LJr0Dd57Nk1pU0zLPW6w4eSgNJxHlhp5iH6bhKT3c3DxVIWKJbdh0V5M+h8CFMP1eA7Vw+yrE36bhNRZm1BxsVoRiIy997FXHWT6LxQA8gU2nq4JAAkARRtvrs1Nd+EMXbC5KQDKPXzWdWH0fPGEC2Zg2Zn1tfeRtWgPxv2akaqNgKLjlfNBIt4buhyLJnyNrxIO4PDWMyg5fEWBw9Xz13HtYhUqL1Wj4tJNJfh/Lq1C2en/4MzRK8jbchrfLM3Dshk5mPvqWkx9OgVjByeoiNjjGYh0cLJbym+CEJ0NRg9MxPQhadiSXqAiaZ/YV4rZL2Zg1IAEr3HqOD/1zh+WY2PKQaU5sU3B9EWsPKM4yPRfsADE6AaBaEC8lzsXfUavF1wztqv1Pk9ieUga0FClAd2mBtTSvUDVk/lNa4GyENX7H1Xh5F2zB1xK9kHFOQqAqmrqXAA0dGKiOCIEocYyTlt7eysObS7GjD8zH1CicsGmo8E45vbheqBBSZjyeApmPZeBT4dnIX7KRqR9+D3WzN+F9Qt2IvMfO5E+dzuSZ2zCZ+O+wtxhmZj5lwxM/X2KWqcz5uFEjFZpGLhmhyY0H+7cgw1NaMnE73DpRIVKaJcyOwdvDYhX2VbNzzL2HN21xwxMwJxX1+DYznOghxG3cBJktL/bhD3qMFgAomDkfE6gIETNiB53fN7u+qJwBiNlJIRAFqJuO/UBVhx8wgCgC4Gb4M5U5qh1Qhn5f0ZN3WW0togJLpJ5yuyAUHimXPGMAiAemR0RJChp4H8hGCm523H17HUsnvSNWkg65pEkt4yo1Fa40HP0gASM+u94VSonhEHMH0RHBMMhgU4Ib/+qax8QryIqqKgGAQYYHf1QAv7+11XYm30SjfUPsG11ASb8jh52xqJT7f1GrYlrlcYOTEDy+zmguc8IfCrBSH0xtFMAxLmZY8eOBeSEoM1yBC2C1/Xr123Nf0QOADWjvqkBxy6twdn/5KKltT3gOaDOtg7sObMAZdWH0dxsf5GvaECByzdffGDnmjkK9p8mJYMOCNxcAESVSM8DfZIu80B2OtV8DwGI/5oamrFl5WFMf2aZmouhBqQFvVvJBaL0SuPEPyMfEIQG8diYOzJMaV6e9fZO1+/UjJIwnhrXY8uwNm437lTdw/Hd5zDzuTRVL7d0EQSgh+Ix7ak07PziRzTUP9Bxt0UD8qENOwVA1GAIIIFoQGYAogcdHRL4Hl97ZDkhNKrgoi3NreDe1PwA6wpeUk4F/hwQeJ1OCIwbx3iFzU0taGxq9Nl23S/iBdf74EM5yTijGl/0/I8bAJkjIlBVMgtXOfY/aAYA0UUauFhcgYVjv1RaBeeC3IDHBRJmcDHmbfzfZ37G17HxPgIQE8wlTNuEq2erwIR2895Yp8yBKn+QqgsT2iUp929qbpdOX1eLKA3hKhqQL9o3+qj7/2BNcDSfcS5Hu2J7AyJPv/M3riHSAtZXGUkA5DIZNjPSNYGzGd+eGKtMagy/o0GIXm6MjqBAh8BzaIgBUnl/RFtzh2q3ipZtMzq2AJB/WeaL5oO9NiOxewEq44/qzaUBNTQ2uxCKSEWVKdiPxeJzCoA6jcWh9xuasHnFEbw7dKWxADSg1Ai+gMXutS5AG0xniATEjfpSJcu7UlyFf436ypif6jLnUfsa83A83vvjSuRmFuJebYORe6irLbE4lnbbrJlIl8ECEEFDgxBjvlmBhueefqPpTceG8wU8+lokAZCuk7l80NSIjrZOlFRsRXoeQedZ1NRexdbiGcpdm0BUdDUTzc3+53rM7zUfCwD1DQC9OCPJhS+nSis1y3Sb4PgLVSOtJklk7MAGSveoMXcCXCq+jqUzt2Di75KVec057SYAEGJIn8GJ+Oj19SjadxGXi29g4dsEIEZjMECKc1LjfpOEVR9vR8WlarS1t3RF2Da0ObvCOBbv02Ouy1AASAtJAooGHJbUigoKCsA8Ozwn6ND8xvLChQtR7AXX01z4oOkB2lo7cfrnHKzM+wNW5f8Rt2uvYMspDUBDcPxqJnifoTX1fIfuR2+lAFBgcs0Jvs7e1x0B2zz/Q75xaUA8MUfGFnfswAZKCyE9ef/gfjPyt5dg3vD1hsZhyxRnF1xs3qeiKyRh7utZKNp7EaVFFfjHiA0uAKJ33vjfLMUnI75AydHLaG9tRWcnY8txFwDyx3x6zHXpBABp01RtbW0P7YbCk9et+YD4m37Om+Dl75GuAbGOnNc5f2Mvlh94AuuOvoLa+mrsKpmLZfsfRdrBJ3CmIqerrf7D7njqCwGgwOSaPx6wc/2D5FSXYsMEqObNDYDu1N0HEUprQUyfaucDco95VTzNcBTeHai7fQ9bVx3BjGfT1RzLBBvRsB3VlJRzQyLmv7kBpw5dwsn9F/HhC2uM4KQq5UMiPnwpA7uyjqPlgeF2bU7zQEKRsfXOsGZG4rGTAGQVnr4Axtc183uiAYA4F9TY2IBDF5Jws7YMLS1tKszO8aursfdcHJrosKA0IAGgaOBNxhZ9/p1u85t2v9a84wZA/NEclmdB5goRQD68oMwEoDtUBQtV8ycGCFWV12D9wn2Y9Hgyxj6UgImPdKVm8OiMYFOzsfMsvexUVtYELJr4Fc6fKMf+b37EtKeWKndrumi/NzQNm1LyUHvrrjHvQz8+evN17WyTuY1y7A5G3WNuHDkBQGbAcPo4OgAocLNaIP0kGpA7DYebpxnaTSs0OvyOmW96ANDewlLXA5Kewf5gmTuVxzTFdTB1dnsHrl2qxuq4XEz5/TKMG5iACb1hjqO2NSgJkx9dipVzt6PsTCWyFu7G6AGLMXZAPKYPScWGJXtQfa1GaWtM6UDgsW7hJtBofr+1rwSAAluIah84gtN2PL1fAMi+THOCN83pF9K/y7eyjPscEK9ygdDz07ptdszh7URF+vs7evQsQahLk2jvaEPl5ZtY9ekuTH16uYo4YM89O1iNiA4GScoN/L0hachZmY+SY1fwz1FfYsR/LcL7f0pHdvw+VJZVobOjlTEcunYBoEDo1DrmAkDhAiDntCIBoN4DIHpSM7KO1oCYfsG69dCAeAMnivRDkqbb3oBZO1afG1pFO9rb2lBRdgvfpebj/15aq7zQ6IGmvdHMoXGcmAdSa3seSkDciA0o2HYWuet/xPQhyzH7hQxs+/wIbpTXqOjaCny6sqpqDz5dd5aBCORYu9fcTzwWABIAijUe8NXexVkrXDgybv56K7uoc48ARKTSAEQEYxhtXx+Sa2YnBGs/d6Kzo12Z45jZtOZGHXZvOInPxmZj6uMpKswOXaVdQOQlUrVfUHI91+1ePenRZKyZtxM/7rmE1f/8AYsmZePgxpP45VadyjFEwDGcDoz5KhoOrZuMrfc/QKx9JQAkACT8YvCL1fmAHtaeNo8AxBvNzgiiBXkXQprgPHVu928U9PqsU0XNPp1fhnVxOzH7+ZWY+ChjwTEiAYEo0RStmgnkCCh2THHLVLI53s9cRG8Pise84V8gL+c0fjpShh0bjuFs4RU03W9S81PaXby7Xqyfq5K6svKHhw8nFFcndR0IAAkAaXkQ66VZ+6HzgY79ZuUZrwBkDs0jWlCoANTd7YZJrgOcF7p14xcUbCtG+uwt+PtfM1RW0zGD4jF64L9VBAUuGB3HeHF+gpBSe2L07dEPJ2HMQ0kqId7UZ1KxcfkhVFfU4Jeau6ituQs6GtA93HA4oNbTE3C6a2ocxToj+Wq/ta8EgASAfNFLLF0zR772pv2Qf7wCEC/SbqdNcaIF+QYhqzDydm44JnSoSX+gXa1kry6/jbzNP2HF/36P2S+uVllSGUJn9MAE0F16zEA6FHjfmUaBoMVnJj+ejFkvrMS6f/2Aa6VVKrIBwMizhqNBRwcXmdLjTQAoVIFgHWMBIAGgUGmqPzxvdb32pv2Qf3wCkFULkvhw3kHIKox8nROEOtS8ELWRDnR0dKK5uQV3qutw7ng59nxZpHIDLZ6YjY9fy8Ss51bh3SFp+NuTyzH5sWWY9Fgy/vZUKt4dmqaufTwsE4unfIPMBbuw56sinC8qR+3NOrS1thjebZ3GdwzgIfgIADnB6NYxFgASAHKCrqL9HWbtJ2vHcSubuJ37BCDeKVqQd9AxE4pbr/o5MbQgzxawjo4OPGh8gFvXf8Hl05UozivDoZzT2PlFkUrdnZ2wH9kJ+7BpxSHsXF+EfM7xHCjD5ZLruH2jFs2NTeA7jK1TWdk4z9Nzp/lNTHDmMQz02DrMAkACQIHSUH+735x2gVF1GF3H1+YXgMxaEM1xsi7IMyD56mS714z5IcIC/eXalfdce2sbmh40o7G+CfV376PuTgPq7tSj/m4DGuuNnCptrW1Ko+JTGlT0u+x+29t9/Y1BnGyPtc8EgASAnKSvaHsXLWTmsDvmtAtWXtHnfgGIN5o94kZ+lCyeUR48o3SHOlEaGpLhMGAAitZWdEmg4XV9D7/agU5qPu5ubSFXJ9qYoDfra+1cASABoN6kv0j7Fv0EtM8AM2z7mvvRvGMLgK5V/eIWpJRqVqQ1XurjWTOTfglfv2gm0uWIESMwefJk3LlzR/3kKRRMX/7GKABtbW04f/68rrKj5ZtvCgDFKr/RMqbBhyUtZ3Y2WwDEFzGOj/4A1SxZnBo+wRarRBxt7bYyGAFozJgxOHfuHJhO4e7duxG119XV4d69e8jNzbVW3ZFzAaDYlQlmx4O5KVtt05NtAKI6xQVFGoSYYjXaBIbUN3YZJBxjb+UymuAIQsOHD1flW2+9hUjaR44cqcIFvfbaa9aqO3IuABSb/MXkpRoX6HhQVVNnm55sAxDfaHVIEFNcbBJcOIR5NL7TymUEIA1CBKJI3q11d+JcACj25EHOkc/dAo7acTww01pAAMQHqV5ptGOEBFYgGoWH1Dn2mMXpMTczEo81+GggcqokkDn1Ll1Ha92dOBcAii2eYrw3puzReDByzlpbjgdmWgsYgBoam0EPB/1RVoAVcZq55X2xRczRON5mRuKxUyChzXjTp0/HhQsXcPz4cWRnZzsKcNa6O3EuABRbPDtlYYoLB2h6o7NaoFvAAMQPWL3iZD4otggvGsEiHHW2MpsTAETwSU1NVd5q9FrTXnNMu33//n3ExcU5AnTWujtxLgAUO3LAHGyUykju4bNBkVBQAMQv8YNaC2LJiahwMLm8M3aIOtrG2spxTgDQq6++isLCQhfwmAGopaUF+/fvV3NLoX7LWncnzgWAYoNXs/dluM37MH9csFvQAMQPmhPXEYTW5qYLCHlYpBptglXqa0+QWJlu1KhRIWkn1H5eeeUVXLlypQcAEYioEV29ejUkANLzSTpShi6tbQnmnN5/8fHxSEtLU2ZDmg4jZS8qKgL3vLw8jB07FkuWLHFrotC8PZr/vvBz/GVKd5bTYOZ9zB0fEgDRNdscK45OCURHGUx7gyn9FN39ZGYkHn/22WchARC1GrpI79u3T0VJ19qPLltbW7Fx48aQvqEByFr3UM8JZFOmTFEu6G+88YZqB9sSifvMmTNRWlrq1mThRf+8SPB5cUa308Hz01KDmvcxd3xIAMQXMdic2SmB6Cjx4vwPphB89PeRmZF4fPHixZDAQZvVGE2hpKQE7e3tLk2I4HPy5En117sGEX1/MKUR7omJEv0HpLW209v5jh07oNcasU5268n7uL/++usYNmyY312DWjDt5neKi4t7NEH40Tc/Ms6bebEpnQ5OlVb26MdAfwgZgPhBLjwyL1IlShItZVB9D6r0T3T3j5XZKMz5138wglE/QwFJUxYF8dKlSxUANTY24tq1a+q9vKbvDaV0Enh0PzDKwqxZszBhwgRXHdkeX/Xkdb3PmTMHOTk5tvY1a9bYBjjr91lfa/uFF73zIr2creBTeKZcD3tIpSMAxBqUXbsFqmTaMYHu2QJC3gdVCD76+8bKeRRqR48eBSfjQwUiq9AM9twMADwmgHGuKlybFuzJyckuILLWgW2x/sbzrKwspflR+/O3FxQUeOxjvse683ubN29Wmo+un7X9wo+e+ZHgMz5umUuuU74H6/Fm7XOeOwZAfBlVMqpmGoSoCclCVc8DKwQf/f3iiaEo4BoaGlQMuGBBIxzP0bx14MAB1NTUmPJFeWpBaL+ZBTzzUtXX12P+/PkK9Myg46mNVuDwdk4Q9fUuXiPIUhPLyMhQa6nYKtbNXD9zS4Ufe/IjzW7MfqDlOcstB3qaL839GOixowDEj1M1M4OQzAn1HFgh9v7RJ/6YjS7VFPyehG1v/UZT3ssvv6xAQAtgb0LYX3vsXNffMN9LICovL8fWrVsxb948TJ061SOAaMCx2zeeQIgmQJoub968qQLCeqqPuW76WHjSnScZbNpsdiP4BBpmR/etr9JxAOLHPIGQuGi7D7AQfPT3hy/G4jW7ws/fe0K5rsFGl6G8y+lnQ6mTr74N5r3Cj938aPV2C4fmo2kpLADEl1vnhOiivWqb5BESQu8m9GjvC81E3kpfQtLbM7H4e6j9pAEnlPdEOy06VX96MJuzmtKa5eScj5W+wwZA/BBByOwdRyRl1jyJHdd/hLBThC/vEZoQGuhbGmB2AyoKlNPcCT5OebtZgUefhxWA+BG6aJvXCbFhnNgSD7m+JTZhdul/oQGhAdIAnQ0Yz1MDD0t6NJ+9fEPjRNjKsAMQa87Fqu8u/tatgXROEJOcMIAIQaEBoYG+owGa3MwpFZSCMGdtyBEO7CJWrwCQrkzWjuNuIMTGikmu74hPGF/6XmggdmmAAaTNJjfKY8b3ZIi13tp6FYDYKKp1VpMcJ73ESy52GUGEoIy90EDv0QC1Huv6nnA7G3gDtF4HIFaESe3MmVWJvNy54lbmhnqPEIXppa+FBmKHBjjXQ4uTlre6ZETrYJLJeQOVQH7vEwDSFaR7n9VLjirhp6vFU04EQ+wIBhlrGetw08CKzSvd3Ks1+KR/l9+rJjct+3XZpwDESlAbSsk+2AOVaZZj1j1x2RbmDDdzyvuFxvorDdDRyxrRgOBDp7C+0no0+LDscwDSleGaoSkLsj0C0YLMFcpVsL8SibRLBKDQgNCAkzTANT2egIcWp72F7rmQtAzuizJiAEg33pNZjohNt22a5hijyMmBkncJ4wsNCA30BxqgtYjAY04ap01tdDKguY0Wp0jaIg6A2Dl0A2TUVau3nO7MKQtTVEeLeU4ER38QHNIGoeNQaGD9DxlqISn/SNcyUpdcUMogolyLGYlbRAKQuaOoEXkDIjoscAWvuHALA4fCwPKs0E+00QDT3HySvtyjtkPwoamNwBNpGo9ZtvM44gFIVzj/ZJnHOSIX0r+ThHeWGJqRmOlEoESbQJH6Cs36ogFae+hQQDdqa+QCLQNZ0qX6290n+tSzTctsO2XUAJBuDGPLEdm9aUV6MDgBx8GidkT/d1+DK9eE+YUGhAYiiQYIODStUcuxLhrVMk6X1Hbiv9irgj9rORktZdQBkLljGVWBHW9OBa4HxVrSXDd6/jKlJdGZgX9NcICz92UIOJWK8Ikk4SN1iQ165KJ7yiD+kUyZxOkEyihreByrLOM5nQo+XbkDtAxF8xbVAGTueIIRY81Zg556Gjw7v1HNJTHILn0gNCA0ECoN+NNi7MikcfPXqzWT4U6RYJar4T7uNwBk7SgOEt0OCUh2NCQ7BCD3GCGTpB+kH4QGwk8DXBfJ4KB0xIpULzar3A30vN8CkKeOOFVaqVRWziFxYAlO3DlxJwwVfoaSPpY+FhowaIDzNlr+zErcpOa1ufSEMqq/go0nmfz/Jb3nAH8k15EAAAAASUVORK5CYII=;" parent="1" vertex="1">
          <mxGeometry x="470" y="40" width="330.02" height="380" as="geometry" />
        </mxCell>
        <mxCell id="1UfFJ1RZVOHwHZjwDA17-6" value="&lt;p style=&quot;margin-top: 0pt ; margin-bottom: 0pt ; direction: ltr ; unicode-bidi: embed ; vertical-align: baseline&quot;&gt;&lt;font style=&quot;font-size: 18px&quot;&gt;&lt;span style=&quot;font-family: &amp;#34;calibri&amp;#34; ; font-weight: bold&quot;&gt;Appium&lt;/span&gt;&lt;span style=&quot;font-family: &amp;#34;calibri&amp;#34; ; font-weight: bold&quot;&gt;&lt;br&gt;Services&lt;/span&gt;&lt;/font&gt;&lt;/p&gt;&lt;span style=&quot;font-family: &amp;#34;calibri&amp;#34; ; font-size: 12pt&quot;&gt;(&lt;/span&gt;&lt;span style=&quot;font-family: &amp;#34;calibri&amp;#34; ; font-size: 12pt&quot;&gt;SauceLab&lt;/span&gt;&lt;span style=&quot;font-family: &amp;#34;calibri&amp;#34; ; font-size: 12pt&quot;&gt;/ AWS&amp;nbsp;&lt;/span&gt;&lt;span style=&quot;font-family: &amp;#34;calibri&amp;#34; ; font-size: 12pt&quot;&gt;device/&lt;/span&gt;&lt;span style=&quot;font-family: &amp;#34;calibri&amp;#34; ; font-size: 12pt&quot;&gt;&lt;br&gt;&lt;/span&gt;&lt;span style=&quot;font-family: &amp;#34;calibri&amp;#34; ; font-size: 12pt&quot;&gt;Google&amp;nbsp;&lt;/span&gt;&lt;span style=&quot;font-family: &amp;#34;calibri&amp;#34; ; font-size: 12pt&quot;&gt;cloud/ Perfecto/ &lt;/span&gt;&lt;span style=&quot;font-family: &amp;#34;calibri&amp;#34; ; font-size: 12pt&quot;&gt;genymotion&lt;/span&gt;&lt;span style=&quot;font-family: &amp;#34;calibri&amp;#34; ; font-size: 12pt&quot;&gt;/&lt;/span&gt;&lt;span style=&quot;font-family: &amp;#34;calibri&amp;#34; ; font-size: 12pt&quot;&gt;&lt;br&gt;&lt;/span&gt;&lt;span style=&quot;font-family: &amp;#34;calibri&amp;#34; ; font-size: 12pt&quot;&gt;Robotium&lt;/span&gt;&lt;span style=&quot;font-family: &amp;#34;calibri&amp;#34; ; font-size: 12pt&quot;&gt;)&lt;/span&gt;" style="ellipse;shape=cloud;whiteSpace=wrap;html=1;fillColor=#dae8fc;strokeColor=#6c8ebf;" parent="1" vertex="1">
          <mxGeometry x="40" y="240" width="340" height="170" as="geometry" />
        </mxCell>
        <mxCell id="1UfFJ1RZVOHwHZjwDA17-7" value="" style="shape=image;verticalLabelPosition=bottom;labelBackgroundColor=#ffffff;verticalAlign=top;aspect=fixed;imageAspect=0;image=data:image/png,iVBORw0KGgoAAAANSUhEUgAAAKoAAABwCAYAAACO0+vLAAAgAElEQVR4Ae19B5dUVbq2/2k+6e7qXNUZUAkCQndX6EB2DGQDmJU7CurMaIOCAR1FEJlRDAgmDFfCOHOv4swdAwIN3eQmSnq+9bz7fffZVV3VcL33W+tbVvdae+1zTp2qrl3vs5837n2ugf5dvgxcvHgJFy5exAXpeXzJXbtwCRcu2HX2duzukdf863rNPoPXrfHahYu4eF6v8XN4zsb/ZcfyWfZ/tA8/Qz/HPpfvvXz5sjQbz3D/6/oFrqGAKeizZ85h4MRpHDs2gOPHT2W3Y9H5seMn5Z5jRwdw7OhJuH4AR+V8AMeOuWs8P3r0pFx3x3xN2xH3mr036qPP89fkPSdxXL7XSRw7fsq1Y7ym7fgpnDx5GmfP/oxLly79uiT0PxyNTOBLl3FJ28Xg2K5Zf/nSZbDZ+aXLlyEtvPb/6Jjfc6i/ay5evIhTJ8/g8KGjOHjgEPbv68P+ff1Dtn1yj93HPmx8r52Hx33Yv9+u92Gf/x/RNfd/w/M+9Nr32dsv7+H7rPH+3n39OLC/X7774cPHcObM2WGwwmnHc+fO49SpMzg5cBoD2k4Ex3bNet4X3jtw8jSkDXrPKQwMsEWf646j6/n/T/R67nv5Pc+d/RnEIzGbC9xrKNj+/qP44Yf9+Pzzr/Dmmx/hjTe24o2Nrm38sx1vwRtvbMH773+Ob7/9Afv3EdQO0L37+8FmALXz3D583d4bXovu75PP2/fTAfzH3/+Bd9/Zhg0btmLjGx9iA7/bGx/4tvGND/D2pm3YueMb/LTnAA4fPo5z534eNNChZuuv6TWnIS/i5MkzOHToGA4eOIwDvYeuol3tfVfzWVd3T2/wvfg9D/UfxcmBU7hw4cIgkVxz4tgAvv9uH9Zt2IKb5y7FxLaFGD95rmtT5uLGtjkYP2Uuxt00R9rtC5bj40++woHew+hVsEYAc4D9750TlA6Y4fv44/60pxd//stHmDV7KcaMm4cJExfhxokLMX7ioqw2afJdWHTnU9iyZTvI9jQDitUEuHzpkrDowYOHPXlQK7nf1n5raiqnjTxRGOnIddNkTrvJ+/kZ+h4vJ7kW3cvX/ecpedl75LrJWf+H3Rv2Bw8ewulTg+V3zZHDx7B95zeYs+gJVDZ0YkRVEiXVKZRUJ1FSq60mhRHVSVxbmURrZgk2b9nhZ6r/0vbF/pd6miF79vTiT6+8h/ET7sBvRmRQUt6Fkhhbt/ZdGBHrwv8p7UJN/c149LGXsXv3jzhx/KQ4aYOm5a/8Atn0/PkLOHL4OPbtPTgYNHlkYyDJJ0cx1QRcBvDCRMTP4WcU+rzos7I/I7zfjolJOsrh3zWHDh3Fhx/vQmba/ShPdKCsNo1YPINYPI1YXRqxRAdiiQzK4mmU1qSR7LoX72+NgJpPhds/ZG8/gH1R9nZtqN6A+sqrmzHhpjsxoqwTscqpeVtpxTSUVU7Dwjv+iL/u+hYnjlN9ZA80HPSv9ZhAPXP2HPoOHv7fA6r6G8KMAdBNxkPJMHzN5B9ey3fMz+3rO4wL57PV/zX9/UfwwYc7kJp6DyrqOgWk5YkMyusykJ7HBGttB0pr05iSvhub3vkcBw8cQV+W/dOPA71sV7JPruaeQ/Jj7/nxANa8/DbG3rgAJbFOlFdNQ3nVVGmxqqmIybkDKUE8f8HvsXPHbokG5LNzfq0AtXERqKdPnxVtR0bNZ1LlgsMAF5KK3SPg8o5xDsHYdTrIV0k+9rmDe362+3wDKjVD+OeBmp56DyrrO4RJy+MK1ACssXgHSmtSGD3uNvzh6XX4+j+/w949B7Dnx/3Y82Nv0HLPw9d4fKXXo/t37PgGDz3yAhpabkZpRTfKq6ZngdUBl0Al03ZjwcLfY+fO4gbqqdNnJAJiQM0mDiOTiCxC0GTfS8Jx99s9ua/39vajt7cP7K+epOze6DtE/6dPNAE1Ql6gbv1gB1Ld96KiToFqjEqgWqP6r82gqr4bbR2LsfzJP2Htus1Yu34L1q7bgrXrt0r/6rotYOP1V9fz9c3udb0m967jva7J/a9twava1r62Fa+t+wAvv/weHn7kRUy86S7EqrpRXj0V5dXTUF7twCqMWkl2JVC7EavswoKFT2Lnzm9wvIhtVAPq/n0HRbsJmAKVbaDL7pUtCbw890oYMM913jskm9JpKvC+3OucBLzGCUbVPwioDAlsFdVPoGYQq02JTSpqP97h1D8ZVo4JZJoCnagfNRM3TJyLsRMXujZpIcbeNB9j2CYtwNhJ7OdLP3biAr3Hen3PxIUYM3EBxkxYiDETrF+EMRMWYfTY+Ug03Ayn4g2oBKsCtXIaYpU0BaahrMKA+gR27vy6qIF6+pRjVKrQ3d/+iI8/+Ss2vfsZ3nr7U7z1zqd4620eh02vv/MZ3nrnM2zKes3d9+Ymvi9476bP8NYmuze4nvXez/HWppz2dnDO47e/kPb2O1/go4+/wre7fxRnrD8fUBlDpY2ankbVT6AmEUukUV7b4cGZdZygo5URx6qkMo2Syoy2NEZUMTqQksiBHFemMKIyhZKK8L4MSqrsPR0oqejAiIoMRlSkXV/egRFssQ6UVnQGbEqQGlDNBMgG6vwsRs22cUJ759d6LM7UqTPoO3gE3+z+HitWbcTM25aivXsx2jrZlqCtg20xWjuXoL3zHj1fIufyeuYetOW0VnnPErRm7kF7+h60pXjPvWjruEeuyTHP2dJs96EtdR9a2Uu7H23p++Uar7en+DrPXWtPP4gZsx/DM8++iX98+wMO9R8ZzKh0prZ+uB0pApWMGk86j9+AKmwaOFZ1aZSzJQjkTpTXdqG8thOxWh53OnDzvWw1na7F6aTxuFvuj8W7EJP38dxdk/fK/V0orw4Z1ABqfeRQeRvVM+qwjXrmzDkwhvrGXz7EpNQilMZTKK1td6HGGoYdNfRYk3JkU51GSRWbEog/1utCRvZ6B0or2TIoq+pAqbynAyWVjnBKKjJCPCUVXSip6HStnH23axJe7EQp+/JuF27kvbEulJZ3Y8KkO7Dxzx+KzZsbtbmG6I28flP9DEs5b1/ASLVvZoBct9cIMgWo9F0SzhJnjPfXumiBB3FNFypqu1EhIO0KgN6N8hoHeOl5fEWwOjZlFCBS/U9KhqqYbdTTZ86K3bhi1Xo0j5mF0tqkRm9ILtrMSQ5lx9+cTeQWyLQmo4Sjr6vsKux+Eo3IizK7gtw0SuOcYtWK1S7kWFoxFTWJGXh6xXr89NMBqT8JNd81tFFzgVqeSOmgIts0AirtVmsKNrKlNAWqvR7PBaqyqjKrZ2SeS9MfQwZ+JVaN1L85U1T9jBSwWCV3RoaD/rUei+o/7YDa8yyBOlvi4iK7uo4o5GhAFY3otGGM2sxrRAMqtaJpRsrGrvNYZWakw17AO5TcXGjRNCHDixZijFVOR7x+Np7uWS+pcBZKhX8+PJXqvgcV4tnTmSJQA7DawIxlTe0bQAWYCtZEpzhbDoT6I5hpIKo9AKUNkoMmg9osvSJQaQYwAuBaFJ5Sr7+ogXpGGDUCKhmVTKrmm2lH05BCJjTFjGxIJu6csXNvvnmQEqwBKE2GggXePxSrqswsFq4JHAKXcXACtWfF69izJw+jSsBfwlMBUONDAFVAS7VusysYYC6AaZsKSDvgZizVe54WAtV+BFH9V5idGrLKBupuKVEsVkY9fdoBdcWzr6P5hptRVpOCN8UIViMdiZU7E48xcsemKsta50OI7ASg+roRiZc9TblAnnFT/12IVXdrM9/CehdijMKLmsCp7EaifhZ6VmxQoGZnFsVGlThq1xJUMGVqIK0LGFVCUjojxZFSk8DPTmNTdbD4hZVtOStdU2D7wdoAc5jUBj7kzLRBWxyVdg7jqAxPFXcclZkpZnkEqGNuRpmGG11YMYiLK2AJUmFO/u6UmZCN80lILt4kMLmxN/atVaDyfXy/t1GNVQsRzXQfZvSZRgK1YRZWrHhdVf8goFocdQkq6lMOqHF69inXOAtNTciMDNSIqBN1tBSYnjENqPJDWFRAVYMNVkCpQOWxXFcAcybLwANQCoPmnEsclaqjC/M9UIs31x8BdT2ax85GGaM4CVe/4WxVjdrQZhW5qr8hpJOtHYVgTOWztyaMSmAb2ajsRAuaWWBgzZGXhRirZwSZRsqvG/H6mXh65XrsyetMHTqKrR9peKqBqsCYNAAqbRxjUgEnwZtxIShTJab2A7UgoJXQFGctB5pr83BQClRhYQ1X2ez1MzR3sFQfek0yU8OMSsfDcv3M8DhGpTPV7pI4tWkHTAsvUm65QPWyU2alTM1OZc/7RY4KRiEjIxb2QbiRMrxS5EaSN5bAmYra+pl4qmddARu177CLo05fgorGDGKi8mnXkDkNtBrWkFkXzEB+aQ9cU//BrBR1wvv1R/E/hA6OAzVQymv6AwjTBjN40KADoFZPlcopplkXLKIzRRu1eL3+LBtVVD8ZVR1kA6nFxsWkswiOA2GsRkmFTrHXkoE/IqxqcuI9IVD12LSjyC2XZOzc2aoSAah09RpxsVFN9ed6/X0u4J+etgSVDbRhQnCGx5yRyqQGTs44O7bZqcF8BvhjHCwBKAPW2aiAjKln6dQJB9iJKDbnzt3sVTAPMTvFmRoGahaj9tCZUtUv2lBAqn6GsaPJTrViBavkaJd6mRkQzSlW8uD7eQ+BKKQS9qYVVVOa5svbu1g4U+GMhSfqaKNuyB+ekjjqR9s1hcraU2XPsCe7CsMG9ukg0FoSwH1pGbDNSPYyMGNJeoVd0Y+iM7DCYnPs/XtMhWgIK8+Ay1jyJ9VTxqhFbqP29qGHAX8BanuOZlSwEqTebAuuEaxqromqVxm66E0eoJpGFNCGICVQeW7yMybN7V0slWTjvP4C4SkDamraElQ0ZBSoZE5lUAKWkQCxcWir2qDMidJzMwsMnGEsTlhUZ2CucS6v6YzMGrR6knaNjMqB5wUqi1KCMr+iVv3q9ROo4+hMtTv5iTxDDRkCNTsZIMXyufI0uYaEI8cEooHR5KgANbmLNswvO6vfIKvSmepZsT6/jcoKf3Gmpi92QBVv3+xTGxh7PSZQQ7Ca+reByYoAqgqLxQUqX2YdBxOqDgNwl6j+CvMs5V6zjdQmKjBgl5maigUL/4BdO78u6qUo9PpZerdi1etoGT8bpYmkOFOOaFSGXkMG/gYZljJkvYdnVSdHF7ZSE87AaYRDG9WAqvKlZmSq3LGpRW+GAqoL+BujcpEmV6OGf9f09x3Flg+2I+WBaurdwErGtGNlVA9WM8R1kAJaZ4xHQA0yVSFQzSj3M9TF5LLtVAUo38c2JFDJqE9i185vinopCp0pLid3QL0ZZSQYcZrCyA0BazLTniA10pHQFes+GEeNYuJivnl5RQTjzDRV+2KzqvYTU85kZ32u6p+KGPP9Vd2obZgluf49P/UOBqorStmO9HTnTInXX2+DIkA5ALVR4yldR2Xq30DMnvdx0DpAOlXmEXqDO5yVxpbsjWEDu8a/JwCrqH8DbDTgssouxCo74cv8ijiFKkAlo65+HS03zkZZwlKoyqZmynlWDWTnNaW7Jraql0MgO1Pppv1MfrxXwoyBzIxkPNFEcgvNuLKqbsQJ1B56/QWAKoXTLPNTr7+iIY0KD9YQqC7OyoV/zttnb8cG1JBRzQRQUJp5QHvHD5KmQABWOVZbJ66ZDw6SP4L0OpOFXd2gBahVnViw6AlXPXWsuJ0pLhln9RSBKnFxkaUBVUOPlKHExulrEIRqpwpYKUuLm+pvT7nk2qkCUIuNUz7dELUvTpSq/hCocpzfBKAz5XL99PoPDmZUVzhNr38xKpvSKG9IoryeQM0IWFmowmZsKY6VDJAsq+D0M9Gds0TQUqdyj4LPX+O52DiR/SppPF7jjyGgdOwqpkA4q23gWUDtRqyqywFVUqjFCVRuxXPGUqir16N5vDIqgVpvQFXn2JONMmouUI1URHYmlxyweqAag1JmDrBR8N+uRfeIqqe6Dxxj+hkujspcfz6g9h3Glg+/RGoGgZpBeUPKNRlcWpanVAhrGnsGAzYAm9r3gHUmgIBUgOcYVQqmDWj+hyBYycKud6pD7R2zcQTYyrz2/lygZuX6ixOoP5+/JKtQJTO1+nXn9dNGrc8I+XiH2BxjAatpRDrJHSivV2b18lFwMibO317Uu2lEgk9lK/askownFmPjCKTiZ7CGmOvc/Fo4d55omImelRaeynWmpMKfQF0iQI1lAZWs2iHFKj5obPaqV/lBKpVMK4Y7B80fwEJYTr1Elf0cvKkWN1AfZ/WDVHs1BKsBlj+YANWpEbNRo6KU4gTqsYGfcfb0OXCrHHGmGJ6ijSraUWVCcNaSSMyMU2fKSIa91QF4GTn5ibbzYccAuCQaK24xjShmQo6DJdEBB1qGE7OAKjbqDPSsYAo1j43qlqIYo6YRo+pvVFZtyEjIimaAV/0EaFb2SsHJAYotZDOT9+mPIF86MLTlXGeq2ao6M529GsxEM87jBlx9zYOVs7ELMbFRn8Rfd+0uWq//H3tPgEtRevcfwkoJT9HrJ1ApT5WHEY1UybFYxZX6eYKhljTQGlClp7xMLio7Mwt8hZwWHfG6ZCUNqGqvkoRUblIGSEZlbap6/fEGVvivK5CZOsQU6g6kmOtnwJ8gNFZtSCHLsRKWpBcZqn8FqmSq1GaVwapKkUEaSHWAIVDtx/CDDtSKqBkDZgBUDlZawKgK1F27GJ4qzlz/9n8edkA1Rh1/M8rqkkIsQjbClo5NLdMoQCXLWqZR5KHsSznyXDQjZceMocmSUR11nLUc0BUeOQ1ZwZS4aEcXU/VxVVm6wlpVkksAVNqoQwHV7ZTC6imW+THYS5tGmwGVs1HYUtk0h1Fj3AbIZpG3W41NA/XPewhSK3gw00BASvAZSK1XkPI9NhvlM1QV6ex09k7oTBUnUI8OnIts1FVqo9a1izxJOGKrmiMsppsxqvkfob0aXBOG5W8egZTHlla1utVsoDJi4xiVDrGPjyvJCFBpvhmjClBpozIzlVf1H8UHH3G5dBhHDVhVnSo3SDKpsSnNAc5EV+soVeIy+wKAetDarAxsHdpB9gMIUNVWlYEoMGVGmrqxXu/je3hvbRfKZHZ2Yr5UTxV34bR4/b0u4C8pVAJVCUdkaOaZAtWFF42AzIzTKIGA2kwBlaGRisbJXV0Aw5AuTGWgFWJR+XmgmjwVrGEZIG3WWjLqyoI26hWAqmwqcVUeC1AJ1sBuNQeKDGn2jb1u6obA9CqkC2Vxt/OK8/Z1OTWBbjWrNij7YXgu8TkFrA02AKqU+e0qbqAyhbqP9aiaQo3VJzWKo2ac+B2hg0xZqjlHYHrGVYDKNZWd7KSjaVXKg5pRycbY1ZlkAZmI3FR2gcy8hhRW7ZYoQC29/kK5/n7aqFI4vRiVBCLVurCosSpjq2mxVcUglxmpzGoDExtH1Ya/RmZVMHP2yi4sHGQnSmvc1kCJ5hmoqp+qAX8bnDMVCGDXjF3VIJcl19lgLavuQKyqwzHqMFCxX4HqGFWdKXGo1KnyCR2zRYMkgMhKAauy5BIlAaSQTQBUMeMYZ6dJp+FFAaPJUmVnAJU+cKyMfKq7USprpmZiBZdLF1rcJxtQSBxVA/50pjgwev9sXv3rFzYg8x6xVzWfbKqfr5v9KczqQCyzLt6FePNMzLz133DHPU9j/JT5kc0q6pyDU5CyiFeiAQSmGyANdNci4JZVc0eVXKAW504pshRFc/3N4zTX70EayVKcK8ZMvXwoQwWsB6tj1frrkkiM4jIl7uhIoulCKcFV3YWymg7ER2aQGKWAFQ3oZOhCjpSdAVcJRgCqfgiLl6odo9KZ6llZwOsfOjylrOqBSaBaqi2YdRwYywAZn+PAeQ9Ba023ASJ4r584B48+8TL+4+t/YdsXf8P0Wx6S9zgTQCtxtHjX2zsKVgGopunEDNCZKkCt7sD8O57ATs+oxQnUM6fPyZb1shSFmSl6/VlAZVKHNijlqKpbGFO1JMFqWpFyq8ugaVwKoyakEW/JoO76NFomJNEyIYX66ztQ3diBURNSaLgh6TbZE1mp7IV46ICpEy1kY76F9hInd3uHOaAao+YE/A/LTinbXWbKlqIYMC1M5c8VqDYLOSBT+wJUm6EBSAWsbmPgUeNuxlMrX8PBviNSwfXxZ39DZsa9bqtLMcYt7ORMBA9UHbBnUx2c2DlxOlNkVOb6n8SuIo6j2popqn6Jo/qAfxoVoh2pMRWoov4t9k25EqgqTyEbpwXJmDUjk0jdOg5zHhmFxU8146HnG/DQCw1Y0jMSty+9Dh1zr0PDmEkuXEXyEHkpY9p5vBMViYBRyaoWRahxKXCXmSJQ83j9rJ7ayhRqrtdvs1BAqgOpS0kIK3KYAqASsOJokVWzgcpdrKsbuzB30TLs/vYHASmfgrHq+T/jhom3y27WkXowNeGW6jrVz0EHNY45QBVAV2Uk1z8MVBZOh15/wKiUqcqVwPUhKyMeJRVzmBljjY9qQ8fcMVi2vhovflqCl75gK9W+BGu+KMHyDSWYfncjGm5ocxEYEoduOsLeojOCC7FnDaSOaXkPyaaucQZWrCwAVBdH/dIVpVjAPxiQBP95Lk6W2jiiOsxRoqrX2chlubVuIy4+C2BETbu031S0oW7UdKxcvUEe+XLu5/PY+sF2dM98QNZVXavPDYiJ6RCqDZ2Vnm0DQ1zA6maoA2oH5i98vOi3nfRFKavWoXncLJRpHDXLQTbyETkGMXICVjUkyaW2pRWdc2/A8nVxPLGxEk9viuHFT0ux5vMyrPm8FGs+K8OKd8ux/PUqPLa2FjPunIC6US5cGJVuGvEom3ozQMGqBfYEaqJxugI1X+G0qP4vg8LpyOAOM1Q+CcDKKg6QKoTMKbPR2TexRFLWkVfWc//U6WgeOxNNY2aiprkbo8f/Fs88twG7//Ejtn32Vzy0dDXaOxZj7E3zMHLsLahtnOa8fIsUcHZzNlrL6zE6UyHGGVyTwfw7lgc2araNE1aL/1qPw72nZJM02qj1jKOSVSmz0OdQgIosDayUqTnGaYzrGItH1sTxwifluO+ZWix9qRrPf1yGlwjUz8qw5tNyLHutVsyBnnfieOyVUWib0Y4KZqwYZjQTwGRIdS+NcrXjbsRqu4VRHVDpTOVR/bY/amraYrdc2thUVUQ0OBukGdu0b2iQO7OAGa3qpgwmtM3Bnff+Hk8/sxYvvLwRz63ZiCf++DIW3/8Ufrf8eax59S28vnELXn/jfby56WO89fYnePnVt/HAI6swoW2hPEdAwG9AlawUB2bAzY6nMpgs5kFNBguGgaqZKRZOs8xPGdUAyt7YVOUsKXJjVsqSS6trM6htbsOsJU1Y9aFj0Cc3VuKpTRV4cZuClED9LIYV71bhiQ1xPPdRBVZtqcG8R8aiblQbSsWpCohGwKo+iAdpANaqLiQaqPqHBKrWozYSfGrHDOptBkZA5VbqlnatbupE58x78PLat/Cv7/bg+IkBnDp9GidPncbhI8fwzbff46NtO/DF9r/hp70HcPIkK5wuyPNPGVLh7hgvr30Hk1N3oaLO5ZF91MD2r5LeBud6Olii+qs7gnrU4kyhekbd14eVq9ahhao/4VKoHqAhaGmnNtLRItuScJzPUVaTQf31UzB3aROe3VKOZ7dU4NktlXj2/So8w7a5WlslntnM6zV4dksVVrxbi8V/HI2RE25CSRVDV7RVjWDMb3H+hmNUmnLdshJEwlxN0yXgnzeOekiKUtTrDwqnswBrM1HUhAaNtXTMPeInjbaOO7Buw2Z53mkh1Xrxknu4bqHX9/UewgNLVyPePAMM4nu1L7WOgTrRHLKpD0mhSnjqcezY8bU8j7V4N0lj9VS/Y1Qul7bwlBCPAtJY1Wo5GtOIUZ6NSdRdPxnxkVOQGD0JbbOvx60P1ePWBxpw24ONuO3BJtzK9kATbpFWj1sebMCtDzTj1gebcfP9LUjfPgb1N0xBdWMGdaOTqKRp6FU/ZRpoxMApJtnEGxlHLZjr1x2nswL+as9wcLlOlIFWbNWM7GScGDUNT/zxJezb31cIg1e8fvHCBXzy6VfonPmAhDFEnfsB5kQAvOpwqsUBtdPFUVnhX9RrpphCdfWoLuAfZKYMoNKr5hS13yFAHd85CfeuGI2Fy0cjefNY/Pae8Xjk+bFY+sI4PPK8Njkei4efH4tHXhgjrz+8eqzrnxuPeUsnoXVGG+Y/MgkPrhyP1mkpVDHs6Zk1zGKprcoQIxMHzUMwqgX80zPuRmVzGuWNmhs2QFIdhAMUmzQC8oiaNoxvm4vNW77Azz+fvyIgC93w094+3Pvgs5KlYorVh7ho61gLgBvNUoY2mN1gUYqumSriB6LZlj4rubhPAv6h6jezLpIffZCyugyqW1L47YMj8fy2cjz9djUWLKvHfc/U4cVttVjzaQ1e3Ba1NXJcjTWfVsv1F7bVyD0vfFyL373cjFvvH4M//CUhr895eBwS1yVFQ0bko+usWArI4pYaFwtPNFl4Ks/+qO6pKKr6CVTzEENw2rGBlCzbwBWpSZTE2zHjtofx96//haEfZF0IosCp02flyR03ti3Cb8q5VxJLAQObRhwqMwVom6pzpY6WeP1U/cO7+YFA5baTK1dzcV+e8JT5HmLGOWIqrUujelQSc5fVY83n12LlezHc+Ycq3P9chQtDfVGCNZ+z0bGyln2NsdUXPy3DY2vjmLt0JHreKcfLX5Rh4bLr0HB9qwNqSDSm9jWaw7K/IYFq9ahpqn4BqtqgZo8aSKXXGaksK1sa1qWwcMnv8d0P+woj8Qqv7D9wCI8/9Qpqm6bj2kp6nppyk61luIeVglaYlTaOsazzIl1tI5dL2/6oxbkUxWWmDKhuuXTMx1FN1Zt8WcfhtGdp3GWf5i9rxJrPR2DFu2W4g0BdXYE1nykw2Yunzz5s9P5L8dLnpRIReOzVBOY+MgjjwN4AACAASURBVApPv12Blz6PBUA1mVkkwNWrujpVV0idoDNVuMzPZaa86m9Iuqp+8w4NqP6cA3bmAIHK48UPPI2f9vZeAY75X750+TL+67s9uOfBHrFNS6j2fUjKlf+x5tGt19HBcmZaXJXpN6/6GfAv9jK/HKBKHNVpQGrBCpMjew/UjKRJ5y9rUKDGAqAyuB+GpAyk4bUSBWoMDqijPVAXLRujGSv6GSw2CuqVhWGNbDoRb5qGnpWvFa6e+uDDL+GB2pjUvLAbnAzMg5Wmgbb6lIY+CNQ/grtb/JI/ssC/vv8J9z28UsJSAlRTEcaoAlSqfm0SY7X1OTTEXYhq/qLHsaPIgcqiFHr9K1etx0iu6zfiMa/fNKMBtTGJ0ngGtaPaseDxerz0+Qj0vKuqf3WlY1HJQhmjhgC14wCor2Qz6qLlN6BhDFOrHYhVZ6JEgJCNOVMOxHFl1PzhKXkqynZQ9VdpeEoKGMQbtGKGaEZartgZ4e0oq0th3l3L8V/f/fRLcCrvOXT4KJ557g3Uj54lj1qX1QIciOSezVY1oJpZoOc1nS5eV8Pqqcc1M1XMqv+c1KOGQB1crqkkpKRUVpdGzeh2zFvegDWfqer/fRXuW3W1QHXZqhe3xfAYgbqUqr9SMliLHr8OjWNatVxT1T61oUVuaKtK+JGMOpTq7+NzppRRQ6ByBoZqws/I6LpzptrQOfs+7PrbP3D5F3pTF85fxM6/7saM2x7BtVXtKK222FsAUgGtqg1jXA15SGCZztQiU/3FDFS3mx+dKWHUeqchhXy8I0XblCaeM/NK43Sm2jB/eR1e/uJarNxcgjv+WKk2qqn+oRg1AOqrCcxbOgo971SJM7VoOSurWrPDU55NHaOa1884qjxnKl/hdF+/23FanKkAqK66JgKlgNbAqmwbq0/j2uopuLFtLrZ++D8LT9Hzf+u9T9E1+37UNk3LVhHCrixiUOB6oLoZKkAlozI8tau4n4Xqi1Lo9Y+fDS5FqWhKSYtkmB2m4rKgyqZ2zLo3gec++g1+/+YIzHmsAvc+S0Y1Z8rUvNmoEXClUOUzev0xPPpKArfcdx1+v5GhqzLc+sANiI9OitazulRZvcqaDnOONaEzNKNqUYqzUZ2BLQOT9BpTbArWHJCaQ8U4atOYGZLXP3rs+C9W/3zj8eMD2PTeNvCR7FzeIEFic6x8H5gACtgysX0yjlF3FDdQpcJfMlPq9Te0e6AK+Zg8qS1pr0pPGSdxQ+p63P5vdZh1bz3ab6vHkpVVeMnCUuLxE6z5gFoi11/8zAE1fesYzLx7DOY/2oLxmcnyjF0JKWo0h3IV2Wr0hsc+hVrI63dP7stxpnQGZg2sXusX/cCcB1maaEd1cyfueegp/OOfrtb0f4LWv//HPzHjtw9LiIqPnLEd5ay+0c3KbLBykDTUxUYt9qdLmzP1nAK1vl3IxliVvQMnY6gkJgUrIwJN7agd3YbqkVMwavJY3P10LV7W+lMXmnKsylAUW3SN9ak8j+F3f6rDjR0TJBsVH5lCpaz2ML/C9SJLgjTQjNSKV82oVTIIDox2TdDUVvXADWYi7VS25LS78da7n+Ds2XO/GKfnzv6MDRu3YvyUeSjjrGO5WOD5u5moK1ZtkHE6U6wD0DK/It4kzcVR3Ua+K5/LsVGNfDxQtSBFzL0g5JhIozSRRuKGyZh970j84c91eGZzAs9/7GKqrJJa8U4CK95O4LkPea0ML2wrxTPvV+MPG5ux8NGxaLlxCkqq1ckVc80cYwOqk5dEcagp6RBXhUAdoh5VVH8uUJto32i4ijNOq21M7Uu1jYap6q6bhvuW9uC77/f+IqBevnRZqv/n3/kEqhu4uYHVu7LmlfYpZyBVhqsez56NxqhWj1rMztQZqblgmR8zU7FQ9RtYKUcz5XhsIUfxPci4aZF704SJmDjtetxy/xg8/XYCf/r3Ejy2rhoz7h6Jznkj8W9/qhTGXfleKW5fWofJ08dj5Ph2t5pZ6pRt+Tx9C8rN7ULujl39hpVvsnC6Vpypguv66fW7jXyrNNefxaZmiHuP0akOrvOXlYx8NlVdWmKq49puw6uvv4uzZ3/+b4N1YOC0rACoHz0DJTV83AwH6Qbo1L2qDwtrGKPKMgYF6qLlUuFfrFv6eEbt7YNnVHr2gb/hj82Eo1xVY4Y972OJ4LU1kzE+MwVPbmjCK9tLcN/qWoycPA6J68fh7qcr8acvR+CpTTG0zh6JWB2ZlBuSWEG9W3dlmUbTjrLLCoErNqrL+/Ox6vFGF576aagdp7n3VH6gOhPAjG6rX/QFtxoB4GZc3F+1+7f3yT4BuQUqrD3lBl409nkc/g0MnMKm9z7F5MyduLaqzT3wwjayMCeKwBRjPDdkRUM8g1h1ejiOevky/GPQhVE14J8PqLRPCVKt2xB71cCrwGWMnG1iVwZPbmgRoD6wOoHrWyejYexkLF5Rgz99WYKn3ipH+83Xo4rlgmRSk52wqj0TIId05DkBtiyeqr8DtQ3TdaeUPKp/UFEKbVNR+TSu7Tjc4S+n0DawV1n7WNPSiVlzHsKWD74AN7foP3QUO7/ajfUbt8guyCtWrcOGP2/Bt//8AYePHMcPP+7H6xvfR/fs+2VvpNJaLmuxGUn1H1RSEbQWopJ7HGgFqDXDQDVGlR2nBwFVfQ5qSPM/vJakfK0cMMo+ClATSUzo7MCTG0bh1e2leGB1Ha5rvQkNY2/C4p4avLL9WvzxzRimzLwOlXxEqS2ZN/nIwyvoFAdAlaIj+hrqh4iN2iHLkbilT4HMVFCPaqrfA9XF37y6kNCGDURnTs4sjNWnkBjdhWm33IdHn3gBjz7xIm5d8DtMaJ+P5jGzpE1on4dF9zyJZX9Yg3sf6UFy6l2yrqpMVrIaOAMbVbeNMVPABmiAjrx+qn7WoxazjXoW+7k1+tUAlT6JgJUg5a5/rOFgJMAiA+6Jfy03ZnDvypFY9X4F5j3ajMZxUxAfNQW3PVyHZ7eW4MEXKnFDcgwq6twmFZ5cDKxGLtSKJJug6EjOab6xHrVxGnqeWSfp+MFPRdHl0lEcdXDczc9AG4Aa307962DNzuGsqk+isjmDxHXTkBg9DVXNHe4hFbKhGgefBJeusOC6tqXbPdXantVpi/vIpDpA2WqdgxZGtZmo7JpwMbgsr7+ogXoGvVyKwszUBHWmRPWHjGqOsesdWM1WdVkrH8KqT4PRoCmzxkoUYHzneFQ2toszNiY1Br+9vxGtvx2J2tFT3L4AJBXKjVlDY1HvTwSpUwOsmnOMhQtQC8VRswunOZsKAdWpDKu44UDItGa7Sm9gZa1qfVKWQZTJk1Tc01TcTKOxnZLnyJfVMGNhz0EyYCqj2ixkLFV2WmFIQz1+C1lpBICqn8t759GZ2vENThQxUJmZkr2nnsvx+k3di+oPgRoUygfy83JVGVc2JVE90sVk6TzTDq2oT6K6mV6+PnnFkwxBSnnmmm3KqJLrj8w4akgWrYgzJXtP5VmF6h/fI/WohYAaDSwvUHMGyIor2f2P9qvWrkpIi7ON52RLKfcK9juy8i81wI1N/UZrBGwhoDKzQaDesUxU/4kir/B3NmpOZmoooEq5nwLW261mFrie6XIWr3BtlYUnSSDiHxCQlGsWOAOginbUYngyrQcqwerW94vqlzK/AqtQ3U4pQYW/OFMRMH1GwwZqLOrjqqYyzHY1liUg3VJqp1psPwAFr85Kt41M0m18IEA2G9VUR8iwOiM1tMGYKs0BSQ5IwH9Z0ef6GVXZz03SuBRlAr3+fBoykC/laTIlsXBdP2Vj5EPgiqkXydnHXeV+k7PtmmPyU6BSMwr5mDxpFhhANTulSRvJTD1TAKj9LEr5SPfw985UMBALEmtfmRvqCAAry25tRhrobHEg75O9ObV0kPfJANzmFTIb+R6ZfcGgZKA8j0Aqs1DjqVyyLanW2jTmL1pe9PWo8rAJ3dJHnjN1FUCNnGXTgAGbZoE0ACuZVUOTjpAIWN1nVZjV7NQgXGU2q/obkryh569+hhVO591x+lD/YS3z06UowqhRRioahIKXgGXmQps3xAlgzkKLy2UNUL1JMQlo25gJwMERnDobBaQ6Ew3oMigFqvciFbQa5nCMyvDUMgVq8Xr9WdVTwqiUpUZvrDey4bkeR3l/ZVOypbQcZ9nYl6RjT1uh/ESGasr58wCkImfK2kiIbOrWvxGwPtdf6KkoFkeVwmnPqFH8VAYZDswG2+SY0duiyqxeZeQClSAWttWMlv0QAk4OVPfmNHvH2FUGSPVhAzR21b2LuNSWqVWJow5nppzq70PPlVKoOTKN1H/EmiIvTzxKRGYSkKh0AxLvd0h4UUErpp0ytBGMyVAiAgbUCKxU/e6pKAWcKe44nZ65OMpMBYH+KOgfzb6sGSoAdPapRAH8jAtsVgMlgVqXO0AdmJ+Rdh7YOgZWsW0MsBqPS6iNWuuqp3YUffUU1/X3YcVz66Jcf3MKFWyD5JovTm42qWpByiwkHSEbB2ZxmrkHmTzeSclGdnQ0GVqvRCOkZPl/ak4lHYnedCDewhSq7Y96KUxe4hpZhfrRdmRygdqcRAVb4ESZmsgCqgBTgcoBBededdjsUqBKio1qg6DNHZjEUznAKwCVs1M2FabHzw0OnI1a7IXTtq6/Z/U6NN84E7GGtryZxij7GBCQmQFGPkYwlGsA0EhrUksqUHmvyFJDVab+KUeTvxFOaNax7ljW9XMDCi7uK5CZMqCSUSub6QHm2DTy5S1YzH7wwKJrBlRTH6ruxaHKtX3UBBAVbzNPe1UhPtAvoLQZqDasqBNnqzJtx+0u6Uy5HaeL10b1hdNk1IkzEGtslTpTRy5KPp5Z88tSyEaYNJCjZ9VAUwoxWRRHicVAKQ6V+R52D+Wr7GpgJatK4XTGrUJ9Zn3+zNShQ3wqypdIz+ROKXmAKjZpYLMGQHURAH2NBbjSdHA2A/nFObvM1mEBtr1ms9HukRnH+3UbS3mkejAwm51yH38YF+Zwdarq9Rd5hb84UwxPDQIqi4ZynKrAmfJa0ljVm3AkGyUZb586gPPzBDPCuOp8UdYSEyehmI1qGGBvhEO5qrMlT8jRLX0KZaakwp/hKQK15UpAzTcDDah8r802/dI2u9gHM9RHB+QHUNUhYDV178Aa48bAAsoArDITdZD6WhlDHLRR73TO1PEifXKfFaX0Shx1HVomhIxqZJMD1oB4Is1IWYaEo4AzgqEjJbsAZjOuONaUo5lvBKp3sFS2Ypeqn2Gasi4DylD2nhKg5qme4v6oEkedeRcqRyZR3sQAce6ggnMZWGi72muW2VCwmn1jYLVBGmD9OYFqwNOZZ4wqQOU1Bar0NmA1AZh+08Vh8+8c3nH6NB820duPlWTUXwJUY10C1YOVQKWczFa1CrqIbSUJ4NW5yZFA1Y2BjXAIVGNSuebKAA2o9Pr3yCrU7I2YxZmSPfy5SVoLgRoa3+ot0qkKwZsXrAxfOAA7EyAArNg3qj6EXXOZl+Cjc6QmgkQAdDbmzkgOjvaPDVzqADoRk+XStFGLfXHfGezrpdfPopSZzkZtbkcFm4Ew7ENGzbkeAZXMafJUcCqjGrOSjUXu4uCa7GjC8TgiFfH0BdAEs5Oj5PprM8KoBZ/cZ3HUVAhUAWaoIgKghgOz46wqcqtdVfUf2DXiLRpQze5hLwDVGcuBeaBygHZu4Bzcc7mveP2a6z9exLn+M6fPYD/DU6vJqAbUNlQ05xJQUkw9Aa/JMQeoYgqY/My38OdKPHbu4+gqd2pFY1ORoaZmCVLTjGYGJLhCJO28fpb55dsaXYDKJ/fRRhXVz0G1ozILrAFQORgbmO/DaIAC1VQ/B2JqnrNSQBnYrPKaqhYDqfQKUg5SBsrzwWqDs5J1rHyCh+zhv/Pron26tNmorihlHUZONKAqo4asSvmajE2OQwFVUuAmyxwSUnNOfA8DLp1na6EMA03oC48I1LoU4i0MTxWIo8qO0+ZMBUC1OBu9Oh/aEPWv5za4PL2oCc4cfmmzc2QAeYAqQObAGVflbFMG9WaAZqyEZUOgRgZ5CNRiD/i7B6K5gH8WUFvaUcEWgtHkaTL0r5kP4khJZGiEYgRkGtHLT8lHriuQeWzyFPnx3DSiyc+dU4bxlqmF46j+OVOyka/aqGLT6IzLAaoHrg0uT++LFcSuUc+QgDVmzTdYzlgBKkMWOhvtfhus2aZ2nzpZDqjJHEbNXpeVleb4lZ44Rj2DfXsPiup3QHUaUkBKoAqLUkMaAeX0lCcBLIke95oDqoIvNN0opxDAQka85ohHtKfIjARlKfIArKIhWZRCrZjxQHXOVE5mSsJT3HtKwlMhUE1dmNrPGVChgXJ5gxnWMtscUL2xnTUD1c7hjyODDAx22jghqxpYBaRBFEC8fq7JSWL+nSxKGXam9u07KHHUbKAmUdFC8lGwihmQB7B5gMp4uZNpENkRMBooVW4GVDUTJFxlQBWHSs04hq+89nTMyvAiGXUIZ0o3SQuBKiGqQkDNMziC1pi1SReKWUyVM84PQNUDmTbLJAgG7CurlFXFKDc71Wajqg01xn0Klbv5Ff0GFGfgF/eZM0V5CkAdSMub2zUMWYB8TJYC2ki2kcxygCkyVtLxsnaRAm/OmTakvSpxVjMB3AqOSPW/VsiZygNUDqqlHTagcrNlhEVzGDYclByb2rDBKChtVqp36A1vU+8coIJaHrtNBiWjmm0jDpWFOgjUaKCi+i2FuvMbDFf4u3X94vVLrj8AKllVbFWLl+cB6yCZKlgtRGUaU2SXA9AsArI0uTlWJj8LW5md6uo1JNcvhdN59vB3uX5T/Sk30xSonIUEK+0asU19BU7u4Ayc0ewzhnVsqqA1luWAvZ0aMK4BVV7XcJWBNQSsRQHUMJfwlHj9XIpS7Kpft/R5fj1GcXFfo9qoyqiM7DBeLgwrTBvIlvI1n6QAWLNYNR9QjVEFsAbUwIk2ghG5GtkoUOn1F6rwdylULfNjCrXJQlOcccFMFFYN2dSOg56DC21XnhuD5sw0AbAMVJmUX9wP3IxxDkTVvoU4jFm992jhqRTm3/lY0QPVPwb9uXUYOYkp1GygOmdK5apAzZKZya8gUAM7VbSgyS0gHGFcZ9dyVYeQEuUrTWVKWVO2nmzU639mbf5HTB6WohQHVOb6OdPcjFMASrxNQWuDyALtEEDl/TkDdkZ5ro0aMqxjX7cKIAeoMjA1B/yxApWq/87Hhp0p2c2Pqj+onjI2pWYkm2YRUG7IKodsvMz1upCPgtPIxxPMYLDKJJAnQlKWlgQIzDpuUMFcv2SmyKi0UfOofglPWRxVGTUrlGFA5WC9rerA6UJVBtRggDng9GDlDLTZJvaOG5jkiWkKmNrgMb1Cbx7YwBS4HLA0sm2HhDZcPeqw1+/K/DSFOmkmYk2tWY4UgUr1750rgtYTTyBDA2gBWXpZCauqVgw1pIFX5G0akiRjsmOva6wYnsoCasEK/6B6il/cgsMC0mBQAlYO5r8JVI2RigdoYDUQSihDGXUQUAnWQHWImggGK/YOgeoevz5cPXUZsq5/Xz96RPXPdLUbyqii9luSqGpheV5gp3qwXj1QST5XBquRj8pX7FKVH+OqBlQp8zPVX8Dr9xtQzLwbVSxKYU5YAsPOiXKxtwCsnlXDQYWsao6V9eYx0l7VdVYcpLCmDiAArbNd7XoAVG/TcKA2E3kc2Kh8unSRO1MGVFePSkaljaoxVHGi6DxRnpRZrg8SylSPhVFzZKksOwio3s8giINoj5KRVVixfNPZpwSr7gZpmSlR/QUYNSqc1oC/B2rArsayVwNUUyWNSWQtryZQ5UtrMF8AGoJWj01tKICjVau2rMGSAc5EKGMFlSxFcRtQDBelMDP1GlomTI+qp0KZGsNSTuGxqftBfR6gGvgYyTHSCYBqpGSmnpl/vNcD1TvG3LMqiXhLF3rEmcpro7oKfylKkQr/YJaJY5V9Htmp4ewzRuWAlEE5WDu2PgRqlm1jDKq2jn/NrhtAbSZqr6pEAv7xlCyXLnZG5Zqpfb3MTL3mlqJk2ahKPB6c6iTzXNR/PpmGzJp97LRfjtYz7Rjaq2bSWdiR/oc3A+hnpFBWm0R8pANq/uopPgZdnKm7onpUG4ixqJ1bb4yZt6fDZNmpYCYKcAMg+wHlsWPC1+RYf4xwcFQfGrLidj6SQpUyv2KPozIz5Rh15MTpOc6UmnMGTJOn9V6eBKSRTwBeIxwlIR9TpYyMXASMJBglHXnNZMxrtnGFOVVOjmW1KcSbrSglr+pnhf+/I8UKfyucti9uQG3R2GozbVim33IHEZ7zOM/gOEi+zwarJgDPI7vUBhf2yqr8ASw/bEUr6kHKRmzM9Q/bqPLQXgOqqP5cRhXblDJyMvX2qsk8i1lDuebRkCpLb6uGJptn0RynS66rTFV+NAUI1ERLt4anCgH1Q3r9uhSluU2MbRdLVbVvQGUev8nyxDaIHGAKGANAGjCldwwb2i1+Vg41MP4AfJ2MGjbOVg4ynlRGdfujFnsKdf++g+hZ/RqauRSlaQoqmrNDVI4tVbbiUAW2KgErRJSHVbNkGZh4oew8WFVmRkS8x45FS1KW6kzFFaii+gt4/VnVU6xHzQfUwFYVRvWzz8AaMOgVgOrMAs1a8Ivblw8Hy+NcleFVioLVMlN8foDuu8rqqeGlKC6F2uNt1MmobGlFpXemTGb5gKqAvQJQvYNsmtMcZJGbys7IJZQrZc3rJBvKV005Fr3TRk2IM1UAqFzc98HH25GZdTeqFKjeEzRABkDNfs0GndNbLWPuDPSVVQpQA6Pe59bl2EB1MDb7CFTblUMHKCEOA6pkppZhR5GvmfIp1OdZ4T8N5U2TUdHSiooWDTt6c84F/qn6Rf2Lylfwqnk32MRTQgrlqvaqmHD6tOpsracp1xCwnnVZC8AoQBJl8XYkRnZjRaFcvxSlfPwl0rN0KQrjqAFAr3gsAwyBWtiW8fapDM4GoIa2MCuPCVA1uMMZKgPlxlw56l+A6sIbkkItcqByFWrvfuf105kqp+oXRg2AGso3B6Di/Rv75pNtAEyRZ3Au2lEYk6xp7KnPBsgCqspZN1oTGzWeRGJU11CPQbcNKCIbNQKnBYejmeazVjoznc1qQA1NAJt9zi51Od8QxHxgLO0Y/dJkSTJmqOJl5tmAjWGVcXm/OlfiTNXSmRqunpLw1L6DWLn6NYjX3zjZ2ajKqOUGQoLVQMrewKvH3sQTM8Dkq7IMGTU4FqCaoytA5cPyVF6edFSeHrgurlpak0RtS6fGUfM6U8fcc6YCZ4oDkPX9VPmmGmwg1muWw0UBQgM8G6yVfu8qG2TYE7iBvWJAFbDqgAysBKYd8xlXAlKX+6fHGBsGKmwpyoHefqx7YzMmpG9Haf1NKKmfhNKGm1DaMAUlDZNR2jAZJfWuldZPgWuTUVrvmr0mfR1fb0VJHdsUlCTYWlFa14rSRKscyzmv8bw2aPFWXMvzeFvQeB69ryTRBj5Pd0RlG66/8Ra8tn4zevf348KF3HX9jKPKUpQ7UTWSan8KKiSkweN8ZkC2h2gzz4Adxd/cLOTe71FYKoqvyh5XZoSrQ+XsnDCcYQa3BojNXrXeMyq9/nZZijLsTJ3BwYOHseuvu7H08VVom7YA45O3upa6DeNTt0sbl7wd49pvx/gk2xzt3bm8lrwN49h4T/scjGtj43vmSJP32HH7HLlnfNtcsI1rDVrbHLkm19vnYXz7XIzjPVn3zcOUzB14+HersWvXbvT1HcH589lr3q7hs6C2fvzvSM26S4FqhvfVAdXYNwJqNqN64HoVkc2oUXIgql315oBn1mw2jeKurmDFq36pR/0GxZ1CPYuDBw7JAr+vvtqNN9/5GGtff0+eqLh2w3tg49MVpa3n8Wasff19rJX+Pb03vOddvMr71r2HV9bxfdE9a3l9/Xtgv3b9Ztf4Oes341Wer9NrPH+d196PXuP5Om3r38dfNn2Cr776J/bt7UPfwcN5gMrH93z8JVKzyKi0VX4hUM0koHEdNq/6zT69CqCaYyXMGTCsqH7asmankmm5sC+NWM1wCpWqn0UpBCqfNXWg95CoUR5zz1RuTCHHPA8ar4Uteu2gZLl4Lu/b687tMxivZXKBffj+6HX3f+zcf479v73R96C65/fl8wfyAjWqRzXVHwA1NLwViJIIyHM9MsbN8M5xpsioAmAzBQhYhqnMHIgY1V1XQJrR7UEaAFWAzMJbl0Kdt2jYmaIzdeDAIezde1BASuETuIVbPw4ccC33Htq6bO46e3fs7udn2rXwnuz/xe+S+7k8l8/1n81zTqo+0QQFgfrRJzuQmb1YgsLMZJQ3t6K8mT1bW9Sa3DFB6a/zWtga2+RZVQ6A7XrMnuGofM3dE2tIgk/9Y/MpOV6z63wq3KDGzFQGZQmGp9qx4M7HxcYp5t38Tp0+I8CgCt2/3zEq2apwU6bd3zfoHmNJvlfYWO9xx/xMvseanQ/1v6LXws+OvhuZ+2B+Rj1y6Jgs35i3eBlqRqed59cwBTFpk1HaOEW8xbLGVpQ2sE1BWUMrYmyNrSiTc97jXnMeZBvK6l0rZV/XhlK2evatruex3uNeb0dpXdT4ZGM2ucbetyRKE1Hjw4JLattRN3IqHn38Bez+5vui39KHjMVNKPKDwYHFvebAFYIwAk1/1vvts6wX8O7LA241MexzeL8dh719jvX2efzeeRn1xImT+OH7vXh1/TuYPe9BTO6ch4kdc3BTx1xpkzrmwLW5mNQxF5PSczAp7V6bzHO5l/e440mZuZiUmYebMvOkn8g+rU2O3eu8xzd7nX1K72U/qM3HpLS21HzcpMeTMwslhvrue5+KMX5y4AwuXszeaeNXujlK1rBoo/Kp3tycObQbQ4AYICKAGCMOBlR0Twhadz9tSb4+6LOFfd0EINuG94SfZ+8Lr/GYOPwQwgAAAVlJREFUQD186Njg8NT58+el4uZg32F89ffd2PbFLnzy2c6ratuu8r6r/Ty579Pgf/M4q/G7RW2bHn/6xVf4+pt/4fDhYzhzho9Zv4jLl7NkWDQnly5ewsmBk2I/GhhyewNH2DsV7lQ87zeWdfeELGzAdtdyPzs6t/siMNv/C82F6JoDPu3fkwOncelSNtFcUzQSLJaBXgYunL+AgRMn0d93xHv+EYBCgJHxCJDsa9G9CjJlTrl3SHs3/JyhjvOBt1++LzX8z+cvDCKaYaD+SgF88cJFCVWdOHEKx44N4NjRE9KOWn/kBI4eG/BN7gnuG3T/0RM4cnQAfH/UBuSz7TPtPceO8bNPgD0/1+6314/yfx9130mOjxzH8eMDYEENvze1Ya5GHAbqrxSoHBZt1ktsly6JzU67Pavxem7LvedK5/k++xd8Jr9jLjhD0QwDNfw1ho//v/0F/i8RJMD/y8ZsVgAAAABJRU5ErkJggg==;" parent="1" vertex="1">
          <mxGeometry x="480" y="450" width="170" height="112" as="geometry" />
        </mxCell>
        <mxCell id="1UfFJ1RZVOHwHZjwDA17-10" value="" style="strokeWidth=2;html=1;shape=mxgraph.flowchart.annotation_2;align=left;labelPosition=right;pointerEvents=1;rotation=90;" parent="1" vertex="1">
          <mxGeometry x="530" y="377" width="60" height="100" as="geometry" />
        </mxCell>
        <mxCell id="1UfFJ1RZVOHwHZjwDA17-11" value="" style="endArrow=classic;html=1;entryX=0.88;entryY=0.25;entryDx=0;entryDy=0;entryPerimeter=0;strokeWidth=2;" parent="1" target="1UfFJ1RZVOHwHZjwDA17-6" edge="1">
          <mxGeometry width="50" height="50" relative="1" as="geometry">
            <mxPoint x="491" y="283" as="sourcePoint" />
            <mxPoint x="450" y="230" as="targetPoint" />
          </mxGeometry>
        </mxCell>
        <mxCell id="1UfFJ1RZVOHwHZjwDA17-12" value="" style="endArrow=none;dashed=1;html=1;dashPattern=1 3;strokeWidth=2;entryX=0.55;entryY=0.95;entryDx=0;entryDy=0;entryPerimeter=0;exitX=0.441;exitY=0.118;exitDx=0;exitDy=0;exitPerimeter=0;" parent="1" source="1UfFJ1RZVOHwHZjwDA17-6" target="1UfFJ1RZVOHwHZjwDA17-4" edge="1">
          <mxGeometry width="50" height="50" relative="1" as="geometry">
            <mxPoint x="400" y="280" as="sourcePoint" />
            <mxPoint x="450" y="230" as="targetPoint" />
          </mxGeometry>
        </mxCell>
        <mxCell id="1UfFJ1RZVOHwHZjwDA17-14" value="" style="endArrow=none;dashed=1;html=1;dashPattern=1 3;strokeWidth=2;entryX=0.96;entryY=0.7;entryDx=0;entryDy=0;entryPerimeter=0;exitX=0.182;exitY=0.842;exitDx=0;exitDy=0;exitPerimeter=0;" parent="1" source="1UfFJ1RZVOHwHZjwDA17-5" target="1UfFJ1RZVOHwHZjwDA17-4" edge="1">
          <mxGeometry width="50" height="50" relative="1" as="geometry">
            <mxPoint x="520" y="430" as="sourcePoint" />
            <mxPoint x="196" y="216" as="targetPoint" />
          </mxGeometry>
        </mxCell>
        <mxCell id="1UfFJ1RZVOHwHZjwDA17-17" value="" style="endArrow=classic;html=1;strokeWidth=2;exitX=0;exitY=1;exitDx=0;exitDy=0;" parent="1" target="1UfFJ1RZVOHwHZjwDA17-4" edge="1">
          <mxGeometry width="50" height="50" relative="1" as="geometry">
            <mxPoint x="290" y="100" as="sourcePoint" />
            <mxPoint x="450" y="230" as="targetPoint" />
          </mxGeometry>
        </mxCell>
        <mxCell id="1UfFJ1RZVOHwHZjwDA17-18" value="" style="endArrow=classic;html=1;strokeWidth=2;entryX=0.064;entryY=0.111;entryDx=0;entryDy=0;entryPerimeter=0;" parent="1" target="1UfFJ1RZVOHwHZjwDA17-5" edge="1">
          <mxGeometry width="50" height="50" relative="1" as="geometry">
            <mxPoint x="352" y="80" as="sourcePoint" />
            <mxPoint x="450" y="230" as="targetPoint" />
          </mxGeometry>
        </mxCell>
        <mxCell id="1UfFJ1RZVOHwHZjwDA17-19" value="" style="shape=image;verticalLabelPosition=bottom;labelBackgroundColor=#ffffff;verticalAlign=top;aspect=fixed;imageAspect=0;image=data:image/png,iVBORw0KGgoAAAANSUhEUgAAAB0AAAARCAYAAAAhUad0AAABbklEQVRIDa2Uv0tDMRDH82c5uTq46NDRRZciDnUoToJDcVCQghSVuggKD4U61EGFioOi0kEHKQ6ugv+CdTj5Bi69xLuUpw0cF+7X5/KSe44yq9N7puXNgo66j5mokev6YeDji8v+yKjsnGLzpnbnjqYWtrxML+5YYZF9dqUVcpBvLRUqgQy2Ckg7x7K2wL+gGhBFYB8nDJNaA0dQCyiL/GWfggM0BS5tnFClfhjuqAxsprpLyJc5EuyhGrD/+kG9p3dqtK9Ky8XtgJBvgR3GQnaEQCS8vH3+WzQwxs/Nrx4E6Fxtf2JAbhpg1OWDYfxc8/gmGODA5+SESWjUYyD0eqtL7mv4TbXts8ghwXun96XuFPF8PSkQHPD8Q7LA1UYRNSM7zu3x6i0gfiZhZDRwrnAZH5+Q/14BCkMOjLEaJ1ojKTA6KXdhgdmf0ylUA6pQGDVwDsY+jAODLaAJZTCeN4qsNc+5blbz+CEejVvrB4Tc8t3/Zva0AAAAAElFTkSuQmCC;" parent="1" vertex="1">
          <mxGeometry x="730" y="193" width="19" height="11.14" as="geometry" />
        </mxCell>
        <mxCell id="1UfFJ1RZVOHwHZjwDA17-20" value="" style="endArrow=classic;startArrow=classic;html=1;strokeWidth=2;entryX=0.512;entryY=0.889;entryDx=0;entryDy=0;entryPerimeter=0;exitX=0.32;exitY=0.889;exitDx=0;exitDy=0;exitPerimeter=0;" parent="1" source="1UfFJ1RZVOHwHZjwDA17-5" target="1UfFJ1RZVOHwHZjwDA17-5" edge="1">
          <mxGeometry width="50" height="50" relative="1" as="geometry">
            <mxPoint x="400" y="280" as="sourcePoint" />
            <mxPoint x="450" y="230" as="targetPoint" />
          </mxGeometry>
        </mxCell>
        <mxCell id="1UfFJ1RZVOHwHZjwDA17-21" value="1" style="strokeWidth=2;html=1;shape=mxgraph.flowchart.start_2;whiteSpace=wrap;fillColor=#f8cecc;strokeColor=#b85450;" parent="1" vertex="1">
          <mxGeometry x="114.94" y="440" width="20" height="20" as="geometry" />
        </mxCell>
        <mxCell id="1UfFJ1RZVOHwHZjwDA17-22" value="2" style="strokeWidth=2;html=1;shape=mxgraph.flowchart.start_2;whiteSpace=wrap;fillColor=#f8cecc;strokeColor=#b85450;" parent="1" vertex="1">
          <mxGeometry x="114.94" y="480" width="20" height="20" as="geometry" />
        </mxCell>
        <mxCell id="1UfFJ1RZVOHwHZjwDA17-25" value="3" style="strokeWidth=2;html=1;shape=mxgraph.flowchart.start_2;whiteSpace=wrap;fillColor=#f8cecc;strokeColor=#b85450;" parent="1" vertex="1">
          <mxGeometry x="114.94" y="510" width="20" height="20" as="geometry" />
        </mxCell>
        <mxCell id="1UfFJ1RZVOHwHZjwDA17-26" value="" style="shape=image;verticalLabelPosition=bottom;labelBackgroundColor=#ffffff;verticalAlign=top;aspect=fixed;imageAspect=0;image=data:image/png,iVBORw0KGgoAAAANSUhEUgAAADsAAAA8CAYAAADYIMILAAAgAElEQVRoBZ2bB1SU19b+jSY27IiCWLE3FMWGEVvsBXtUVLBir2nGmNwkV1NM+1JN0+TeNKMRKUMHBRvSh5lhhg7SYXpjqL//Oq+X7+Ym+e69+c9am/NOXed5n332fvY+h3b379/HbDbz8OFDSkpK/r8tPz+f2tpa8vLyUCgUWCwWWlpaMBgMyGQyAgMDGTt2LAMGDMCtX2+GD3VnzMihjBg2kMHu/Rjk0kcyjwH98Rw1nLkzvNm93Z+bN2/S1NSEeFRUVFBUVPRfz7G8vBy9Xk91dTUpKSm0E5MTj8bGRmlyYoL/P9bQ0CBNSvxOTU0NV69eJSgoiDlz5uDh4YGbm5sEtH///kwaP4b5c2awce0Ktm7yY9O6laxZMp+lc2fh4zWB0YPd6NetE726dpK+u2LFCt544w3kcjnNzc3/9fzEZ+12O/X19Tx48IB2ghHxpLW1VQL96z/itTYTr7dd/3aU3qMVs8VMcnIy/v7+dO/enUEDB0mTHejuTv9+/Rg9aiQLFszn9k0ZxXlyGu1aWlssj6zJhKOulMykKD5582X8/Z7Cc+RgnPv0lqxjx46sWeNH4q1bNDY0/uFcfj33tmubzYawK1eu0E64rrgDAsBvH+I1wbJwozYTnxUsijsmRsGk1WolIjKC9RvWI5ibOG4Cp46c5NDeA7g698Vr3BhePHmAB4khOPQFOOoU2MrSsD9Mpakik6byTJpr5NjLUrCWp+DQK6mvzaQyN5HE8O84EbSF0YNccO7aiaEDXHjztdeoqayiwe6gsaEJq9X+f85fzFuQef78+f8OrAAlQIpH2w3Q6XTSj4ib9dJLL+Hq6srIkSN58YXT5OeoSbt3n8CntzBvhje/fPcVDuNDmq2lGMvSMJXcw1pyH0dZCo0PU7Dm30GvikOrjqNOHUeNOhZDcZIEvEmfT7O1nOS4G2xZtZBenTri2teZ1185S1lJiTQfs8VGS8vvyRLzFkBFTBJx5D8yK5gTAMUdEtcOh0MCbjKZuHjxIpMmTWLixIm8c+EdsjOzSL1/n5OHDjJxpAfPHdlPRV4W9TV52CqyMBXfxVZ2F21uLPrcOIy5cehV0WjlEWjlkRhUsRjUcdQqo6jIllGliKIyK4ranEQaazSUZiVx9cv3GTnMnb69e3Li6CEqKippaPhjz2wjSLixWK7/EawAKky4apu7iwC0fft2OnXqxNKlS7l79y7yDDlXf7jCpLFjmDhiKL989yWN1loM+SlYi1Owl97BoImgLPUHanNk6HIi0Kpk6JUyrLkx2DWxGOUR1GWGYlBGYlBHoVXKMKtjcBTepi47jjplEs1VOfzw909w6++Mc6+enDz5DEVFpdIcf7sMBTmCVWFSgPpPa1YAFSDFF8VYWloqRdh+/fpx8uRJKisriY+P5/Szp1m6YBFzpk0j7XYCppoiTBVq6kvT0OcIBiMwa8Iwa65TpwrBqJGhzwlDJ7+BURGKVRGBTRGJRRmFWRWFMScKU04kpuwwDPJwTDkJWHNvY9bcpao8m4ufvsWwIW50796Dzy9eorm55bdYpeci7Yj4kpCQ8J+Zbbs7wo2NRiNr1qyha9euvPPOO1KU+/rrr9m1axd7dgUy3WsCBfJkzKVKbCUZ2ArvU5cdRq08FKM6CmthLAZNJMXyUCpzIqhTy6jJvi7dBL0qGIM6DIM6HENOpGQmlQxT9jWMihtY1ZGPGFfFUKBJxKgr4MXnjuLUtQsDXAdy584diQwRUMUSE6NgVMxbgE1LS/v3YMUXhL+LUXxBpBWRM0X+FAEqODiY48ePExAQwLSpnlz67H0s1QWYSzMlRk2am+iUMupLblGZFUJFVhgV2REUyyMoV0VTqZRRlRWMvTAafc6N34NVR2JRhWJShmPNjUWrkFGVGUplaQoOWyn5mkwCtm2lV48+zJw5C7VajVarlbJEWVmZBP6/Btu2VsV6FXdp3759UjD66quvJBceMWIEwp2FYNj6tB+m2nyM5QrMpQ/Qq+MxqqMlpmqVMgrTQrBWZVFvLkJXrcJYlo6tIoWyjOv/ABn6O7CSK6sisYjfyYlCmxOJrfgWamUspw7788rpo6xbtYyRQz3o0L4Dly5dkqKvWG7FxcV/DqxwehG66+rq+OCDDyRgffv2RZhIM1u3buXtt99m9+7dBPqvwVybg6UiHV1ePNaCWMoefE9FxhWqVTKa9RoUKbEc3ruFGRM8WDnXi+DLb+KoSqZWFfqHzOoUkeiyozFr4qlTytBpomkxyTketJL+PTowuJ8TTo8/xgBnZ4RwEfMR2UJ4owD8p9xYMCvc4cUXX5TyqNC1vr6+EvDU1FQ0Gg1ZWVlSwp40zp2S3AT0D+9SpQjBVhBJbeZPGPLDsFXc5drf3mOujxc9e3TDa/RQJgxzZ+WcsRSmBaPLjcSYK9brv65ZvVKkJRHc4tGpY6nTRGF7mMjn750k/OePib7xLd9+/jErFixg8KBBDBw4kJiYmP9lVAD/QzcWgUg8xB0Ra7TNvrn8DaNHjaJL5y4sWvgUimwFWRmZvHvhHQJ27ODI4cOsX7eOEYN6o0kJx1yUJAUlnSIcvSoKU1UGSdHfMW74ABbMHM9PX7xFYXoEJRkyNHeuYsy/hS4nFlNODOacaEyqSAwKGUalTApqOk0s2px4tCrBbiQ6VQSW/ChqVKHUl9/FXPKAwpR4/DcupafT45w9fZrW5lb0OgMtLULtObDbbaSn/ypAiTvQlmbEKMAK4MeOHOWxdu1Ys9qPB/eT+ds337J39x6C9u7j6OEj0vtbnt7M6CEuFKVHY8m7hVkZhU4uw6BOwFiRjf+6p1jgM4Hbsm+pr0jDoInCUZqEQbCliMaSfxuTMg6TIlr6rkkZIQUlg0omLYGq7Ci0inj0qhj0ChnmnGCM6uvoc4KpygrBUZKGKj2GubMmMX/2bGorazEZREQWYOupr7eRkfErsAKgkFcCpLgWJgLTdO9puDj35YfvvicqIpJ9e/byzMlTHAjaz5FDhyXAOwMCmTbRA33+PerkEdjV0eiyQjEX3EKZHMrYQd2IvPYFDdVy6sSNkARFBLXZkdgKb6NVxqGTR2OQR2LMjsSsipTA6hRhEti6nDiMmiRM6jiMqkh0il8w5d7AnCfDUpiINucODmMRR4O24dSxI/L0LGwW+78H25Zm2lxYCA53twGMHD5CAnrowEH27wtCgDt88BDPnnqG40eP4bdqNZtXL6C+PJ3ajBDq1VEYBNicaB5EfM2FM3swlKVTlS3WcQiWgjh0OZEYNXFYC5LQ5yRg09zCmB2FQR6BRQgKpYw6eQg1OREYcm9Rp4inJkuGLjscvTqU6uyrWIpiqM0Rdpfah1lc+dun9HZy4l7SXezWehrqHf83swJsG6PCrW8n3aZHt+7M853L5a8vSWwK1z1x7DhtwM+eeYlpU705d/oIjeVpmBQyLNnBWLJDsKgeAapV36Qu9xaVGSFYFKHUKsKxF99Cp4rBnHeLe9c/ldzYoopFnxUuMWtWRSDcWJcXg2DWkHNLYlavjECnDkefJ5NESZUylsTrlylW3+FuQij9evVCdkNGS3MrzY1N/wq2LR8JNkWaEetUdBlEwAoNDcWpS1dWLFvOB++9z6kTJyXAe3btlq7FKMAL5kN/uIit6C52dRSmzGvYlKFYVDKMubFUZMmkvCt0sDlbKCUZjtJbErOteiUfvLiLdNkl7PlJ1GSEYlZHYc+LRq8Ko0olI+aHd6lR3kSrjJFERa0yjDp1BNqCOJptRbx8dCd1ZdnI0xNxc+7Nle9+pKWplXr7b5gVYNuCURtYwapYv9988w1dOncmYPsOLrz1tgRUBCbhugKkCFTCnYcNGUpaYogUVc2qMGyK6zjUYegVN6jVRKLNicWgjEWwZVXdQKe8hrUgEkfZXRprs7gX+TfOHH6ausJ7VCqjKEm5giU3nMrMKzRo09m1Zhb5qZHU5d7GUHSHOlUU+rxEqjV3aNQWsXerH6m3IyhUp+DSy4mP3n8Ph70JR33j75ltC0ptlY2QhoJh0Vrp2qULG9at56033pRcV7iwANoWpESgGj1yFOq0m9Sp4xF61qq8jl0CG0KtJhqtcENlHGZlJFZlCPbCKLSqMBzlDzCVPsCiy2PlnPFcvXyBhrpsquRh1BfGossJo0Ev59j2JfzPy0do0OVSmBZOjTIaU+FdGus0tNiqeOPlZwh8egXp92PwGNSfV8++RKOjmUbHH7hxG7MCoGBXrFsh+oVgEAFKpJ1Xzr7MUwsW4vvkHPy3bOXg/gOSCWbHjh6DKv0mtSLV5ERiVoZgE26mCKdWHYNWlYBBmYBZGY1VGYZeHYFeE0NjXTbGcjmt9kp+vHiB5T7juHn1Ig0PkylLvkplRjDG4jtc++INJg9yJjX6J0zFDzAX3UVx+yrxNy4Rdf3vvP3aaXp37ciNK18z1XM0z586SXNjC82Nv0k9bW4sXFeAFu4rrkXlIMS+WI8C8LgxY+nTqzf9XfrRtXMXCeDG9RukYOU5YSL3E8Ko1txCL4SBMhyLJpo6hYxatRAENzEob2FWxGJVyjDlx1OYHMy3H5wh6uqX5KTeIvdBIqP7defCc/tpLM+kNjMCc14CVao4CpVJTPEYRMBKX/QPM7CWp3Lt0psM6tOJ7k+0o1vH9owY6EpU6PdMmzyOU8eO/ntmhXoStZ8ALGSWCFBC97r1d5VAzpoxkzfOnefip5/x5vk3GDp4iPSeiMpTJnsRfu1bqjUijcRgUIVjlsBG/ANsIgZFImZFnFS3GgsSuRPyOYN7dGb8EBemjR/O+MHuDOrehR8/PE9jhQJ73h30OfEUpoZjKMrg6mfvMLZfV7559yXMD1MozorjzbPHeO7oHl49+zy344Kpq9Aw3Ws8Lz73LC3NLTQ1/IZZ0UoVa7TNlcW1cOPY2Fj69OkjRbeVSxZQUVZIRXkRtXUVaPV6Pvz4E5ycujPZ04t9u/fywr5NWItuYylIpDwlWBLvNZnhkiISiurXZlFFY1BEEn35r5zaOh//hZPYtXIG4V/9FXvBbaxCY8tlGOWRWFU30efE0qxXcvZYID2faM+PX/4PDlM1umIFVq0ac3WKFCtsBXeZPXYIb7xyhuaWBhqaG6TlKLJLUlIS7UTTWVQ1Yr3+es1ev36dxzt04OnVS6ksVvPZh28zcbwHM6ZP5MxLz1NZ+ZCVyxYzbuRw/JYuZum04bTUZiLEuwBZmyXDnv9IOv4aqLi2aWIwCEmojqW++C7WorvUlz7AnJdIZVootZlCkIgbFI0pO5rarDAsxXfITZOxct5UvMeNJEl2jUZ9GerkcCpyIhH5VzQLvDzc+J8L52lpbaKhpVFKo4LAzMxM2onKpY1VMYoAJcZvv/2WDu3b89H5szgsNXz54RusXzmfoe49Geren6s/fs0PX3+Ce+/uDO3bjS1PeWHJTZDkokEVgzEnFp2Qfr9hVTzXZd2QWi7abBmVGaEYNPFUK6IkkWFUx0r6Vy8Pwyzl5QhqM66jy41CW3CH1IRrTBjmxoLpk3kQF4K5PIsypQytMoI6zW1G9u/Bt19/SVNrKxZHveS1AqzoZEhNcuG2IiiJUaxVAfby5cs88XgHZD98QUNtIVV56RzeuZ6vPj5HyI+fsGLuJMpy7hF8+QO+//gcxcmhkusKkIJZe0Ei1emhfwi2sSges8i/2aHUZIdRo5BRlxNNRcYNqrNCMIkOhVq0ZEJpyImgNv0KxjwZxuIkDCUPkP18mX5OXVk804uc+2EYShIxaGIpSo1iQI8uBF+7hgOwNzdJ3irAipK0XWFhoVTaCYACrHBlcf3dd9/xePvH+PHj8ziqc6nUJDNtjCvxEd+jK09n57onSY/7CUe1AnPhA+pLkiWQwo11iigEu5bc+D8EW5fxM1r5dcy5UdiLEjDlx2LMj0MrREd+rJRjTSqhwEIwpP2MXR1CZcZP6PJjKZVHUluaI3ncoB6dObB1MaXZYVJpKU+4hkvXTkRHRWF0NGJrbJQ8VaRRoRnaiW5hG0gRhdvYDQ8Pp0P7x3j7lWdotFRQmpVAwKrp3Iv8mhplHCWpYZSnybBpbmNUiBwai1EhKpZoyR5VL49Ktt+6slHzqDOhUwajUz3qPdVm/Yx4vVYRQrUyDG1eLJbSu5hVMZQl/0idUGZld6lR36JUdUcKTk9N92TH2vmUKGKoyYwl7udL9OnSidTUNLRGG/Z6B/VWMxaL+dGOQEFBgcRmG8i2fJueno6zszOBW9agK1OjK07n6wunyL1/nWpFJLWKSBrKkrGo46lODcGo+NeI+1uAv36uk1qp4VJnQqu8QZ0imLrsa9gKotBpIinLDqNCHYe5NBmDqIiKblGpCKMkM4yq3CTMlUqir15i6sgBfHT+ObSlyVhy7/PFm2dx6e5Ebl4+OoOV5pZmbCY9FrOJ7OzsRwFKuK4QEwJwmz4WjfCDBw8ybJAbP37zKQ3GhxRmxlKujMNedpuH6dcx58dJTTXRyDap/nuwdYobmHIjMeVGoFWGYtQ8GiszrlNfdgfF7Z84c3QT9mollao71OYl0qDPxladQV5aFIHr5zNuYE8O+PuhLc7AWJ5Ks7GIQ9vWMXn8GLQ6PUaTjcYGB031VqlbIYFt27IUYMVDuLIwcQNEF32Aa388x43i/q1wHPpCaotSKBHdgdo0KnOiqc0RHcRYqTPxa/b+3bVJEy21XIScrMkKkWSlKS9WkpAViiiKcxKY5TmQGz98Rua9OFISg7n69wscCFiG57BerPCdxMW3z1JXqsJQriQ/M4JGYylP+Uzh1MnjNDa3YHc00NTooKnBLjGbmJhIOyEXBThRBAhmBeg2czQ0EHTgAB06tGfTumXEhv8gFckN1kISgy+yY9lUZJffRqu4iTnnj4PRH4EWIOuywzFpYrAX3sScG8vDtBuYi25TnBmJsTKbLX5zce/bncED+9OnlxP9ej/O1nXzuP7dR+hKMmi21/BQ+YALLx/hm4/PUKy4xxiPAcQnxGJvbKCltZl6uxlDXTUGve5Rns3Nzf3fCCzYbFuzbYV84p0k5s3zpWcPJ7wmjuS5E/t56+xxvEe5sXTmFNT3ZdgKH0glnFEVjV4RIe3P6LPDsWpiMSsjsKqjHwmJbBmGbNFIi0Er9nM0IgLHoUz4gfDv3iHz1s8UZsWjr1CiTL/Jl5+9w9dfXSQk+DuK8tKxGB5SW5ZLYtx1Pnv3VVYt8GH2pNEkx//IV5++y5hRw6iuqcJab6epSXQWHTQ31EtkSjsCbYWA5MO/+yNSkYPk5HvSFseAAQNp374jY4cPZWj/3gT//VNatBosBXewFt2iWjAm9nTy49CpRPf+OtacCKpSfsamiaJOtGrU0VTLw2iqy8JWnIwu7x7l8kTmeo9g5ODuPDl9FIHbV3PsSCAnj+7i/Nln+Mvzx4i6cYXwaz+ybN5svL3G4NTpCcYO68ftqJ+oLc1i6hQvNm3aJHnlr5eiIE/k2f8IVuRbk1lHU1ODtKEVHh7Bq385h8fggcyYPB75vViwlqJV38ScHy/tuon+ktjqsBTelNagvSABS3681CizaES7NBJL8S0cZfeoVMTw2bljPJQncP9WMO+de5bFvtMZ7NqHXk6P07+PE326PE73xx/jxeP7+PbTCzh36YyHWx/81z6F7OrXNNbX8PeLb0oC6PPPP5c0ggiyAqQQSP81WLGGm1tEBfQoaIkN3wZHMyOHD2fwABeirn9Ps76ICkUcNfJQ7AWx0jakYDj37hVKMkKpFe1PjWiDRqIXvafcaIpSfsJckkhjZQp718/m0Jan0JdmoS2RU5B9m5jQH3jrtefZt2OTdNZi3vQJvHhkB3G/fMGp3auJvvIJlnI59XX5aMtz2LXVj65du0iHRIRzCiYFUYLhPwW2sUkcJxCNZjsWiw2jwcrJk6dw6tKJl04dxFKpxlCYjE4Zjk0jozL9FyxFt1Ak/cRrz/ijLU6mOC0Ua+FNyu5fkYp6e3Ec2txIClOvU1dyn0NbF/LXZ3ZzJ+JHjNX5OAzlWOtKMdY8pFSjpKJATrkqica6LBp06TSWpVCtiEdblMrNyJ+ZNGEkp06dlAqaNhcWYEWg/RNgWzBb9FIfRwSvetHTcbTw4EEq/V1cWLtsPtoyBfWV2YgerzUnBGteDFUiSNXJWTxjOJE/f47lYSpmUQGJ6kQejFZ8rjiOsn90ImqK7jJp2EDGDujFkYB1XLn0EXdjQ0i7E8/duChyM26jSQ5FnnCJ0rSf0GaGSXGiIuc2KxbNZJC7K23iSJAiAAr7k2BbEcy2tDzqYrS0QGsLVFfWsHDePEYPHUDWvSistZpHAkMZgla0XfLi0eYn8iD2e5bMmkxC8GWqC+5RIZdJ+zUGsa+TK6MyU3QaRa8pjpDL77J/4xLG9O+Nc/t2DOnekwlDhjBy2CBGD+7LhMEuvHJ4I6aCJGqzI3BUZPDVuy/To9MTfPDOWxIwkUHa0qZYt38abGurqILa9n8egRXC+m+Xv6ZX18c5/9IJWpvqsD+8j1FUMmLLQhGOoSABe/kDLpw5xOxx7lSXpqHLvSmdk6iWB1OnDKciIxhb4S0aHybTZNTwMCuanz87x18OB3Bw0yr2bVrBod3ref/1E9yL/BZr6QO0mnjM5emkxl/Dc/gAXHp2IzwsVNIIAqywqqoq6XlbKv2vojGIbRBxvOBR2UfrI7AGk4Ha2ipWL1/ENM9RZNwVzTMVpiKxFSE6hzL0KrGDHoGu5D5vvRDI4umjyJfHUZF3j6qsMHSqaOxFt6mRy6jOCqdWBLDcBETLxpifhDH/Lkapg5hJfV2W1N+qzb+DNv8+GXejmO8zmcGufenSqTPPv/CSBFK4rhBHYhSE/CmwrfwzGosFL45KNTa00NjSREp6Mk9vXEOnDo9x/uxzNOgL0Zfco04diyUvBps6FH3mFYz5MZiLk9izeQELnxyPRnGfxvIMHqaEUSOPwpJ/C2vBTWqVkdSqoqS6tipbJu3SV8pFFRRGQfJ1GqpVNBrKqMyVs/XpDVKqGTp0OP3chtDLeRDvvveeBFT00UTKEWz+KbC/ZlZKQ80tGPQWPrt0Ee/pUxg8ZACufXszecxIMu7H4NCpMRYloRe7AdnXqFddozz9B7T5sVQU3GXn9rVMnz6Z+O8+xFKcIu27mvNuUpsdLnUrdOIslDJGato9atyJFk4sptw7WMrUfHTuNZ6c6o1zPzc8Ro7Ff8defHyX0stlKH1dXDhw4IB0lFAAbYvKguX/deO20zIih1pt9RjNRmwOE40t4qClFWuFGhx6aHWQnZ3FouUrad/FnR59RzNs1HQGDplAz16D2LphPeX5WTQaSyhKDkeXIoPcezRo0ijPu4em5D5l1XJOHN6MS9fO7Nu7GYUykRZTMfUZSZhSYqnLSqBSlUCdOonG/AdQJoeSDBS/fM/caZN4vGdXXEeNZuzEyRzZfZyjp15l78sXmDBvA937D8N5wFDm+M6npLgAWuzgMIlTmRiNWuTyzH8eIKmvd+BoaKSpuRFbvQWLTY+jyUJTg578nEyOHD3EYI8ROPV1o9+YWUxbvImn9z7Lhp1H8ZjoQ5eu3fGdMZnP3n+N3IwETOLMUkEqWtUDzLo8SioyiAq/xPUv3uTEnm2MGz+IfkN7sXHDAn746Byq6GCKUxMoyblLVlII4V++zwfPBLF02ggG9+7MAI/+DB3lwYjebkx2HoTn4LH4rNzE1lfeYcuhc0yfv4p+Q8fgMmAwy5YuIeXOLZrqzbQ02qivN5OVlfFPsFLF09SIyWLG7qinlRbqG+x88umHTJzqxWOdnOjkOhTvZetZdfRlnn7+PJufeY2AM2+wcMcBRk+eLm3zt2//GAP6dmH9Am/O7NnCe6+e5vKlDzj3lyOM6tmO4e3a4d6+HWPcezHGcyDuw/swwKULXv37MLRbR3p3bYdLj/b0fKwd3du1Y9KEIUydNY4e7l0Z1q0La53cOeQ2hild+9JvohdPHniWLUFvsvuZ15m5ZD2deg+gs1MPvL29yZZn0NpkR6+vIT099Z9gHQ0O6hscNAvl0dhMdEw8W7cF0K2/O137D2LiwtWsP/EqW8+8x7KTr7Pm9FssPfYKa597nfXPv46vnz993Dx48qklBIeF8MtPf+e9v/6Fl0+fZv/ubYzu1ZHAEQP52W8lb4wbj7+bC9P6dGaSWw/G9HIiYO5cjm95mhNBOzl96hCXPnibWzd+5m8fvY3v6CH4uPXk9MSJyP0CyF3lz6dzljDcbRAe81exessZ1gadIfC58yxYF8Cg0ZNwdh3Etu3bsJl1OBzWf3Xj1tYWmluayFaq+Ou5t5gx05fHOnTF1XMGCwMOsvbU6yw/cZ6Fx86x4oV3WPbsm8w79BLTdxzDc8MefNfuxnv+Gjr1dGX8rCe5EhyMyWTGYWsgI/Em81368Mv69eRtDUS7YiM5m7byzdJFHJ04geXdezGre08OrFrB1cufcj9BxoPoUL5//y0WDnTFv48zwatWURG4G+NCP6q8ZpG12A9/j3GMmTgL32X7mLvlOPP9j3Ps9Q9ZsGYb3fsNZsIkL+wWPTa7CYVCTru83LxHlYK9nvc/+ADfeYtw6uVKj74eTPBeyJoDL7HxxDnWnXwDv2cusPzk2/jsfoGp/seZuPEAY9fsZozfLiav3MHcDXt5cm0gY32W4DbKC89pczl07Dn2BQYws3MHbm/cSI73bMyTvSmZ7UPm4kXcX7WO0GVrOD56At5dOzHauTPje3TBt1c3ZnZ+gmNTJpMauJfUxYvRrFpIzISB5PmMJX3hHA55DGfq+KksWLOPiav2MMVvD0u2H8P/0As49R3MTB9fqVOh1daQlpZCu8L8AmmH+uxLZ+nZqy/dervSy300SzbtI+j0BTYcPs+WU++w6ZkLPLX3DJPW7cdzzb7f2dR1e5iyagfTVm3Hd+0ufJZvx3P2CpyHjaNLj24scu9N0rBN4zMAAAZoSURBVKrllE+bRYWnB/kzx6Oa5oVy6iyyF6wgLSCIn/fvYcVIV/Z5juZGwC7+4j2D9b16cHHEKOLGjCF55jiUG2Zwb5Y7yUtnctJzNMNGjmDyph3M2HqccUu34bN2J3NX+9PVeSC7gw4D4ui+TqrJ2xUVFmEyGHlq4WJcXAfiMcGb1TsOEvDsX/Hbf4Y1h17Dd+txvPz24Ll6N15r9jJ19R/Y2l1MXRfINL9AZqwMxGd5ILNX7OTJ1VsZPmE8Tw3pR8yKxRRPm0H2zOFk+o5DPWMSpRO8KJ08i7jJM3jBtS+LOz3Gq9OnErU5gM+XLGdZnx78MH0WxYuWU+QzE/nUMRT6TCTNdxYvTvFkyPiRjNy8mcnr9uG9dg9Tl21mos9iOvd05aefr0tFjN1uJTX1Ae0K8vKlgxZLl67AZaAHvivXs+/s2yzb/zzLjpxlsnBRv114r93LtLX7mLJqF9NW7/6dea7ahteaHczcsA+fNUH4rNzHzGV7mL1BsLwM737diVm7nKLZPtybM4Z7Cyainj2Z2klTqPP0pnDeIoLnz+bEpGFsd3fhkyUrCfAYiW/f3si2BZI4bwnJPnN44OtD7qxZpPku4uTwcXhPmc6MzQGMWeLPrA178Vq0ngkz5tOxWx+KSsqw2SyS3E1KuvXIjYXmfenl13iiW2/GPrmIjc+8wrrTb7Lw2CtMWreLiasD8PLbybQ1AuQupvr93qasD2Ty+kC8/ALxWr6LacuCmLHioPR8+opVzPZw4/rKBahmTiVl5hTuzPYic5YXRVOmUDB1Csq5cwlft5StXoMZ4dSBKe5u+C2Yh++EiaxwH8yeIcN4dfYMXntqFp/OncXFeYvYPGoys6YvxHflTqaK+YkltGY7A0dMYN7CZdTXi46pqGvrSUy8Sbs8Ta5QhcQkJOLk4o7bxOks3HWEJcdfZunz5/HcvJvxa7bjuXo7U/0C8BbA1wT+zjz9tuG5xp9p6/Yye8NRZvsdZdryg4xbuZ15W7fiOcCZS/NmoJw1g5wZPqTMmkHqrGkoZkwj7cnpxPnM4oXRQ/Aa3JWImKvclqdQrK3jYW4x7zx3himurgzp3hmPgc54e/TFo0d3Rg8Yhu/STcxZvpPZgtVlm1m5bT89+g3mo0++oKlJnJN2YLdZyJZn/fNfXbKylcz0XUgX54Es2bKfgBfeYduL7zNuz16mBuxltv9e5m55ZL4bgxA2b0MQ8/9hi9bvZfH6PSzYuI8FG4NYvP4gC9YFMdnfn5kBm1gwZzpnxnuhXrqN3Onj0cyZRuaiecQsfYq/SynIi0Vug1jh40NCQjwWSz0VJVWo0nOwGuz88ksoS1as4ZfwSH4MDef19z5gsd86xk32ZtnqdSzc4M/SzQFMmD2PMd7TSVaopJaq2Wyk3m4lV6WknTiIKUSzyWLj8Iln6dyzH136DcN59HRcJ/rS23kELn1G4NpzBP16jaBvnxG0d3GnQ193nnB2p6OzO136uNO9jys9+rjSta8bXfsOpHufgXTv6U57Z1eecHfFyelxZnbsyOujJhG5cDY35j/JxeneHBk6hIWdOzOluzNj+7rSrWNXxoz1ZOuWnezdvp/RQ0exad3T+Pmtp7/7YPye3sLCVauZv2IlIyd40tGpB493dmLAGE86uQygQy9nNu/ag95mx9bgoLFJ/KeKlfi4GNqJ8/1xcXHSYZEPP/qYwD372bHvCNv2n2DzriMcCTjKsR1HObLjKEE7j7Jrz1G2Hgxi24EgduwPYte+IPbsDWJn0C62HQxk8+FdbD68m20H9rEzKIgDe46w9+BhduzcxolAf75+/nmiXnmeX547wRcHD/LXXbs5sWMHW9dvJijoMHv2H2Fv0DF2Bx7m+P5nCNq5l6MHj3L8xCm2Be5k//ETbN21i71HjhB05Ch79h1g/8HDBB48xo79h9m+7wDvfvQJaVnZhEdFEBETSUSUjJdffol24qCI+Lcym9VCTXWlxHKL2KdtacHqaKapsZXWBrF/24qtpRVDays6HBhbHVhaHTiaHdI2Q0OzA1urA1NrA6bWJqwtzTiaW2mtb5XON1gbbJisBpqbG2jSV9Fq0dEqNLiQp62tOFpbsYsS0iokaystTS20NrZIY1O9A6vdRqPYi/rH5xvE6XbRCPxH+0W8Ln6jvqkVo9lCvb0evdGAvdmByWbCarfw/wCKjZhdFFUiWQAAAABJRU5ErkJggg==;" parent="1" vertex="1">
          <mxGeometry x="290" y="50" width="59" height="60" as="geometry" />
        </mxCell>
      </root>
    </mxGraphModel>
  </diagram>
</mxfile>
